<?xml version="1.0" encoding="UTF-8" standalone="no"?>
<!DOCTYPE svg PUBLIC "-//W3C//DTD SVG 1.1//EN" "http://www.w3.org/Graphics/SVG/1.1/DTD/svg11.dtd">
<svg width="100%" height="100%" viewBox="0 0 24 24" version="1.1" xmlns="http://www.w3.org/2000/svg" xmlns:xlink="http://www.w3.org/1999/xlink" xml:space="preserve" xmlns:serif="http://www.serif.com/" style="fill-rule:evenodd;clip-rule:evenodd;stroke-linejoin:round;stroke-miterlimit:2;">
    <path d="M19.8,22.6L16.775,19.575C16.358,19.842 15.917,20.071 15.45,20.263C14.983,20.454 14.5,20.608 14,20.725L14,18.675C14.233,18.592 14.463,18.508 14.688,18.425C14.913,18.342 15.125,18.242 15.325,18.125L12,14.8L12,20L7,15L3,15L3,9L6.2,9L1.4,4.2L2.8,2.8L21.2,21.2L19.8,22.6ZM19.6,16.8L18.15,15.35C18.433,14.833 18.646,14.292 18.788,13.725C18.929,13.158 19,12.575 19,11.975C19,10.408 18.542,9.008 17.625,7.775C16.708,6.542 15.5,5.708 14,5.275L14,3.225C16.067,3.692 17.75,4.737 19.05,6.363C20.35,7.988 21,9.858 21,11.975C21,12.858 20.879,13.708 20.638,14.525C20.396,15.342 20.05,16.1 19.6,16.8ZM16.25,13.45L14,11.2L14,7.95C14.783,8.317 15.396,8.867 15.838,9.6C16.279,10.333 16.5,11.133 16.5,12C16.5,12.25 16.479,12.496 16.438,12.737C16.396,12.979 16.333,13.217 16.25,13.45ZM12,9.2L9.4,6.6L12,4L12,9.2ZM10,15.15L10,12.8L8.2,11L5,11L5,13L7.85,13L10,15.15Z" style="fill:rgb(255,250,234);fill-rule:nonzero;"/>
</svg>
