<?xml version="1.0" encoding="UTF-8" standalone="no"?>
<!DOCTYPE svg PUBLIC "-//W3C//DTD SVG 1.1//EN" "http://www.w3.org/Graphics/SVG/1.1/DTD/svg11.dtd">
<svg width="100%" height="100%" viewBox="0 0 512 512" version="1.1" xmlns="http://www.w3.org/2000/svg" xmlns:xlink="http://www.w3.org/1999/xlink" xml:space="preserve" xmlns:serif="http://www.serif.com/" style="fill-rule:evenodd;clip-rule:evenodd;stroke-linejoin:round;stroke-miterlimit:2;">
    <g transform="matrix(1.33785,0,0,1.33785,-116.51,-81.5734)">
        <path d="M199,359L199,199C199,193 202.333,189.333 209,188L347,160C354.333,158.667 358.333,162 359,170L359,292C359,302 344,308.667 314,312C257,321 266,417 344,391C374,380 379,351 379,322L379,88C379,88 379,68 362,73L192,108C192,108 179,110 179,126L179,329C179,339 164,345.667 134,349C77,358 86,454 164,428C194,417 199,388 199,359" style="fill:rgb(255,250,234);fill-rule:nonzero;"/>
    </g>
</svg>
