<?xml version="1.0" encoding="UTF-8" standalone="no"?>
<!DOCTYPE svg PUBLIC "-//W3C//DTD SVG 1.1//EN" "http://www.w3.org/Graphics/SVG/1.1/DTD/svg11.dtd">
<svg width="100%" height="100%" viewBox="0 0 20 24" version="1.1" xmlns="http://www.w3.org/2000/svg" xmlns:xlink="http://www.w3.org/1999/xlink" xml:space="preserve" xmlns:serif="http://www.serif.com/" style="fill-rule:evenodd;clip-rule:evenodd;stroke-linejoin:round;stroke-miterlimit:2;">
    <g transform="matrix(1,0,0,1,-2.22632,0)">
        <path d="M13.736,5.853L17.741,1.736L20.066,4.117L15.865,8.121L21.774,8.121L21.774,11.426L15.837,11.426L20.066,15.534L17.741,17.868L12.001,12.099L6.26,17.868L3.935,15.543L8.164,11.435L2.226,11.435L2.226,8.121L8.135,8.121L3.934,4.117L6.259,1.736L10.264,5.853L10.264,0L13.736,0L13.736,5.853ZM10.264,16.159L13.736,16.159L13.736,24L10.264,24L10.264,16.159Z" style="fill:white;fill-rule:nonzero;"/>
    </g>
</svg>
