<?xml version="1.0" encoding="UTF-8" standalone="no"?>
<!DOCTYPE svg PUBLIC "-//W3C//DTD SVG 1.1//EN" "http://www.w3.org/Graphics/SVG/1.1/DTD/svg11.dtd">
<svg width="100%" height="100%" viewBox="0 0 310 94" version="1.1" xmlns="http://www.w3.org/2000/svg" xmlns:xlink="http://www.w3.org/1999/xlink" xml:space="preserve" xmlns:serif="http://www.serif.com/" style="fill-rule:evenodd;clip-rule:evenodd;stroke-linecap:round;stroke-linejoin:round;stroke-miterlimit:2;">
    <g transform="matrix(1,0,0,1,-1528.784814,-1059.643333)">
        <g transform="matrix(0.6303,0,0,0.672634,1365.173259,198.233121)">
            <g id="Text-Centre" serif:id="Text Centre" transform="matrix(1.586545,0,0,1.486693,240.209113,-184.71941)">
                <g transform="matrix(50,0,0,50,24.956677,1024.492085)">
                    <path d="M0.569,-0.04C0.574,-0.023 0.586,-0.014 0.605,-0.014C0.618,-0.014 0.634,-0.018 0.655,-0.025L0.655,-0L0.414,-0L0.414,-0.025C0.433,-0.018 0.45,-0.015 0.464,-0.015C0.48,-0.015 0.488,-0.021 0.488,-0.032C0.488,-0.035 0.488,-0.038 0.487,-0.04L0.397,-0.325L0.185,-0.325C0.161,-0.245 0.138,-0.165 0.116,-0.085L0.109,-0.06C0.108,-0.056 0.107,-0.051 0.107,-0.045C0.107,-0.026 0.119,-0.016 0.143,-0.016C0.156,-0.016 0.172,-0.019 0.189,-0.025L0.189,-0L-0.02,-0L-0.02,-0.025C-0.004,-0.019 0.011,-0.016 0.026,-0.016C0.046,-0.016 0.06,-0.024 0.069,-0.04C0.074,-0.049 0.078,-0.059 0.081,-0.069L0.293,-0.76L0.351,-0.76L0.569,-0.04ZM0.19,-0.343L0.391,-0.343L0.287,-0.671L0.19,-0.343Z" style="fill:rgb(255,250,234);fill-rule:nonzero;stroke:rgb(255,250,234);stroke-width:0.03px;"/>
                </g>
                <g transform="matrix(50,0,0,50,61.706677,1024.492085)">
                    <path d="M0.618,-0.018C0.595,0.003 0.562,0.014 0.52,0.014C0.493,0.014 0.474,0.006 0.461,-0.009C0.448,-0.024 0.439,-0.042 0.434,-0.065C0.43,-0.087 0.427,-0.118 0.424,-0.157C0.421,-0.207 0.415,-0.247 0.409,-0.278C0.402,-0.309 0.386,-0.335 0.362,-0.356C0.339,-0.378 0.303,-0.389 0.254,-0.389L0.222,-0.389L0.222,-0.403C0.285,-0.403 0.333,-0.409 0.367,-0.419C0.402,-0.431 0.426,-0.448 0.441,-0.472C0.455,-0.496 0.462,-0.529 0.462,-0.572C0.462,-0.616 0.446,-0.653 0.413,-0.684C0.38,-0.715 0.326,-0.73 0.253,-0.73C0.233,-0.73 0.212,-0.727 0.191,-0.722L0.19,-0.06C0.19,-0.033 0.203,-0.019 0.229,-0.019C0.239,-0.019 0.25,-0.021 0.263,-0.025L0.263,-0L0.04,-0L0.04,-0.025C0.053,-0.021 0.064,-0.019 0.075,-0.019C0.088,-0.019 0.097,-0.023 0.104,-0.03C0.112,-0.036 0.115,-0.047 0.115,-0.06L0.115,-0.68C0.115,-0.693 0.112,-0.704 0.104,-0.711C0.097,-0.717 0.088,-0.721 0.075,-0.721C0.064,-0.721 0.053,-0.719 0.04,-0.715L0.04,-0.74L0.297,-0.74C0.368,-0.74 0.428,-0.726 0.475,-0.697C0.522,-0.668 0.546,-0.624 0.546,-0.564C0.546,-0.536 0.539,-0.51 0.526,-0.485C0.513,-0.46 0.492,-0.44 0.465,-0.423C0.437,-0.407 0.403,-0.398 0.362,-0.395C0.401,-0.395 0.43,-0.385 0.449,-0.363C0.468,-0.343 0.481,-0.317 0.488,-0.288C0.495,-0.258 0.5,-0.219 0.503,-0.172C0.506,-0.125 0.511,-0.089 0.517,-0.065C0.524,-0.04 0.537,-0.024 0.556,-0.017C0.561,-0.015 0.567,-0.014 0.573,-0.014C0.587,-0.014 0.602,-0.02 0.618,-0.033L0.618,-0.018Z" style="fill:rgb(255,250,234);fill-rule:nonzero;stroke:rgb(255,250,234);stroke-width:0.03px;"/>
                </g>
                <g transform="matrix(50,0,0,50,97.106677,1024.492085)">
                    <path d="M0.533,-0.711C0.531,-0.698 0.53,-0.682 0.53,-0.662C0.53,-0.623 0.535,-0.592 0.544,-0.57L0.528,-0.57C0.521,-0.584 0.515,-0.602 0.512,-0.625C0.507,-0.649 0.501,-0.668 0.493,-0.681C0.485,-0.695 0.469,-0.707 0.444,-0.716C0.419,-0.725 0.382,-0.73 0.333,-0.73C0.324,-0.73 0.315,-0.729 0.304,-0.728L0.304,-0.06C0.304,-0.047 0.307,-0.036 0.315,-0.03C0.322,-0.023 0.331,-0.019 0.344,-0.019C0.355,-0.019 0.366,-0.021 0.379,-0.025L0.379,-0L0.154,-0L0.154,-0.025C0.167,-0.021 0.179,-0.019 0.189,-0.019C0.202,-0.019 0.212,-0.023 0.218,-0.03C0.226,-0.036 0.229,-0.047 0.229,-0.06L0.229,-0.728C0.218,-0.729 0.209,-0.73 0.201,-0.73C0.152,-0.73 0.115,-0.725 0.09,-0.716C0.065,-0.707 0.049,-0.695 0.041,-0.681C0.033,-0.668 0.027,-0.649 0.022,-0.625C0.019,-0.602 0.013,-0.584 0.006,-0.57L-0.01,-0.57C-0.001,-0.592 0.004,-0.623 0.004,-0.662C0.004,-0.682 0.003,-0.698 0.001,-0.711L-0.002,-0.74L0.536,-0.74L0.533,-0.711Z" style="fill:rgb(255,250,234);fill-rule:nonzero;stroke:rgb(255,250,234);stroke-width:0.03px;"/>
                </g>
                <g transform="matrix(50,0,0,50,128.806677,1024.492085)">
                    <path d="M0.04,-0.025C0.053,-0.021 0.064,-0.019 0.075,-0.019C0.088,-0.019 0.097,-0.023 0.104,-0.03C0.112,-0.036 0.115,-0.047 0.115,-0.06L0.115,-0.68C0.115,-0.693 0.112,-0.704 0.104,-0.711C0.097,-0.717 0.088,-0.721 0.075,-0.721C0.064,-0.721 0.053,-0.719 0.04,-0.715L0.04,-0.74L0.265,-0.74L0.265,-0.715C0.252,-0.719 0.241,-0.721 0.23,-0.721C0.217,-0.721 0.208,-0.717 0.201,-0.711C0.194,-0.704 0.19,-0.693 0.19,-0.68L0.19,-0.06C0.19,-0.047 0.194,-0.036 0.201,-0.03C0.208,-0.023 0.217,-0.019 0.23,-0.019C0.241,-0.019 0.252,-0.021 0.265,-0.025L0.265,-0L0.04,-0L0.04,-0.025Z" style="fill:rgb(255,250,234);fill-rule:nonzero;stroke:rgb(255,250,234);stroke-width:0.03px;"/>
                </g>
                <g transform="matrix(50,0,0,50,149.056677,1024.492085)">
                    <path d="M0.489,-0.711C0.487,-0.698 0.486,-0.682 0.486,-0.662C0.486,-0.623 0.491,-0.592 0.5,-0.57L0.484,-0.57C0.477,-0.584 0.471,-0.602 0.468,-0.625C0.463,-0.649 0.457,-0.668 0.449,-0.681C0.441,-0.695 0.425,-0.707 0.4,-0.716C0.375,-0.725 0.338,-0.73 0.289,-0.73C0.241,-0.73 0.209,-0.718 0.193,-0.694C0.191,-0.689 0.19,-0.685 0.19,-0.68L0.19,-0.425L0.303,-0.425C0.322,-0.425 0.336,-0.425 0.344,-0.426C0.351,-0.427 0.357,-0.43 0.361,-0.435C0.365,-0.44 0.367,-0.448 0.367,-0.459C0.367,-0.479 0.366,-0.494 0.363,-0.504C0.361,-0.514 0.354,-0.519 0.343,-0.519L0.343,-0.532L0.382,-0.532L0.382,-0.3L0.343,-0.3L0.343,-0.314C0.354,-0.314 0.361,-0.32 0.363,-0.331C0.366,-0.342 0.367,-0.357 0.367,-0.378C0.367,-0.389 0.362,-0.396 0.353,-0.4C0.344,-0.404 0.327,-0.406 0.303,-0.406L0.19,-0.406L0.19,-0.06C0.19,-0.047 0.194,-0.036 0.201,-0.03C0.208,-0.023 0.217,-0.019 0.23,-0.019C0.241,-0.019 0.252,-0.021 0.265,-0.025L0.265,-0L0.04,-0L0.04,-0.025C0.053,-0.021 0.064,-0.019 0.075,-0.019C0.088,-0.019 0.097,-0.023 0.104,-0.03C0.112,-0.036 0.115,-0.047 0.115,-0.06L0.115,-0.68C0.115,-0.693 0.112,-0.704 0.104,-0.711C0.097,-0.717 0.088,-0.721 0.075,-0.721C0.064,-0.721 0.053,-0.719 0.04,-0.715L0.04,-0.74L0.492,-0.74L0.489,-0.711Z" style="fill:rgb(255,250,234);fill-rule:nonzero;stroke:rgb(255,250,234);stroke-width:0.03px;"/>
                </g>
                <g transform="matrix(50,0,0,50,176.556677,1024.492085)">
                    <path d="M0.569,-0.04C0.574,-0.023 0.586,-0.014 0.605,-0.014C0.618,-0.014 0.634,-0.018 0.655,-0.025L0.655,-0L0.414,-0L0.414,-0.025C0.433,-0.018 0.45,-0.015 0.464,-0.015C0.48,-0.015 0.488,-0.021 0.488,-0.032C0.488,-0.035 0.488,-0.038 0.487,-0.04L0.397,-0.325L0.185,-0.325C0.161,-0.245 0.138,-0.165 0.116,-0.085L0.109,-0.06C0.108,-0.056 0.107,-0.051 0.107,-0.045C0.107,-0.026 0.119,-0.016 0.143,-0.016C0.156,-0.016 0.172,-0.019 0.189,-0.025L0.189,-0L-0.02,-0L-0.02,-0.025C-0.004,-0.019 0.011,-0.016 0.026,-0.016C0.046,-0.016 0.06,-0.024 0.069,-0.04C0.074,-0.049 0.078,-0.059 0.081,-0.069L0.293,-0.76L0.351,-0.76L0.569,-0.04ZM0.19,-0.343L0.391,-0.343L0.287,-0.671L0.19,-0.343Z" style="fill:rgb(255,250,234);fill-rule:nonzero;stroke:rgb(255,250,234);stroke-width:0.03px;"/>
                </g>
                <g transform="matrix(50,0,0,50,211.806677,1024.492085)">
                    <path d="M0.38,0.02C0.323,0.02 0.27,0.002 0.218,-0.034C0.168,-0.069 0.127,-0.117 0.096,-0.177C0.065,-0.237 0.05,-0.301 0.05,-0.37C0.05,-0.445 0.065,-0.512 0.094,-0.571C0.123,-0.63 0.163,-0.677 0.214,-0.71C0.265,-0.743 0.321,-0.76 0.383,-0.76C0.418,-0.76 0.458,-0.751 0.503,-0.732C0.547,-0.713 0.579,-0.692 0.597,-0.668L0.612,-0.743L0.629,-0.743L0.629,-0.52L0.608,-0.52C0.608,-0.555 0.598,-0.589 0.577,-0.623C0.555,-0.657 0.527,-0.685 0.49,-0.707C0.453,-0.729 0.413,-0.74 0.369,-0.74C0.324,-0.74 0.283,-0.724 0.248,-0.692C0.213,-0.66 0.185,-0.616 0.165,-0.56C0.145,-0.505 0.135,-0.443 0.135,-0.374C0.135,-0.308 0.145,-0.247 0.165,-0.19C0.184,-0.133 0.214,-0.087 0.255,-0.052C0.295,-0.017 0.344,-0 0.402,-0C0.445,-0 0.484,-0.012 0.519,-0.037C0.554,-0.062 0.581,-0.094 0.598,-0.133C0.6,-0.138 0.604,-0.151 0.61,-0.174C0.615,-0.194 0.62,-0.211 0.625,-0.225C0.63,-0.238 0.636,-0.25 0.645,-0.261L0.659,-0.261C0.648,-0.252 0.641,-0.234 0.637,-0.209C0.632,-0.184 0.63,-0.149 0.63,-0.104C0.63,-0.088 0.617,-0.07 0.592,-0.051C0.566,-0.031 0.533,-0.014 0.494,-0.001C0.456,0.013 0.417,0.02 0.38,0.02Z" style="fill:rgb(255,250,234);fill-rule:nonzero;stroke:rgb(255,250,234);stroke-width:0.03px;"/>
                </g>
                <g transform="matrix(50,0,0,50,250.756677,1024.492085)">
                    <path d="M0.533,-0.711C0.531,-0.698 0.53,-0.682 0.53,-0.662C0.53,-0.623 0.535,-0.592 0.544,-0.57L0.528,-0.57C0.521,-0.584 0.515,-0.602 0.512,-0.625C0.507,-0.649 0.501,-0.668 0.493,-0.681C0.485,-0.695 0.469,-0.707 0.444,-0.716C0.419,-0.725 0.382,-0.73 0.333,-0.73C0.324,-0.73 0.315,-0.729 0.304,-0.728L0.304,-0.06C0.304,-0.047 0.307,-0.036 0.315,-0.03C0.322,-0.023 0.331,-0.019 0.344,-0.019C0.355,-0.019 0.366,-0.021 0.379,-0.025L0.379,-0L0.154,-0L0.154,-0.025C0.167,-0.021 0.179,-0.019 0.189,-0.019C0.202,-0.019 0.212,-0.023 0.218,-0.03C0.226,-0.036 0.229,-0.047 0.229,-0.06L0.229,-0.728C0.218,-0.729 0.209,-0.73 0.201,-0.73C0.152,-0.73 0.115,-0.725 0.09,-0.716C0.065,-0.707 0.049,-0.695 0.041,-0.681C0.033,-0.668 0.027,-0.649 0.022,-0.625C0.019,-0.602 0.013,-0.584 0.006,-0.57L-0.01,-0.57C-0.001,-0.592 0.004,-0.623 0.004,-0.662C0.004,-0.682 0.003,-0.698 0.001,-0.711L-0.002,-0.74L0.536,-0.74L0.533,-0.711Z" style="fill:rgb(255,250,234);fill-rule:nonzero;stroke:rgb(255,250,234);stroke-width:0.03px;"/>
                </g>
                <g transform="matrix(50,0,0,50,282.456677,1024.492085)">
                    <path d="M0.278,0.02C0.229,0.02 0.191,0.012 0.162,-0.005C0.133,-0.021 0.107,-0.045 0.086,-0.078L0.072,-0.019L0.052,-0.019L0.052,-0.291L0.079,-0.291C0.079,-0.2 0.095,-0.129 0.127,-0.076C0.158,-0.023 0.205,0.003 0.268,0.003C0.297,0.003 0.323,-0.005 0.345,-0.022C0.367,-0.038 0.384,-0.059 0.395,-0.086C0.406,-0.113 0.412,-0.141 0.412,-0.171C0.412,-0.208 0.404,-0.238 0.388,-0.263C0.371,-0.287 0.351,-0.306 0.327,-0.32C0.303,-0.334 0.271,-0.349 0.232,-0.366C0.191,-0.383 0.159,-0.399 0.135,-0.414C0.111,-0.428 0.091,-0.447 0.074,-0.472C0.058,-0.496 0.05,-0.527 0.05,-0.564C0.05,-0.601 0.059,-0.635 0.076,-0.665C0.094,-0.695 0.118,-0.718 0.148,-0.735C0.179,-0.752 0.213,-0.76 0.251,-0.76C0.274,-0.76 0.298,-0.756 0.321,-0.748C0.343,-0.74 0.363,-0.73 0.379,-0.718C0.395,-0.705 0.405,-0.693 0.408,-0.681L0.419,-0.758L0.438,-0.758L0.438,-0.559L0.415,-0.559C0.415,-0.589 0.41,-0.618 0.399,-0.645C0.388,-0.672 0.372,-0.695 0.35,-0.712C0.327,-0.729 0.3,-0.738 0.267,-0.738C0.225,-0.738 0.191,-0.724 0.165,-0.696C0.138,-0.668 0.125,-0.629 0.125,-0.579C0.125,-0.55 0.132,-0.526 0.147,-0.507C0.162,-0.487 0.18,-0.471 0.202,-0.458C0.223,-0.445 0.252,-0.431 0.289,-0.414C0.332,-0.395 0.366,-0.377 0.393,-0.36C0.419,-0.344 0.441,-0.322 0.46,-0.294C0.478,-0.267 0.487,-0.232 0.487,-0.191C0.487,-0.158 0.477,-0.125 0.458,-0.091C0.439,-0.058 0.413,-0.032 0.381,-0.011C0.349,0.01 0.315,0.02 0.278,0.02Z" style="fill:rgb(255,250,234);fill-rule:nonzero;stroke:rgb(255,250,234);stroke-width:0.03px;"/>
                </g>
                <g transform="matrix(44,0,0,44,10.447677,1078.658752)">
                    <path d="M0.618,-0.018C0.595,0.003 0.562,0.014 0.52,0.014C0.493,0.014 0.474,0.006 0.461,-0.009C0.448,-0.024 0.439,-0.042 0.434,-0.065C0.43,-0.087 0.427,-0.118 0.424,-0.157C0.421,-0.207 0.415,-0.247 0.409,-0.278C0.402,-0.309 0.386,-0.335 0.362,-0.356C0.339,-0.378 0.303,-0.389 0.254,-0.389L0.222,-0.389L0.222,-0.403C0.285,-0.403 0.333,-0.409 0.367,-0.419C0.402,-0.431 0.426,-0.448 0.441,-0.472C0.455,-0.496 0.462,-0.529 0.462,-0.572C0.462,-0.616 0.446,-0.653 0.413,-0.684C0.38,-0.715 0.326,-0.73 0.253,-0.73C0.233,-0.73 0.212,-0.727 0.191,-0.722L0.19,-0.06C0.19,-0.033 0.203,-0.019 0.229,-0.019C0.239,-0.019 0.25,-0.021 0.263,-0.025L0.263,-0L0.04,-0L0.04,-0.025C0.053,-0.021 0.064,-0.019 0.075,-0.019C0.088,-0.019 0.097,-0.023 0.104,-0.03C0.112,-0.036 0.115,-0.047 0.115,-0.06L0.115,-0.68C0.115,-0.693 0.112,-0.704 0.104,-0.711C0.097,-0.717 0.088,-0.721 0.075,-0.721C0.064,-0.721 0.053,-0.719 0.04,-0.715L0.04,-0.74L0.297,-0.74C0.368,-0.74 0.428,-0.726 0.475,-0.697C0.522,-0.668 0.546,-0.624 0.546,-0.564C0.546,-0.536 0.539,-0.51 0.526,-0.485C0.513,-0.46 0.492,-0.44 0.465,-0.423C0.437,-0.407 0.403,-0.398 0.362,-0.395C0.401,-0.395 0.43,-0.385 0.449,-0.363C0.468,-0.343 0.481,-0.317 0.488,-0.288C0.495,-0.258 0.5,-0.219 0.503,-0.172C0.506,-0.125 0.511,-0.089 0.517,-0.065C0.524,-0.04 0.537,-0.024 0.556,-0.017C0.561,-0.015 0.567,-0.014 0.573,-0.014C0.587,-0.014 0.602,-0.02 0.618,-0.033L0.618,-0.018Z" style="fill:rgb(255,250,234);fill-rule:nonzero;"/>
                </g>
                <g transform="matrix(44,0,0,44,42.919677,1078.658752)">
                    <path d="M0.57,-0.226C0.561,-0.217 0.554,-0.204 0.551,-0.185C0.549,-0.166 0.547,-0.139 0.547,-0.102L0.547,-0L0.04,-0L0.04,-0.025C0.053,-0.021 0.064,-0.019 0.075,-0.019C0.088,-0.019 0.097,-0.023 0.104,-0.03C0.112,-0.036 0.115,-0.047 0.115,-0.06L0.115,-0.68C0.115,-0.693 0.112,-0.704 0.104,-0.711C0.097,-0.717 0.088,-0.721 0.075,-0.721C0.064,-0.721 0.053,-0.719 0.04,-0.715L0.04,-0.74L0.505,-0.74L0.502,-0.711C0.5,-0.698 0.499,-0.682 0.499,-0.662C0.499,-0.623 0.504,-0.592 0.513,-0.57L0.497,-0.57C0.49,-0.584 0.484,-0.602 0.481,-0.625C0.476,-0.649 0.47,-0.668 0.462,-0.681C0.454,-0.695 0.438,-0.707 0.413,-0.716C0.388,-0.725 0.351,-0.73 0.302,-0.73C0.267,-0.73 0.241,-0.724 0.225,-0.712C0.209,-0.7 0.2,-0.687 0.197,-0.673C0.194,-0.66 0.191,-0.64 0.19,-0.615L0.19,-0.425L0.328,-0.425C0.347,-0.425 0.361,-0.425 0.368,-0.426C0.376,-0.427 0.382,-0.43 0.386,-0.435C0.39,-0.44 0.392,-0.448 0.392,-0.459C0.392,-0.479 0.391,-0.494 0.389,-0.504C0.386,-0.514 0.379,-0.519 0.368,-0.519L0.368,-0.532L0.407,-0.532L0.407,-0.3L0.368,-0.3L0.368,-0.314C0.379,-0.314 0.386,-0.32 0.389,-0.331C0.391,-0.342 0.392,-0.357 0.392,-0.378C0.392,-0.389 0.388,-0.396 0.379,-0.4C0.369,-0.403 0.353,-0.405 0.328,-0.406L0.19,-0.406L0.19,-0.125C0.191,-0.102 0.194,-0.084 0.198,-0.069C0.202,-0.053 0.213,-0.04 0.23,-0.028C0.247,-0.016 0.273,-0.01 0.308,-0.01C0.365,-0.01 0.409,-0.016 0.439,-0.029C0.469,-0.041 0.489,-0.056 0.5,-0.074C0.511,-0.093 0.52,-0.118 0.528,-0.149C0.536,-0.183 0.545,-0.209 0.556,-0.226L0.57,-0.226Z" style="fill:rgb(255,250,234);fill-rule:nonzero;"/>
                </g>
                <g transform="matrix(44,0,0,44,73.279677,1078.658752)">
                    <path d="M0.38,0.02C0.323,0.02 0.27,0.002 0.218,-0.034C0.168,-0.069 0.127,-0.117 0.096,-0.177C0.065,-0.237 0.05,-0.301 0.05,-0.37C0.05,-0.445 0.065,-0.512 0.094,-0.571C0.123,-0.63 0.163,-0.677 0.214,-0.71C0.265,-0.743 0.321,-0.76 0.383,-0.76C0.418,-0.76 0.458,-0.751 0.503,-0.732C0.547,-0.713 0.579,-0.692 0.597,-0.668L0.612,-0.743L0.629,-0.743L0.629,-0.52L0.608,-0.52C0.608,-0.555 0.598,-0.589 0.577,-0.623C0.555,-0.657 0.527,-0.685 0.49,-0.707C0.453,-0.729 0.413,-0.74 0.369,-0.74C0.324,-0.74 0.283,-0.724 0.248,-0.692C0.213,-0.66 0.185,-0.616 0.165,-0.56C0.145,-0.505 0.135,-0.443 0.135,-0.374C0.135,-0.308 0.145,-0.247 0.165,-0.19C0.184,-0.133 0.214,-0.087 0.255,-0.052C0.295,-0.017 0.344,-0 0.402,-0C0.445,-0 0.484,-0.012 0.519,-0.037C0.554,-0.062 0.581,-0.094 0.598,-0.133C0.6,-0.138 0.604,-0.151 0.61,-0.174C0.615,-0.194 0.62,-0.211 0.625,-0.225C0.63,-0.238 0.636,-0.25 0.645,-0.261L0.659,-0.261C0.648,-0.252 0.641,-0.234 0.637,-0.209C0.632,-0.184 0.63,-0.149 0.63,-0.104C0.63,-0.088 0.617,-0.07 0.592,-0.051C0.566,-0.031 0.533,-0.014 0.494,-0.001C0.456,0.013 0.417,0.02 0.38,0.02Z" style="fill:rgb(255,250,234);fill-rule:nonzero;"/>
                </g>
                <g transform="matrix(44,0,0,44,107.555677,1078.658752)">
                    <path d="M0.377,0.02C0.31,0.02 0.251,0.002 0.202,-0.034C0.153,-0.069 0.115,-0.117 0.089,-0.177C0.064,-0.237 0.051,-0.303 0.05,-0.375C0.049,-0.432 0.06,-0.49 0.081,-0.548C0.102,-0.608 0.137,-0.658 0.184,-0.699C0.231,-0.74 0.292,-0.76 0.367,-0.76C0.442,-0.76 0.504,-0.74 0.552,-0.702C0.601,-0.662 0.636,-0.614 0.657,-0.555C0.679,-0.496 0.69,-0.436 0.69,-0.375C0.69,-0.302 0.678,-0.236 0.655,-0.176C0.632,-0.117 0.596,-0.069 0.549,-0.034C0.503,0.002 0.445,0.02 0.377,0.02ZM0.377,-0C0.458,-0 0.516,-0.035 0.552,-0.104C0.589,-0.174 0.607,-0.264 0.606,-0.375C0.605,-0.432 0.596,-0.489 0.58,-0.545C0.562,-0.601 0.536,-0.647 0.501,-0.684C0.465,-0.721 0.42,-0.74 0.367,-0.74C0.313,-0.74 0.269,-0.72 0.234,-0.679C0.199,-0.639 0.174,-0.59 0.159,-0.532C0.143,-0.474 0.135,-0.418 0.135,-0.364C0.135,-0.296 0.144,-0.235 0.162,-0.18C0.179,-0.125 0.206,-0.082 0.242,-0.049C0.279,-0.016 0.324,-0 0.377,-0Z" style="fill:rgb(255,250,234);fill-rule:nonzero;"/>
                </g>
                <g transform="matrix(44,0,0,44,144.515677,1078.658752)">
                    <path d="M0.618,-0.018C0.595,0.003 0.562,0.014 0.52,0.014C0.493,0.014 0.474,0.006 0.461,-0.009C0.448,-0.024 0.439,-0.042 0.434,-0.065C0.43,-0.087 0.427,-0.118 0.424,-0.157C0.421,-0.207 0.415,-0.247 0.409,-0.278C0.402,-0.309 0.386,-0.335 0.362,-0.356C0.339,-0.378 0.303,-0.389 0.254,-0.389L0.222,-0.389L0.222,-0.403C0.285,-0.403 0.333,-0.409 0.367,-0.419C0.402,-0.431 0.426,-0.448 0.441,-0.472C0.455,-0.496 0.462,-0.529 0.462,-0.572C0.462,-0.616 0.446,-0.653 0.413,-0.684C0.38,-0.715 0.326,-0.73 0.253,-0.73C0.233,-0.73 0.212,-0.727 0.191,-0.722L0.19,-0.06C0.19,-0.033 0.203,-0.019 0.229,-0.019C0.239,-0.019 0.25,-0.021 0.263,-0.025L0.263,-0L0.04,-0L0.04,-0.025C0.053,-0.021 0.064,-0.019 0.075,-0.019C0.088,-0.019 0.097,-0.023 0.104,-0.03C0.112,-0.036 0.115,-0.047 0.115,-0.06L0.115,-0.68C0.115,-0.693 0.112,-0.704 0.104,-0.711C0.097,-0.717 0.088,-0.721 0.075,-0.721C0.064,-0.721 0.053,-0.719 0.04,-0.715L0.04,-0.74L0.297,-0.74C0.368,-0.74 0.428,-0.726 0.475,-0.697C0.522,-0.668 0.546,-0.624 0.546,-0.564C0.546,-0.536 0.539,-0.51 0.526,-0.485C0.513,-0.46 0.492,-0.44 0.465,-0.423C0.437,-0.407 0.403,-0.398 0.362,-0.395C0.401,-0.395 0.43,-0.385 0.449,-0.363C0.468,-0.343 0.481,-0.317 0.488,-0.288C0.495,-0.258 0.5,-0.219 0.503,-0.172C0.506,-0.125 0.511,-0.089 0.517,-0.065C0.524,-0.04 0.537,-0.024 0.556,-0.017C0.561,-0.015 0.567,-0.014 0.573,-0.014C0.587,-0.014 0.602,-0.02 0.618,-0.033L0.618,-0.018Z" style="fill:rgb(255,250,234);fill-rule:nonzero;"/>
                </g>
                <g transform="matrix(44,0,0,44,176.987677,1078.658752)">
                    <path d="M0.04,-0.025C0.053,-0.021 0.064,-0.019 0.075,-0.019C0.088,-0.019 0.097,-0.023 0.104,-0.03C0.112,-0.036 0.115,-0.047 0.115,-0.06L0.115,-0.68C0.115,-0.693 0.112,-0.704 0.104,-0.711C0.097,-0.717 0.088,-0.721 0.075,-0.721C0.064,-0.721 0.053,-0.719 0.04,-0.715L0.04,-0.74L0.349,-0.74C0.406,-0.74 0.459,-0.725 0.508,-0.696C0.556,-0.667 0.594,-0.625 0.622,-0.572C0.65,-0.519 0.664,-0.458 0.664,-0.39C0.664,-0.321 0.65,-0.257 0.622,-0.197C0.593,-0.137 0.555,-0.089 0.507,-0.053C0.458,-0.018 0.406,-0 0.349,-0L0.04,-0L0.04,-0.025ZM0.327,-0.017C0.365,-0.017 0.404,-0.03 0.444,-0.055C0.483,-0.08 0.517,-0.12 0.544,-0.174C0.571,-0.227 0.585,-0.294 0.585,-0.374C0.585,-0.436 0.573,-0.494 0.549,-0.547C0.526,-0.601 0.494,-0.644 0.455,-0.676C0.415,-0.708 0.372,-0.724 0.327,-0.724L0.237,-0.724C0.225,-0.724 0.214,-0.721 0.205,-0.714C0.195,-0.707 0.19,-0.695 0.19,-0.68L0.19,-0.06C0.19,-0.045 0.195,-0.034 0.205,-0.027C0.214,-0.02 0.225,-0.017 0.237,-0.017L0.327,-0.017Z" style="fill:rgb(255,250,234);fill-rule:nonzero;"/>
                </g>
                <g transform="matrix(44,0,0,44,212.363677,1078.658752)">
                    <path d="M0.04,-0.025C0.053,-0.021 0.064,-0.019 0.075,-0.019C0.088,-0.019 0.097,-0.023 0.104,-0.03C0.112,-0.036 0.115,-0.047 0.115,-0.06L0.115,-0.68C0.115,-0.693 0.112,-0.704 0.104,-0.711C0.097,-0.717 0.088,-0.721 0.075,-0.721C0.064,-0.721 0.053,-0.719 0.04,-0.715L0.04,-0.74L0.265,-0.74L0.265,-0.715C0.252,-0.719 0.241,-0.721 0.23,-0.721C0.217,-0.721 0.208,-0.717 0.201,-0.711C0.194,-0.704 0.19,-0.693 0.19,-0.68L0.19,-0.06C0.19,-0.047 0.194,-0.036 0.201,-0.03C0.208,-0.023 0.217,-0.019 0.23,-0.019C0.241,-0.019 0.252,-0.021 0.265,-0.025L0.265,-0L0.04,-0L0.04,-0.025Z" style="fill:rgb(255,250,234);fill-rule:nonzero;"/>
                </g>
                <g transform="matrix(44,0,0,44,230.183677,1078.658752)">
                    <path d="M0.682,-0.741L0.682,-0.716C0.669,-0.72 0.656,-0.722 0.644,-0.722C0.627,-0.722 0.614,-0.718 0.604,-0.711C0.593,-0.704 0.588,-0.694 0.588,-0.681L0.588,0.02L0.565,0.02L0.123,-0.667L0.124,-0.06C0.124,-0.047 0.13,-0.037 0.143,-0.03C0.155,-0.023 0.17,-0.019 0.188,-0.019C0.202,-0.019 0.215,-0.021 0.228,-0.025L0.228,-0L0.01,-0L0.01,-0.025C0.023,-0.021 0.035,-0.019 0.048,-0.019C0.064,-0.019 0.077,-0.023 0.087,-0.03C0.096,-0.037 0.101,-0.047 0.101,-0.06L0.101,-0.68C0.101,-0.693 0.096,-0.703 0.086,-0.71C0.076,-0.717 0.063,-0.721 0.047,-0.721C0.036,-0.721 0.023,-0.719 0.01,-0.715L0.01,-0.74L0.167,-0.74L0.565,-0.137L0.565,-0.681C0.565,-0.694 0.559,-0.704 0.548,-0.711C0.537,-0.718 0.522,-0.722 0.505,-0.722C0.492,-0.722 0.479,-0.72 0.466,-0.716L0.466,-0.741L0.682,-0.741Z" style="fill:rgb(255,250,234);fill-rule:nonzero;"/>
                </g>
                <g transform="matrix(44,0,0,44,264.591677,1078.658752)">
                    <path d="M0.385,0.02C0.323,0.02 0.267,0.002 0.215,-0.034C0.165,-0.069 0.124,-0.117 0.095,-0.176C0.065,-0.236 0.05,-0.301 0.05,-0.37C0.05,-0.44 0.064,-0.505 0.091,-0.565C0.119,-0.624 0.158,-0.672 0.208,-0.707C0.257,-0.742 0.313,-0.76 0.376,-0.76C0.421,-0.76 0.464,-0.748 0.506,-0.724C0.547,-0.7 0.579,-0.674 0.6,-0.645L0.615,-0.743L0.632,-0.743L0.632,-0.52L0.6,-0.52C0.6,-0.557 0.591,-0.592 0.574,-0.626C0.557,-0.659 0.531,-0.687 0.495,-0.708C0.46,-0.729 0.417,-0.74 0.366,-0.74C0.32,-0.74 0.279,-0.723 0.244,-0.689C0.209,-0.655 0.182,-0.61 0.163,-0.554C0.144,-0.498 0.135,-0.438 0.135,-0.374C0.135,-0.307 0.144,-0.245 0.161,-0.189C0.178,-0.132 0.206,-0.087 0.244,-0.052C0.283,-0.017 0.331,-0 0.39,-0C0.433,-0 0.469,-0.012 0.5,-0.035C0.531,-0.058 0.554,-0.088 0.57,-0.123C0.585,-0.159 0.593,-0.195 0.593,-0.232C0.593,-0.262 0.591,-0.285 0.587,-0.301C0.582,-0.317 0.574,-0.325 0.562,-0.325L0.489,-0.326C0.448,-0.326 0.424,-0.324 0.417,-0.32C0.41,-0.316 0.406,-0.308 0.407,-0.296C0.407,-0.284 0.407,-0.276 0.407,-0.271C0.407,-0.256 0.408,-0.245 0.411,-0.238C0.414,-0.23 0.42,-0.226 0.429,-0.225L0.429,-0.212L0.39,-0.212L0.39,-0.345L0.659,-0.345L0.659,-0.098C0.647,-0.098 0.632,-0.093 0.615,-0.084C0.604,-0.077 0.592,-0.07 0.579,-0.061C0.544,-0.037 0.511,-0.018 0.48,-0.003C0.449,0.012 0.418,0.02 0.385,0.02Z" style="fill:rgb(255,250,234);fill-rule:nonzero;"/>
                </g>
                <g transform="matrix(44,0,0,44,300.187677,1078.658752)">
                    <path d="M0.278,0.02C0.229,0.02 0.191,0.012 0.162,-0.005C0.133,-0.021 0.107,-0.045 0.086,-0.078L0.072,-0.019L0.052,-0.019L0.052,-0.291L0.079,-0.291C0.079,-0.2 0.095,-0.129 0.127,-0.076C0.158,-0.023 0.205,0.003 0.268,0.003C0.297,0.003 0.323,-0.005 0.345,-0.022C0.367,-0.038 0.384,-0.059 0.395,-0.086C0.406,-0.113 0.412,-0.141 0.412,-0.171C0.412,-0.208 0.404,-0.238 0.388,-0.263C0.371,-0.287 0.351,-0.306 0.327,-0.32C0.303,-0.334 0.271,-0.349 0.232,-0.366C0.191,-0.383 0.159,-0.399 0.135,-0.414C0.111,-0.428 0.091,-0.447 0.074,-0.472C0.058,-0.496 0.05,-0.527 0.05,-0.564C0.05,-0.601 0.059,-0.635 0.076,-0.665C0.094,-0.695 0.118,-0.718 0.148,-0.735C0.179,-0.752 0.213,-0.76 0.251,-0.76C0.274,-0.76 0.298,-0.756 0.321,-0.748C0.343,-0.74 0.363,-0.73 0.379,-0.718C0.395,-0.705 0.405,-0.693 0.408,-0.681L0.419,-0.758L0.438,-0.758L0.438,-0.559L0.415,-0.559C0.415,-0.589 0.41,-0.618 0.399,-0.645C0.388,-0.672 0.372,-0.695 0.35,-0.712C0.327,-0.729 0.3,-0.738 0.267,-0.738C0.225,-0.738 0.191,-0.724 0.165,-0.696C0.138,-0.668 0.125,-0.629 0.125,-0.579C0.125,-0.55 0.132,-0.526 0.147,-0.507C0.162,-0.487 0.18,-0.471 0.202,-0.458C0.223,-0.445 0.252,-0.431 0.289,-0.414C0.332,-0.395 0.366,-0.377 0.393,-0.36C0.419,-0.344 0.441,-0.322 0.46,-0.294C0.478,-0.267 0.487,-0.232 0.487,-0.191C0.487,-0.158 0.477,-0.125 0.458,-0.091C0.439,-0.058 0.413,-0.032 0.381,-0.011C0.349,0.01 0.315,0.02 0.278,0.02Z" style="fill:rgb(255,250,234);fill-rule:nonzero;"/>
                </g>
            </g>
        </g>
    </g>
</svg>
