<?xml version="1.0" encoding="UTF-8" standalone="no"?>
<!DOCTYPE svg PUBLIC "-//W3C//DTD SVG 1.1//EN" "http://www.w3.org/Graphics/SVG/1.1/DTD/svg11.dtd">
<svg width="100%" height="100%" viewBox="0 0 350 120" version="1.1" xmlns="http://www.w3.org/2000/svg" xmlns:xlink="http://www.w3.org/1999/xlink" xml:space="preserve" xmlns:serif="http://www.serif.com/" style="fill-rule:evenodd;clip-rule:evenodd;stroke-linecap:round;stroke-linejoin:round;stroke-miterlimit:2;">
    <g transform="matrix(1,0,0,1,-497.088,-530.779)">
        <path d="M542.363,580.029C542.596,580.895 543.196,581.329 544.163,581.329C544.796,581.329 545.629,581.145 546.663,580.779L546.663,582.029L534.613,582.029L534.613,580.779C535.579,581.112 536.413,581.279 537.113,581.279C537.913,581.279 538.313,580.995 538.313,580.429C538.313,580.262 538.296,580.129 538.263,580.029L533.763,565.779L523.163,565.779C521.963,569.779 520.813,573.779 519.713,577.779L519.363,579.029C519.296,579.229 519.263,579.479 519.263,579.779C519.263,580.745 519.863,581.229 521.063,581.229C521.729,581.229 522.496,581.079 523.363,580.779L523.363,582.029L512.913,582.029L512.913,580.779C513.713,581.079 514.479,581.229 515.213,581.229C516.213,581.229 516.929,580.829 517.363,580.029C517.596,579.562 517.796,579.079 517.963,578.579L528.563,544.029L531.463,544.029L542.363,580.029ZM523.413,564.879L533.463,564.879L528.263,548.479L523.413,564.879Z" style="fill:rgb(255,250,234);fill-rule:nonzero;stroke:rgb(255,250,234);stroke-width:1.67px;"/>
        <path d="M585.563,581.129C584.396,582.195 582.763,582.729 580.663,582.729C579.329,582.729 578.338,582.354 577.688,581.604C577.038,580.854 576.604,579.92 576.388,578.804C576.171,577.687 575.996,576.145 575.863,574.179C575.696,571.679 575.438,569.662 575.088,568.129C574.738,566.595 573.971,565.287 572.788,564.204C571.604,563.12 569.796,562.579 567.363,562.579L565.763,562.579L565.763,561.879C568.896,561.879 571.321,561.604 573.038,561.054C574.754,560.504 575.971,559.629 576.688,558.429C577.404,557.229 577.763,555.562 577.763,553.429C577.763,551.229 576.938,549.362 575.288,547.829C573.638,546.295 570.979,545.529 567.313,545.529C566.313,545.529 565.279,545.662 564.213,545.929L564.163,579.029C564.163,580.395 564.813,581.079 566.113,581.079C566.613,581.079 567.179,580.979 567.813,580.779L567.813,582.029L556.663,582.029L556.663,580.779C557.296,580.979 557.879,581.079 558.413,581.079C559.046,581.079 559.538,580.904 559.888,580.554C560.238,580.204 560.413,579.695 560.413,579.029L560.413,548.029C560.413,547.362 560.238,546.854 559.888,546.504C559.538,546.154 559.046,545.979 558.413,545.979C557.879,545.979 557.296,546.079 556.663,546.279L556.663,545.029L569.513,545.029C573.079,545.029 576.046,545.745 578.413,547.179C580.779,548.612 581.963,550.829 581.963,553.829C581.963,555.229 581.629,556.545 580.963,557.779C580.296,559.012 579.271,560.037 577.888,560.854C576.504,561.67 574.796,562.145 572.763,562.279C574.696,562.279 576.146,562.804 577.113,563.854C578.079,564.904 578.729,566.17 579.063,567.654C579.396,569.137 579.646,571.062 579.813,573.429C579.979,575.795 580.221,577.587 580.538,578.804C580.854,580.02 581.496,580.812 582.463,581.179C582.729,581.279 583.013,581.329 583.313,581.329C584.013,581.329 584.763,581.012 585.563,580.379L585.563,581.129Z" style="fill:rgb(255,250,234);fill-rule:nonzero;stroke:rgb(255,250,234);stroke-width:1.67px;"/>
        <path d="M620.713,546.479C620.613,547.112 620.563,547.929 620.563,548.929C620.563,550.895 620.796,552.429 621.263,553.529L620.463,553.529C620.096,552.829 619.829,551.912 619.663,550.779C619.429,549.579 619.113,548.637 618.713,547.954C618.313,547.27 617.496,546.695 616.263,546.229C615.029,545.762 613.179,545.529 610.713,545.529C610.279,545.529 609.796,545.562 609.263,545.629L609.263,579.029C609.263,579.695 609.438,580.204 609.788,580.554C610.138,580.904 610.629,581.079 611.263,581.079C611.796,581.079 612.379,580.979 613.013,580.779L613.013,582.029L601.763,582.029L601.763,580.779C602.429,580.979 603.013,581.079 603.513,581.079C604.146,581.079 604.638,580.904 604.988,580.554C605.338,580.204 605.513,579.695 605.513,579.029L605.513,545.629C604.979,545.562 604.513,545.529 604.113,545.529C601.646,545.529 599.796,545.762 598.563,546.229C597.329,546.695 596.513,547.27 596.113,547.954C595.713,548.637 595.396,549.579 595.163,550.779C594.996,551.912 594.729,552.829 594.363,553.529L593.563,553.529C594.029,552.429 594.263,550.895 594.263,548.929C594.263,547.929 594.213,547.112 594.113,546.479L593.963,545.029L620.863,545.029L620.713,546.479Z" style="fill:rgb(255,250,234);fill-rule:nonzero;stroke:rgb(255,250,234);stroke-width:1.67px;"/>
        <path d="M631.763,580.779C632.396,580.979 632.979,581.079 633.513,581.079C634.146,581.079 634.638,580.904 634.988,580.554C635.338,580.204 635.513,579.695 635.513,579.029L635.513,548.029C635.513,547.362 635.338,546.854 634.988,546.504C634.638,546.154 634.146,545.979 633.513,545.979C632.979,545.979 632.396,546.079 631.763,546.279L631.763,545.029L643.013,545.029L643.013,546.279C642.379,546.079 641.796,545.979 641.263,545.979C640.629,545.979 640.138,546.154 639.788,546.504C639.438,546.854 639.263,547.362 639.263,548.029L639.263,579.029C639.263,579.695 639.438,580.204 639.788,580.554C640.138,580.904 640.629,581.079 641.263,581.079C641.796,581.079 642.379,580.979 643.013,580.779L643.013,582.029L631.763,582.029L631.763,580.779Z" style="fill:rgb(255,250,234);fill-rule:nonzero;stroke:rgb(255,250,234);stroke-width:1.67px;"/>
        <path d="M678.463,546.479C678.363,547.112 678.313,547.929 678.313,548.929C678.313,550.895 678.546,552.429 679.013,553.529L678.213,553.529C677.846,552.829 677.579,551.912 677.413,550.779C677.179,549.579 676.863,548.637 676.463,547.954C676.063,547.27 675.246,546.695 674.013,546.229C672.779,545.762 670.929,545.529 668.463,545.529C666.063,545.529 664.463,546.129 663.663,547.329C663.563,547.562 663.513,547.795 663.513,548.029L663.513,560.779L669.163,560.779C670.129,560.779 670.804,560.754 671.188,560.704C671.571,560.654 671.863,560.512 672.063,560.279C672.263,560.045 672.363,559.645 672.363,559.079C672.363,558.079 672.304,557.329 672.188,556.829C672.071,556.329 671.729,556.079 671.163,556.079L671.163,555.429L673.113,555.429L673.113,567.029L671.163,567.029L671.163,566.329C671.729,566.329 672.071,566.054 672.188,565.504C672.304,564.954 672.363,564.162 672.363,563.129C672.363,562.595 672.129,562.229 671.663,562.029C671.196,561.829 670.363,561.729 669.163,561.729L663.513,561.729L663.513,579.029C663.513,579.695 663.688,580.204 664.038,580.554C664.388,580.904 664.879,581.079 665.513,581.079C666.046,581.079 666.629,580.979 667.263,580.779L667.263,582.029L656.013,582.029L656.013,580.779C656.646,580.979 657.229,581.079 657.763,581.079C658.396,581.079 658.888,580.904 659.238,580.554C659.588,580.204 659.763,579.695 659.763,579.029L659.763,548.029C659.763,547.362 659.588,546.854 659.238,546.504C658.888,546.154 658.396,545.979 657.763,545.979C657.229,545.979 656.646,546.079 656.013,546.279L656.013,545.029L678.613,545.029L678.463,546.479Z" style="fill:rgb(255,250,234);fill-rule:nonzero;stroke:rgb(255,250,234);stroke-width:1.67px;"/>
        <path d="M713.963,580.029C714.196,580.895 714.796,581.329 715.763,581.329C716.396,581.329 717.229,581.145 718.263,580.779L718.263,582.029L706.213,582.029L706.213,580.779C707.179,581.112 708.013,581.279 708.713,581.279C709.513,581.279 709.913,580.995 709.913,580.429C709.913,580.262 709.896,580.129 709.863,580.029L705.363,565.779L694.763,565.779C693.563,569.779 692.413,573.779 691.313,577.779L690.963,579.029C690.896,579.229 690.863,579.479 690.863,579.779C690.863,580.745 691.463,581.229 692.663,581.229C693.329,581.229 694.096,581.079 694.963,580.779L694.963,582.029L684.513,582.029L684.513,580.779C685.313,581.079 686.079,581.229 686.813,581.229C687.813,581.229 688.529,580.829 688.963,580.029C689.196,579.562 689.396,579.079 689.563,578.579L700.163,544.029L703.063,544.029L713.963,580.029ZM695.013,564.879L705.063,564.879L699.863,548.479L695.013,564.879Z" style="fill:rgb(255,250,234);fill-rule:nonzero;stroke:rgb(255,250,234);stroke-width:1.67px;"/>
        <path d="M743.763,583.029C740.929,583.029 738.238,582.137 735.688,580.354C733.138,578.57 731.096,576.179 729.563,573.179C728.029,570.179 727.263,566.962 727.263,563.529C727.263,559.795 727.996,556.445 729.463,553.479C730.929,550.512 732.929,548.195 735.463,546.529C737.996,544.862 740.813,544.029 743.913,544.029C745.646,544.029 747.638,544.495 749.888,545.429C752.138,546.362 753.713,547.429 754.613,548.629L755.363,544.879L756.213,544.879L756.213,556.029L755.163,556.029C755.163,554.295 754.638,552.579 753.588,550.879C752.538,549.179 751.096,547.779 749.263,546.679C747.429,545.579 745.413,545.029 743.213,545.029C740.946,545.029 738.929,545.829 737.163,547.429C735.396,549.029 734.013,551.22 733.013,554.004C732.013,556.787 731.513,559.895 731.513,563.329C731.513,566.629 732.004,569.704 732.988,572.554C733.971,575.404 735.471,577.695 737.488,579.429C739.504,581.162 741.963,582.029 744.863,582.029C746.996,582.029 748.946,581.412 750.713,580.179C752.479,578.945 753.796,577.345 754.663,575.379C754.763,575.145 754.963,574.462 755.263,573.329C755.496,572.329 755.738,571.487 755.988,570.804C756.238,570.12 756.579,569.512 757.013,568.979L757.713,568.979C757.179,569.445 756.804,570.312 756.588,571.579C756.371,572.845 756.263,574.595 756.263,576.829C756.263,577.629 755.621,578.52 754.338,579.504C753.054,580.487 751.438,581.32 749.488,582.004C747.538,582.687 745.629,583.029 743.763,583.029Z" style="fill:rgb(255,250,234);fill-rule:nonzero;stroke:rgb(255,250,234);stroke-width:1.67px;"/>
        <path d="M794.363,546.479C794.263,547.112 794.213,547.929 794.213,548.929C794.213,550.895 794.446,552.429 794.913,553.529L794.113,553.529C793.746,552.829 793.479,551.912 793.313,550.779C793.079,549.579 792.763,548.637 792.363,547.954C791.963,547.27 791.146,546.695 789.913,546.229C788.679,545.762 786.829,545.529 784.363,545.529C783.929,545.529 783.446,545.562 782.913,545.629L782.913,579.029C782.913,579.695 783.088,580.204 783.438,580.554C783.788,580.904 784.279,581.079 784.913,581.079C785.446,581.079 786.029,580.979 786.663,580.779L786.663,582.029L775.413,582.029L775.413,580.779C776.079,580.979 776.663,581.079 777.163,581.079C777.796,581.079 778.288,580.904 778.638,580.554C778.988,580.204 779.163,579.695 779.163,579.029L779.163,545.629C778.629,545.562 778.163,545.529 777.763,545.529C775.296,545.529 773.446,545.762 772.213,546.229C770.979,546.695 770.163,547.27 769.763,547.954C769.363,548.637 769.046,549.579 768.813,550.779C768.646,551.912 768.379,552.829 768.013,553.529L767.213,553.529C767.679,552.429 767.913,550.895 767.913,548.929C767.913,547.929 767.863,547.112 767.763,546.479L767.613,545.029L794.513,545.029L794.363,546.479Z" style="fill:rgb(255,250,234);fill-rule:nonzero;stroke:rgb(255,250,234);stroke-width:1.67px;"/>
        <path d="M817.313,583.029C814.879,583.029 812.938,582.62 811.488,581.804C810.038,580.987 808.779,579.762 807.713,578.129L807.013,581.079L806.013,581.079L806.013,567.479L807.363,567.479C807.363,572.012 808.154,575.595 809.738,578.229C811.321,580.862 813.679,582.179 816.813,582.179C818.279,582.179 819.563,581.77 820.663,580.954C821.763,580.137 822.596,579.062 823.163,577.729C823.729,576.395 824.013,574.979 824.013,573.479C824.013,571.645 823.604,570.12 822.788,568.904C821.971,567.687 820.963,566.729 819.763,566.029C818.563,565.329 816.979,564.562 815.013,563.729C812.979,562.862 811.363,562.07 810.163,561.354C808.963,560.637 807.954,559.67 807.138,558.454C806.321,557.237 805.913,555.695 805.913,553.829C805.913,551.962 806.354,550.279 807.238,548.779C808.121,547.279 809.321,546.112 810.838,545.279C812.354,544.445 814.063,544.029 815.963,544.029C817.129,544.029 818.288,544.229 819.438,544.629C820.588,545.029 821.563,545.537 822.363,546.154C823.163,546.77 823.646,547.379 823.813,547.979L824.363,544.129L825.313,544.129L825.313,554.079L824.163,554.079C824.163,552.579 823.896,551.145 823.363,549.779C822.829,548.412 822.004,547.295 820.888,546.429C819.771,545.562 818.396,545.129 816.763,545.129C814.663,545.129 812.954,545.829 811.638,547.229C810.321,548.629 809.663,550.579 809.663,553.079C809.663,554.512 810.029,555.72 810.763,556.704C811.496,557.687 812.404,558.495 813.488,559.129C814.571,559.762 816.029,560.495 817.863,561.329C819.996,562.295 821.721,563.187 823.038,564.004C824.354,564.82 825.471,565.92 826.388,567.304C827.304,568.687 827.763,570.412 827.763,572.479C827.763,574.145 827.279,575.804 826.313,577.454C825.346,579.104 824.063,580.445 822.463,581.479C820.863,582.512 819.146,583.029 817.313,583.029Z" style="fill:rgb(255,250,234);fill-rule:nonzero;stroke:rgb(255,250,234);stroke-width:1.67px;"/>
        <g transform="matrix(44,0,0,44,499.564,636.195)">
            <path d="M0.618,-0.018C0.595,0.003 0.562,0.014 0.52,0.014C0.493,0.014 0.473,0.006 0.461,-0.009C0.448,-0.024 0.439,-0.042 0.435,-0.065C0.43,-0.087 0.427,-0.118 0.424,-0.157C0.421,-0.207 0.416,-0.247 0.408,-0.278C0.402,-0.309 0.386,-0.335 0.363,-0.357C0.339,-0.378 0.303,-0.389 0.254,-0.389L0.222,-0.389L0.222,-0.403C0.285,-0.403 0.333,-0.408 0.368,-0.42C0.402,-0.431 0.426,-0.448 0.441,-0.472C0.455,-0.496 0.462,-0.529 0.462,-0.572C0.462,-0.616 0.446,-0.653 0.412,-0.684C0.38,-0.715 0.326,-0.73 0.253,-0.73C0.233,-0.73 0.212,-0.727 0.191,-0.722L0.19,-0.06C0.19,-0.033 0.203,-0.019 0.229,-0.019C0.239,-0.019 0.25,-0.021 0.263,-0.025L0.263,-0L0.04,-0L0.04,-0.025C0.053,-0.021 0.064,-0.019 0.075,-0.019C0.088,-0.019 0.098,-0.023 0.105,-0.029C0.112,-0.037 0.115,-0.047 0.115,-0.06L0.115,-0.68C0.115,-0.693 0.112,-0.704 0.105,-0.711C0.098,-0.718 0.088,-0.721 0.075,-0.721C0.064,-0.721 0.053,-0.719 0.04,-0.715L0.04,-0.74L0.297,-0.74C0.368,-0.74 0.428,-0.726 0.475,-0.697C0.522,-0.668 0.546,-0.624 0.546,-0.564C0.546,-0.536 0.539,-0.51 0.526,-0.485C0.513,-0.46 0.492,-0.44 0.465,-0.424C0.437,-0.407 0.403,-0.398 0.362,-0.395C0.401,-0.395 0.43,-0.385 0.449,-0.364C0.468,-0.343 0.481,-0.317 0.488,-0.288C0.495,-0.258 0.5,-0.219 0.503,-0.172C0.506,-0.125 0.511,-0.089 0.518,-0.065C0.524,-0.04 0.537,-0.024 0.556,-0.017C0.561,-0.015 0.567,-0.014 0.573,-0.014C0.587,-0.014 0.602,-0.02 0.618,-0.033L0.618,-0.018Z" style="fill:rgb(255,250,234);fill-rule:nonzero;"/>
        </g>
        <g transform="matrix(44,0,0,44,535.556,636.195)">
            <path d="M0.57,-0.226C0.561,-0.217 0.555,-0.204 0.552,-0.185C0.549,-0.166 0.547,-0.139 0.547,-0.102L0.547,-0L0.04,-0L0.04,-0.025C0.053,-0.021 0.064,-0.019 0.075,-0.019C0.088,-0.019 0.098,-0.023 0.105,-0.029C0.112,-0.037 0.115,-0.047 0.115,-0.06L0.115,-0.68C0.115,-0.693 0.112,-0.704 0.105,-0.711C0.098,-0.718 0.088,-0.721 0.075,-0.721C0.064,-0.721 0.053,-0.719 0.04,-0.715L0.04,-0.74L0.505,-0.74L0.502,-0.711C0.5,-0.698 0.499,-0.682 0.499,-0.662C0.499,-0.623 0.504,-0.592 0.513,-0.57L0.497,-0.57C0.49,-0.584 0.484,-0.602 0.481,-0.625C0.476,-0.649 0.47,-0.668 0.462,-0.682C0.454,-0.695 0.438,-0.707 0.413,-0.716C0.388,-0.725 0.351,-0.73 0.302,-0.73C0.267,-0.73 0.241,-0.724 0.225,-0.712C0.209,-0.7 0.2,-0.687 0.197,-0.674C0.194,-0.66 0.191,-0.64 0.19,-0.615L0.19,-0.425L0.328,-0.425C0.347,-0.425 0.361,-0.426 0.369,-0.427C0.376,-0.428 0.382,-0.43 0.386,-0.435C0.39,-0.44 0.392,-0.448 0.392,-0.459C0.392,-0.479 0.391,-0.494 0.389,-0.504C0.386,-0.514 0.379,-0.519 0.368,-0.519L0.368,-0.532L0.407,-0.532L0.407,-0.3L0.368,-0.3L0.368,-0.314C0.379,-0.314 0.386,-0.32 0.389,-0.331C0.391,-0.342 0.392,-0.357 0.392,-0.378C0.392,-0.389 0.388,-0.396 0.379,-0.4C0.37,-0.403 0.353,-0.405 0.328,-0.406L0.19,-0.406L0.19,-0.125C0.191,-0.102 0.194,-0.084 0.198,-0.069C0.202,-0.054 0.213,-0.04 0.23,-0.028C0.247,-0.016 0.273,-0.01 0.308,-0.01C0.365,-0.01 0.409,-0.016 0.439,-0.029C0.469,-0.041 0.489,-0.056 0.5,-0.075C0.511,-0.093 0.52,-0.118 0.528,-0.149C0.536,-0.183 0.545,-0.209 0.556,-0.226L0.57,-0.226Z" style="fill:rgb(255,250,234);fill-rule:nonzero;"/>
        </g>
        <g transform="matrix(44,0,0,44,569.436,636.195)">
            <path d="M0.38,0.02C0.323,0.02 0.27,0.002 0.219,-0.034C0.168,-0.069 0.127,-0.117 0.096,-0.177C0.065,-0.237 0.05,-0.301 0.05,-0.37C0.05,-0.445 0.065,-0.512 0.094,-0.571C0.123,-0.63 0.163,-0.677 0.214,-0.71C0.265,-0.743 0.321,-0.76 0.383,-0.76C0.418,-0.76 0.458,-0.751 0.502,-0.732C0.548,-0.713 0.579,-0.692 0.597,-0.668L0.612,-0.743L0.629,-0.743L0.629,-0.52L0.608,-0.52C0.608,-0.555 0.598,-0.589 0.577,-0.623C0.556,-0.657 0.527,-0.685 0.49,-0.707C0.453,-0.729 0.413,-0.74 0.369,-0.74C0.324,-0.74 0.283,-0.724 0.248,-0.692C0.213,-0.66 0.185,-0.616 0.165,-0.561C0.145,-0.505 0.135,-0.443 0.135,-0.374C0.135,-0.308 0.145,-0.247 0.165,-0.19C0.184,-0.133 0.214,-0.087 0.255,-0.052C0.295,-0.017 0.344,-0 0.402,-0C0.445,-0 0.484,-0.012 0.519,-0.037C0.554,-0.062 0.581,-0.094 0.598,-0.133C0.6,-0.138 0.604,-0.151 0.61,-0.174C0.615,-0.194 0.62,-0.211 0.625,-0.225C0.629,-0.238 0.636,-0.25 0.645,-0.261L0.659,-0.261C0.648,-0.252 0.641,-0.234 0.636,-0.209C0.632,-0.184 0.63,-0.149 0.63,-0.104C0.63,-0.088 0.617,-0.07 0.592,-0.051C0.566,-0.031 0.534,-0.014 0.495,-0.001C0.456,0.013 0.417,0.02 0.38,0.02Z" style="fill:rgb(255,250,234);fill-rule:nonzero;"/>
        </g>
        <g transform="matrix(44,0,0,44,607.232,636.195)">
            <path d="M0.377,0.02C0.31,0.02 0.251,0.002 0.202,-0.034C0.153,-0.069 0.115,-0.117 0.09,-0.177C0.064,-0.237 0.051,-0.303 0.05,-0.375C0.049,-0.432 0.06,-0.49 0.081,-0.549C0.102,-0.608 0.137,-0.658 0.184,-0.699C0.231,-0.74 0.292,-0.76 0.367,-0.76C0.442,-0.76 0.504,-0.741 0.553,-0.702C0.601,-0.663 0.636,-0.614 0.658,-0.555C0.679,-0.496 0.69,-0.436 0.69,-0.375C0.69,-0.302 0.678,-0.236 0.655,-0.177C0.632,-0.117 0.597,-0.069 0.55,-0.034C0.502,0.002 0.445,0.02 0.377,0.02ZM0.377,-0C0.458,-0 0.516,-0.035 0.553,-0.105C0.589,-0.174 0.607,-0.264 0.606,-0.375C0.605,-0.432 0.597,-0.489 0.58,-0.545C0.563,-0.601 0.536,-0.648 0.5,-0.685C0.465,-0.722 0.42,-0.74 0.367,-0.74C0.313,-0.74 0.269,-0.72 0.234,-0.68C0.199,-0.639 0.174,-0.59 0.159,-0.532C0.143,-0.474 0.135,-0.418 0.135,-0.364C0.135,-0.296 0.144,-0.235 0.162,-0.18C0.179,-0.125 0.206,-0.082 0.243,-0.049C0.279,-0.016 0.324,-0 0.377,-0Z" style="fill:rgb(255,250,234);fill-rule:nonzero;"/>
        </g>
        <g transform="matrix(44,0,0,44,647.712,636.195)">
            <path d="M0.618,-0.018C0.595,0.003 0.562,0.014 0.52,0.014C0.493,0.014 0.473,0.006 0.461,-0.009C0.448,-0.024 0.439,-0.042 0.435,-0.065C0.43,-0.087 0.427,-0.118 0.424,-0.157C0.421,-0.207 0.416,-0.247 0.408,-0.278C0.402,-0.309 0.386,-0.335 0.363,-0.357C0.339,-0.378 0.303,-0.389 0.254,-0.389L0.222,-0.389L0.222,-0.403C0.285,-0.403 0.333,-0.408 0.368,-0.42C0.402,-0.431 0.426,-0.448 0.441,-0.472C0.455,-0.496 0.462,-0.529 0.462,-0.572C0.462,-0.616 0.446,-0.653 0.412,-0.684C0.38,-0.715 0.326,-0.73 0.253,-0.73C0.233,-0.73 0.212,-0.727 0.191,-0.722L0.19,-0.06C0.19,-0.033 0.203,-0.019 0.229,-0.019C0.239,-0.019 0.25,-0.021 0.263,-0.025L0.263,-0L0.04,-0L0.04,-0.025C0.053,-0.021 0.064,-0.019 0.075,-0.019C0.088,-0.019 0.098,-0.023 0.105,-0.029C0.112,-0.037 0.115,-0.047 0.115,-0.06L0.115,-0.68C0.115,-0.693 0.112,-0.704 0.105,-0.711C0.098,-0.718 0.088,-0.721 0.075,-0.721C0.064,-0.721 0.053,-0.719 0.04,-0.715L0.04,-0.74L0.297,-0.74C0.368,-0.74 0.428,-0.726 0.475,-0.697C0.522,-0.668 0.546,-0.624 0.546,-0.564C0.546,-0.536 0.539,-0.51 0.526,-0.485C0.513,-0.46 0.492,-0.44 0.465,-0.424C0.437,-0.407 0.403,-0.398 0.362,-0.395C0.401,-0.395 0.43,-0.385 0.449,-0.364C0.468,-0.343 0.481,-0.317 0.488,-0.288C0.495,-0.258 0.5,-0.219 0.503,-0.172C0.506,-0.125 0.511,-0.089 0.518,-0.065C0.524,-0.04 0.537,-0.024 0.556,-0.017C0.561,-0.015 0.567,-0.014 0.573,-0.014C0.587,-0.014 0.602,-0.02 0.618,-0.033L0.618,-0.018Z" style="fill:rgb(255,250,234);fill-rule:nonzero;"/>
        </g>
        <g transform="matrix(44,0,0,44,683.704,636.195)">
            <path d="M0.04,-0.025C0.053,-0.021 0.064,-0.019 0.075,-0.019C0.088,-0.019 0.098,-0.023 0.105,-0.029C0.112,-0.037 0.115,-0.047 0.115,-0.06L0.115,-0.68C0.115,-0.693 0.112,-0.704 0.105,-0.711C0.098,-0.718 0.088,-0.721 0.075,-0.721C0.064,-0.721 0.053,-0.719 0.04,-0.715L0.04,-0.74L0.349,-0.74C0.406,-0.74 0.459,-0.725 0.507,-0.696C0.556,-0.667 0.594,-0.625 0.622,-0.572C0.65,-0.519 0.664,-0.458 0.664,-0.39C0.664,-0.321 0.65,-0.257 0.622,-0.197C0.593,-0.137 0.555,-0.089 0.506,-0.054C0.458,-0.018 0.406,-0 0.349,-0L0.04,-0L0.04,-0.025ZM0.327,-0.017C0.365,-0.017 0.404,-0.03 0.444,-0.055C0.483,-0.08 0.517,-0.12 0.544,-0.173C0.571,-0.227 0.585,-0.294 0.585,-0.374C0.585,-0.436 0.573,-0.494 0.55,-0.548C0.526,-0.601 0.494,-0.644 0.455,-0.676C0.415,-0.708 0.372,-0.724 0.327,-0.724L0.237,-0.724C0.225,-0.724 0.214,-0.721 0.204,-0.714C0.195,-0.707 0.19,-0.695 0.19,-0.68L0.19,-0.06C0.19,-0.045 0.195,-0.034 0.204,-0.027C0.214,-0.02 0.225,-0.017 0.237,-0.017L0.327,-0.017Z" style="fill:rgb(255,250,234);fill-rule:nonzero;"/>
        </g>
        <g transform="matrix(44,0,0,44,722.6,636.195)">
            <path d="M0.04,-0.025C0.053,-0.021 0.064,-0.019 0.075,-0.019C0.088,-0.019 0.098,-0.023 0.105,-0.029C0.112,-0.037 0.115,-0.047 0.115,-0.06L0.115,-0.68C0.115,-0.693 0.112,-0.704 0.105,-0.711C0.098,-0.718 0.088,-0.721 0.075,-0.721C0.064,-0.721 0.053,-0.719 0.04,-0.715L0.04,-0.74L0.265,-0.74L0.265,-0.715C0.252,-0.719 0.241,-0.721 0.23,-0.721C0.217,-0.721 0.207,-0.718 0.201,-0.711C0.194,-0.704 0.19,-0.693 0.19,-0.68L0.19,-0.06C0.19,-0.047 0.194,-0.037 0.201,-0.029C0.207,-0.023 0.217,-0.019 0.23,-0.019C0.241,-0.019 0.252,-0.021 0.265,-0.025L0.265,-0L0.04,-0L0.04,-0.025Z" style="fill:rgb(255,250,234);fill-rule:nonzero;"/>
        </g>
        <g transform="matrix(44,0,0,44,743.94,636.195)">
            <path d="M0.682,-0.741L0.682,-0.716C0.669,-0.72 0.656,-0.722 0.644,-0.722C0.627,-0.722 0.614,-0.718 0.604,-0.711C0.593,-0.704 0.588,-0.694 0.588,-0.681L0.588,0.02L0.565,0.02L0.123,-0.667L0.124,-0.06C0.124,-0.047 0.13,-0.037 0.142,-0.03C0.155,-0.023 0.17,-0.019 0.188,-0.019C0.202,-0.019 0.215,-0.021 0.228,-0.025L0.228,-0L0.01,-0L0.01,-0.025C0.023,-0.021 0.035,-0.019 0.048,-0.019C0.064,-0.019 0.077,-0.023 0.086,-0.03C0.096,-0.037 0.101,-0.047 0.101,-0.06L0.101,-0.68C0.101,-0.693 0.096,-0.703 0.086,-0.71C0.076,-0.717 0.063,-0.721 0.047,-0.721C0.036,-0.721 0.023,-0.719 0.01,-0.715L0.01,-0.74L0.167,-0.74L0.565,-0.137L0.565,-0.681C0.565,-0.694 0.559,-0.704 0.548,-0.711C0.537,-0.718 0.522,-0.722 0.505,-0.722C0.492,-0.722 0.479,-0.72 0.466,-0.716L0.466,-0.741L0.682,-0.741Z" style="fill:rgb(255,250,234);fill-rule:nonzero;"/>
        </g>
        <g transform="matrix(44,0,0,44,781.868,636.195)">
            <path d="M0.385,0.02C0.323,0.02 0.267,0.002 0.216,-0.034C0.165,-0.069 0.124,-0.117 0.095,-0.177C0.065,-0.236 0.05,-0.301 0.05,-0.37C0.05,-0.44 0.064,-0.505 0.092,-0.565C0.119,-0.624 0.158,-0.672 0.207,-0.707C0.257,-0.742 0.313,-0.76 0.376,-0.76C0.421,-0.76 0.464,-0.748 0.505,-0.724C0.547,-0.7 0.579,-0.674 0.6,-0.645L0.615,-0.743L0.632,-0.743L0.632,-0.52L0.6,-0.52C0.6,-0.557 0.591,-0.592 0.574,-0.625C0.557,-0.659 0.531,-0.687 0.496,-0.708C0.461,-0.729 0.417,-0.74 0.366,-0.74C0.32,-0.74 0.279,-0.723 0.244,-0.689C0.209,-0.655 0.182,-0.61 0.163,-0.554C0.144,-0.498 0.135,-0.438 0.135,-0.374C0.135,-0.307 0.144,-0.245 0.161,-0.189C0.178,-0.132 0.206,-0.087 0.245,-0.052C0.283,-0.017 0.331,-0 0.39,-0C0.433,-0 0.469,-0.012 0.5,-0.035C0.531,-0.058 0.554,-0.088 0.57,-0.124C0.585,-0.159 0.593,-0.195 0.593,-0.232C0.593,-0.262 0.591,-0.285 0.587,-0.301C0.582,-0.317 0.574,-0.325 0.562,-0.325L0.489,-0.326C0.448,-0.326 0.424,-0.324 0.417,-0.32C0.41,-0.316 0.406,-0.308 0.406,-0.296C0.407,-0.284 0.407,-0.276 0.407,-0.271C0.407,-0.256 0.408,-0.245 0.411,-0.237C0.414,-0.23 0.42,-0.226 0.429,-0.225L0.429,-0.212L0.39,-0.212L0.39,-0.345L0.659,-0.345L0.659,-0.098C0.647,-0.098 0.632,-0.093 0.615,-0.084C0.604,-0.077 0.592,-0.07 0.579,-0.061C0.544,-0.037 0.511,-0.018 0.48,-0.003C0.449,0.012 0.418,0.02 0.385,0.02Z" style="fill:rgb(255,250,234);fill-rule:nonzero;"/>
        </g>
        <g transform="matrix(44,0,0,44,820.984,636.195)">
            <path d="M0.278,0.02C0.229,0.02 0.191,0.012 0.162,-0.005C0.133,-0.021 0.107,-0.045 0.086,-0.078L0.072,-0.019L0.052,-0.019L0.052,-0.291L0.079,-0.291C0.079,-0.2 0.095,-0.129 0.127,-0.076C0.158,-0.023 0.205,0.003 0.268,0.003C0.297,0.003 0.323,-0.005 0.345,-0.021C0.367,-0.038 0.384,-0.059 0.395,-0.086C0.406,-0.113 0.412,-0.141 0.412,-0.171C0.412,-0.208 0.404,-0.238 0.388,-0.263C0.371,-0.287 0.351,-0.306 0.327,-0.32C0.303,-0.334 0.271,-0.349 0.232,-0.366C0.191,-0.383 0.159,-0.399 0.135,-0.413C0.111,-0.428 0.091,-0.447 0.075,-0.471C0.058,-0.496 0.05,-0.527 0.05,-0.564C0.05,-0.601 0.059,-0.635 0.077,-0.665C0.094,-0.695 0.118,-0.718 0.149,-0.735C0.179,-0.752 0.213,-0.76 0.251,-0.76C0.274,-0.76 0.298,-0.756 0.321,-0.748C0.344,-0.74 0.363,-0.73 0.379,-0.718C0.395,-0.705 0.405,-0.693 0.408,-0.681L0.419,-0.758L0.438,-0.758L0.438,-0.559L0.415,-0.559C0.415,-0.589 0.41,-0.618 0.399,-0.645C0.388,-0.672 0.372,-0.695 0.349,-0.712C0.327,-0.729 0.3,-0.738 0.267,-0.738C0.225,-0.738 0.191,-0.724 0.165,-0.696C0.138,-0.668 0.125,-0.629 0.125,-0.579C0.125,-0.55 0.132,-0.526 0.147,-0.506C0.162,-0.487 0.18,-0.471 0.202,-0.458C0.223,-0.445 0.252,-0.431 0.289,-0.414C0.332,-0.395 0.366,-0.377 0.393,-0.361C0.419,-0.344 0.441,-0.322 0.46,-0.295C0.478,-0.267 0.487,-0.232 0.487,-0.191C0.487,-0.158 0.477,-0.125 0.458,-0.092C0.439,-0.059 0.413,-0.032 0.381,-0.011C0.349,0.01 0.315,0.02 0.278,0.02Z" style="fill:rgb(255,250,234);fill-rule:nonzero;"/>
        </g>
    </g>
</svg>
