<?xml version="1.0" encoding="UTF-8" standalone="no"?>
<!DOCTYPE svg PUBLIC "-//W3C//DTD SVG 1.1//EN" "http://www.w3.org/Graphics/SVG/1.1/DTD/svg11.dtd">
<svg width="100%" height="100%" viewBox="0 0 700 200" version="1.1" xmlns="http://www.w3.org/2000/svg" xmlns:xlink="http://www.w3.org/1999/xlink" xml:space="preserve" xmlns:serif="http://www.serif.com/" style="fill-rule:evenodd;clip-rule:evenodd;stroke-linecap:round;stroke-linejoin:round;stroke-miterlimit:2;">
    <g transform="matrix(1,0,0,1.17417,-46.8855,-300.153)">
        <path d="M260.327,291.797L260.328,291.797L260.328,389.797L260.327,389.797L255.578,391.097L255.578,391.897L267.578,391.897L267.578,391.097L262.829,389.797L262.828,389.797L262.828,291.797L262.829,291.797L267.578,290.497L267.578,289.697L255.578,289.697L255.578,290.497L260.327,291.797Z" style="fill:rgb(255,250,234);fill-opacity:0.8;"/>
    </g>
    <g transform="matrix(1,0,0,1,-19.6592,-241.879)">
        <path d="M300.538,331.129C300.771,331.995 301.371,332.429 302.338,332.429C302.971,332.429 303.804,332.245 304.838,331.879L304.838,333.129L292.788,333.129L292.788,331.879C293.754,332.212 294.588,332.379 295.288,332.379C296.088,332.379 296.488,332.095 296.488,331.529C296.488,331.362 296.471,331.229 296.438,331.129L291.938,316.879L281.338,316.879C280.138,320.879 278.988,324.879 277.888,328.879L277.538,330.129C277.471,330.329 277.438,330.579 277.438,330.879C277.438,331.845 278.038,332.329 279.238,332.329C279.904,332.329 280.671,332.179 281.538,331.879L281.538,333.129L271.088,333.129L271.088,331.879C271.888,332.179 272.654,332.329 273.388,332.329C274.388,332.329 275.104,331.929 275.538,331.129C275.771,330.662 275.971,330.179 276.138,329.679L286.738,295.129L289.638,295.129L300.538,331.129ZM281.588,315.979L291.638,315.979L286.438,299.579L281.588,315.979Z" style="fill:rgb(255,250,234);fill-rule:nonzero;stroke:rgb(255,250,234);stroke-width:1.67px;"/>
        <path d="M343.738,332.229C342.571,333.295 340.938,333.829 338.838,333.829C337.504,333.829 336.513,333.454 335.863,332.704C335.213,331.954 334.779,331.02 334.563,329.904C334.346,328.787 334.171,327.245 334.038,325.279C333.871,322.779 333.613,320.762 333.263,319.229C332.913,317.695 332.146,316.387 330.963,315.304C329.779,314.22 327.971,313.679 325.538,313.679L323.938,313.679L323.938,312.979C327.071,312.979 329.496,312.704 331.213,312.154C332.929,311.604 334.146,310.729 334.863,309.529C335.579,308.329 335.938,306.662 335.938,304.529C335.938,302.329 335.113,300.462 333.463,298.929C331.813,297.395 329.154,296.629 325.488,296.629C324.488,296.629 323.454,296.762 322.388,297.029L322.338,330.129C322.338,331.495 322.988,332.179 324.288,332.179C324.788,332.179 325.354,332.079 325.988,331.879L325.988,333.129L314.838,333.129L314.838,331.879C315.471,332.079 316.054,332.179 316.588,332.179C317.221,332.179 317.713,332.004 318.063,331.654C318.413,331.304 318.588,330.795 318.588,330.129L318.588,299.129C318.588,298.462 318.413,297.954 318.063,297.604C317.713,297.254 317.221,297.079 316.588,297.079C316.054,297.079 315.471,297.179 314.838,297.379L314.838,296.129L327.688,296.129C331.254,296.129 334.221,296.845 336.588,298.279C338.954,299.712 340.138,301.929 340.138,304.929C340.138,306.329 339.804,307.645 339.138,308.879C338.471,310.112 337.446,311.137 336.063,311.954C334.679,312.77 332.971,313.245 330.938,313.379C332.871,313.379 334.321,313.904 335.288,314.954C336.254,316.004 336.904,317.27 337.238,318.754C337.571,320.237 337.821,322.162 337.988,324.529C338.154,326.895 338.396,328.687 338.713,329.904C339.029,331.12 339.671,331.912 340.638,332.279C340.904,332.379 341.188,332.429 341.488,332.429C342.188,332.429 342.938,332.112 343.738,331.479L343.738,332.229Z" style="fill:rgb(255,250,234);fill-rule:nonzero;stroke:rgb(255,250,234);stroke-width:1.67px;"/>
        <path d="M378.888,297.579C378.788,298.212 378.738,299.029 378.738,300.029C378.738,301.995 378.971,303.529 379.438,304.629L378.638,304.629C378.271,303.929 378.004,303.012 377.838,301.879C377.604,300.679 377.288,299.737 376.888,299.054C376.488,298.37 375.671,297.795 374.438,297.329C373.204,296.862 371.354,296.629 368.888,296.629C368.454,296.629 367.971,296.662 367.438,296.729L367.438,330.129C367.438,330.795 367.613,331.304 367.963,331.654C368.313,332.004 368.804,332.179 369.438,332.179C369.971,332.179 370.554,332.079 371.188,331.879L371.188,333.129L359.938,333.129L359.938,331.879C360.604,332.079 361.188,332.179 361.688,332.179C362.321,332.179 362.813,332.004 363.163,331.654C363.513,331.304 363.688,330.795 363.688,330.129L363.688,296.729C363.154,296.662 362.688,296.629 362.288,296.629C359.821,296.629 357.971,296.862 356.738,297.329C355.504,297.795 354.688,298.37 354.288,299.054C353.888,299.737 353.571,300.679 353.338,301.879C353.171,303.012 352.904,303.929 352.538,304.629L351.738,304.629C352.204,303.529 352.438,301.995 352.438,300.029C352.438,299.029 352.388,298.212 352.288,297.579L352.138,296.129L379.038,296.129L378.888,297.579Z" style="fill:rgb(255,250,234);fill-rule:nonzero;stroke:rgb(255,250,234);stroke-width:1.67px;"/>
        <path d="M389.938,331.879C390.571,332.079 391.154,332.179 391.688,332.179C392.321,332.179 392.813,332.004 393.163,331.654C393.513,331.304 393.688,330.795 393.688,330.129L393.688,299.129C393.688,298.462 393.513,297.954 393.163,297.604C392.813,297.254 392.321,297.079 391.688,297.079C391.154,297.079 390.571,297.179 389.938,297.379L389.938,296.129L401.188,296.129L401.188,297.379C400.554,297.179 399.971,297.079 399.438,297.079C398.804,297.079 398.313,297.254 397.963,297.604C397.613,297.954 397.438,298.462 397.438,299.129L397.438,330.129C397.438,330.795 397.613,331.304 397.963,331.654C398.313,332.004 398.804,332.179 399.438,332.179C399.971,332.179 400.554,332.079 401.188,331.879L401.188,333.129L389.938,333.129L389.938,331.879Z" style="fill:rgb(255,250,234);fill-rule:nonzero;stroke:rgb(255,250,234);stroke-width:1.67px;"/>
        <path d="M436.638,297.579C436.538,298.212 436.488,299.029 436.488,300.029C436.488,301.995 436.721,303.529 437.188,304.629L436.388,304.629C436.021,303.929 435.754,303.012 435.588,301.879C435.354,300.679 435.038,299.737 434.638,299.054C434.238,298.37 433.421,297.795 432.188,297.329C430.954,296.862 429.104,296.629 426.638,296.629C424.238,296.629 422.638,297.229 421.838,298.429C421.738,298.662 421.688,298.895 421.688,299.129L421.688,311.879L427.338,311.879C428.304,311.879 428.979,311.854 429.363,311.804C429.746,311.754 430.038,311.612 430.238,311.379C430.438,311.145 430.538,310.745 430.538,310.179C430.538,309.179 430.479,308.429 430.363,307.929C430.246,307.429 429.904,307.179 429.338,307.179L429.338,306.529L431.288,306.529L431.288,318.129L429.338,318.129L429.338,317.429C429.904,317.429 430.246,317.154 430.363,316.604C430.479,316.054 430.538,315.262 430.538,314.229C430.538,313.695 430.304,313.329 429.838,313.129C429.371,312.929 428.538,312.829 427.338,312.829L421.688,312.829L421.688,330.129C421.688,330.795 421.863,331.304 422.213,331.654C422.563,332.004 423.054,332.179 423.688,332.179C424.221,332.179 424.804,332.079 425.438,331.879L425.438,333.129L414.188,333.129L414.188,331.879C414.821,332.079 415.404,332.179 415.938,332.179C416.571,332.179 417.063,332.004 417.413,331.654C417.763,331.304 417.938,330.795 417.938,330.129L417.938,299.129C417.938,298.462 417.763,297.954 417.413,297.604C417.063,297.254 416.571,297.079 415.938,297.079C415.404,297.079 414.821,297.179 414.188,297.379L414.188,296.129L436.788,296.129L436.638,297.579Z" style="fill:rgb(255,250,234);fill-rule:nonzero;stroke:rgb(255,250,234);stroke-width:1.67px;"/>
        <path d="M472.138,331.129C472.371,331.995 472.971,332.429 473.938,332.429C474.571,332.429 475.404,332.245 476.438,331.879L476.438,333.129L464.388,333.129L464.388,331.879C465.354,332.212 466.188,332.379 466.888,332.379C467.688,332.379 468.088,332.095 468.088,331.529C468.088,331.362 468.071,331.229 468.038,331.129L463.538,316.879L452.938,316.879C451.738,320.879 450.588,324.879 449.488,328.879L449.138,330.129C449.071,330.329 449.038,330.579 449.038,330.879C449.038,331.845 449.638,332.329 450.838,332.329C451.504,332.329 452.271,332.179 453.138,331.879L453.138,333.129L442.688,333.129L442.688,331.879C443.488,332.179 444.254,332.329 444.988,332.329C445.988,332.329 446.704,331.929 447.138,331.129C447.371,330.662 447.571,330.179 447.738,329.679L458.338,295.129L461.238,295.129L472.138,331.129ZM453.188,315.979L463.238,315.979L458.038,299.579L453.188,315.979Z" style="fill:rgb(255,250,234);fill-rule:nonzero;stroke:rgb(255,250,234);stroke-width:1.67px;"/>
        <path d="M501.938,334.129C499.104,334.129 496.413,333.237 493.863,331.454C491.313,329.67 489.271,327.279 487.738,324.279C486.204,321.279 485.438,318.062 485.438,314.629C485.438,310.895 486.171,307.545 487.638,304.579C489.104,301.612 491.104,299.295 493.638,297.629C496.171,295.962 498.988,295.129 502.088,295.129C503.821,295.129 505.813,295.595 508.063,296.529C510.313,297.462 511.888,298.529 512.788,299.729L513.538,295.979L514.388,295.979L514.388,307.129L513.338,307.129C513.338,305.395 512.813,303.679 511.763,301.979C510.713,300.279 509.271,298.879 507.438,297.779C505.604,296.679 503.588,296.129 501.388,296.129C499.121,296.129 497.104,296.929 495.338,298.529C493.571,300.129 492.188,302.32 491.188,305.104C490.188,307.887 489.688,310.995 489.688,314.429C489.688,317.729 490.179,320.804 491.163,323.654C492.146,326.504 493.646,328.795 495.663,330.529C497.679,332.262 500.138,333.129 503.038,333.129C505.171,333.129 507.121,332.512 508.888,331.279C510.654,330.045 511.971,328.445 512.838,326.479C512.938,326.245 513.138,325.562 513.438,324.429C513.671,323.429 513.913,322.587 514.163,321.904C514.413,321.22 514.754,320.612 515.188,320.079L515.888,320.079C515.354,320.545 514.979,321.412 514.763,322.679C514.546,323.945 514.438,325.695 514.438,327.929C514.438,328.729 513.796,329.62 512.513,330.604C511.229,331.587 509.613,332.42 507.663,333.104C505.713,333.787 503.804,334.129 501.938,334.129Z" style="fill:rgb(255,250,234);fill-rule:nonzero;stroke:rgb(255,250,234);stroke-width:1.67px;"/>
        <path d="M552.538,297.579C552.438,298.212 552.388,299.029 552.388,300.029C552.388,301.995 552.621,303.529 553.088,304.629L552.288,304.629C551.921,303.929 551.654,303.012 551.488,301.879C551.254,300.679 550.938,299.737 550.538,299.054C550.138,298.37 549.321,297.795 548.088,297.329C546.854,296.862 545.004,296.629 542.538,296.629C542.104,296.629 541.621,296.662 541.088,296.729L541.088,330.129C541.088,330.795 541.263,331.304 541.613,331.654C541.963,332.004 542.454,332.179 543.088,332.179C543.621,332.179 544.204,332.079 544.838,331.879L544.838,333.129L533.588,333.129L533.588,331.879C534.254,332.079 534.838,332.179 535.338,332.179C535.971,332.179 536.463,332.004 536.813,331.654C537.163,331.304 537.338,330.795 537.338,330.129L537.338,296.729C536.804,296.662 536.338,296.629 535.938,296.629C533.471,296.629 531.621,296.862 530.388,297.329C529.154,297.795 528.338,298.37 527.938,299.054C527.538,299.737 527.221,300.679 526.988,301.879C526.821,303.012 526.554,303.929 526.188,304.629L525.388,304.629C525.854,303.529 526.088,301.995 526.088,300.029C526.088,299.029 526.038,298.212 525.938,297.579L525.788,296.129L552.688,296.129L552.538,297.579Z" style="fill:rgb(255,250,234);fill-rule:nonzero;stroke:rgb(255,250,234);stroke-width:1.67px;"/>
        <path d="M575.488,334.129C573.054,334.129 571.113,333.72 569.663,332.904C568.213,332.087 566.954,330.862 565.888,329.229L565.188,332.179L564.188,332.179L564.188,318.579L565.538,318.579C565.538,323.112 566.329,326.695 567.913,329.329C569.496,331.962 571.854,333.279 574.988,333.279C576.454,333.279 577.738,332.87 578.838,332.054C579.938,331.237 580.771,330.162 581.338,328.829C581.904,327.495 582.188,326.079 582.188,324.579C582.188,322.745 581.779,321.22 580.963,320.004C580.146,318.787 579.138,317.829 577.938,317.129C576.738,316.429 575.154,315.662 573.188,314.829C571.154,313.962 569.538,313.17 568.338,312.454C567.138,311.737 566.129,310.77 565.313,309.554C564.496,308.337 564.088,306.795 564.088,304.929C564.088,303.062 564.529,301.379 565.413,299.879C566.296,298.379 567.496,297.212 569.013,296.379C570.529,295.545 572.238,295.129 574.138,295.129C575.304,295.129 576.463,295.329 577.613,295.729C578.763,296.129 579.738,296.637 580.538,297.254C581.338,297.87 581.821,298.479 581.988,299.079L582.538,295.229L583.488,295.229L583.488,305.179L582.338,305.179C582.338,303.679 582.071,302.245 581.538,300.879C581.004,299.512 580.179,298.395 579.063,297.529C577.946,296.662 576.571,296.229 574.938,296.229C572.838,296.229 571.129,296.929 569.813,298.329C568.496,299.729 567.838,301.679 567.838,304.179C567.838,305.612 568.204,306.82 568.938,307.804C569.671,308.787 570.579,309.595 571.663,310.229C572.746,310.862 574.204,311.595 576.038,312.429C578.171,313.395 579.896,314.287 581.213,315.104C582.529,315.92 583.646,317.02 584.563,318.404C585.479,319.787 585.938,321.512 585.938,323.579C585.938,325.245 585.454,326.904 584.488,328.554C583.521,330.204 582.238,331.545 580.638,332.579C579.038,333.612 577.321,334.129 575.488,334.129Z" style="fill:rgb(255,250,234);fill-rule:nonzero;stroke:rgb(255,250,234);stroke-width:1.67px;"/>
        <g transform="matrix(50,0,0,50,272.088,387.295)">
            <path d="M0.618,-0.018C0.595,0.003 0.562,0.014 0.52,0.014C0.493,0.014 0.473,0.006 0.461,-0.009C0.448,-0.024 0.439,-0.042 0.435,-0.065C0.43,-0.087 0.427,-0.118 0.424,-0.157C0.421,-0.207 0.416,-0.247 0.408,-0.278C0.402,-0.309 0.386,-0.335 0.363,-0.357C0.339,-0.378 0.303,-0.389 0.254,-0.389L0.222,-0.389L0.222,-0.403C0.285,-0.403 0.333,-0.408 0.368,-0.42C0.402,-0.431 0.426,-0.448 0.441,-0.472C0.455,-0.496 0.462,-0.529 0.462,-0.572C0.462,-0.616 0.446,-0.653 0.412,-0.684C0.38,-0.715 0.326,-0.73 0.253,-0.73C0.233,-0.73 0.212,-0.727 0.191,-0.722L0.19,-0.06C0.19,-0.033 0.203,-0.019 0.229,-0.019C0.239,-0.019 0.25,-0.021 0.263,-0.025L0.263,-0L0.04,-0L0.04,-0.025C0.053,-0.021 0.064,-0.019 0.075,-0.019C0.088,-0.019 0.098,-0.023 0.105,-0.029C0.112,-0.037 0.115,-0.047 0.115,-0.06L0.115,-0.68C0.115,-0.693 0.112,-0.704 0.105,-0.711C0.098,-0.718 0.088,-0.721 0.075,-0.721C0.064,-0.721 0.053,-0.719 0.04,-0.715L0.04,-0.74L0.297,-0.74C0.368,-0.74 0.428,-0.726 0.475,-0.697C0.522,-0.668 0.546,-0.624 0.546,-0.564C0.546,-0.536 0.539,-0.51 0.526,-0.485C0.513,-0.46 0.492,-0.44 0.465,-0.424C0.437,-0.407 0.403,-0.398 0.362,-0.395C0.401,-0.395 0.43,-0.385 0.449,-0.364C0.468,-0.343 0.481,-0.317 0.488,-0.288C0.495,-0.258 0.5,-0.219 0.503,-0.172C0.506,-0.125 0.511,-0.089 0.518,-0.065C0.524,-0.04 0.537,-0.024 0.556,-0.017C0.561,-0.015 0.567,-0.014 0.573,-0.014C0.587,-0.014 0.602,-0.02 0.618,-0.033L0.618,-0.018Z" style="fill:rgb(255,250,234);fill-rule:nonzero;"/>
        </g>
        <g transform="matrix(50,0,0,50,312.988,387.295)">
            <path d="M0.57,-0.226C0.561,-0.217 0.555,-0.204 0.552,-0.185C0.549,-0.166 0.547,-0.139 0.547,-0.102L0.547,-0L0.04,-0L0.04,-0.025C0.053,-0.021 0.064,-0.019 0.075,-0.019C0.088,-0.019 0.098,-0.023 0.105,-0.029C0.112,-0.037 0.115,-0.047 0.115,-0.06L0.115,-0.68C0.115,-0.693 0.112,-0.704 0.105,-0.711C0.098,-0.718 0.088,-0.721 0.075,-0.721C0.064,-0.721 0.053,-0.719 0.04,-0.715L0.04,-0.74L0.505,-0.74L0.502,-0.711C0.5,-0.698 0.499,-0.682 0.499,-0.662C0.499,-0.623 0.504,-0.592 0.513,-0.57L0.497,-0.57C0.49,-0.584 0.484,-0.602 0.481,-0.625C0.476,-0.649 0.47,-0.668 0.462,-0.682C0.454,-0.695 0.438,-0.707 0.413,-0.716C0.388,-0.725 0.351,-0.73 0.302,-0.73C0.267,-0.73 0.241,-0.724 0.225,-0.712C0.209,-0.7 0.2,-0.687 0.197,-0.674C0.194,-0.66 0.191,-0.64 0.19,-0.615L0.19,-0.425L0.328,-0.425C0.347,-0.425 0.361,-0.426 0.369,-0.427C0.376,-0.428 0.382,-0.43 0.386,-0.435C0.39,-0.44 0.392,-0.448 0.392,-0.459C0.392,-0.479 0.391,-0.494 0.389,-0.504C0.386,-0.514 0.379,-0.519 0.368,-0.519L0.368,-0.532L0.407,-0.532L0.407,-0.3L0.368,-0.3L0.368,-0.314C0.379,-0.314 0.386,-0.32 0.389,-0.331C0.391,-0.342 0.392,-0.357 0.392,-0.378C0.392,-0.389 0.388,-0.396 0.379,-0.4C0.37,-0.403 0.353,-0.405 0.328,-0.406L0.19,-0.406L0.19,-0.125C0.191,-0.102 0.194,-0.084 0.198,-0.069C0.202,-0.054 0.213,-0.04 0.23,-0.028C0.247,-0.016 0.273,-0.01 0.308,-0.01C0.365,-0.01 0.409,-0.016 0.439,-0.029C0.469,-0.041 0.489,-0.056 0.5,-0.075C0.511,-0.093 0.52,-0.118 0.528,-0.149C0.536,-0.183 0.545,-0.209 0.556,-0.226L0.57,-0.226Z" style="fill:rgb(255,250,234);fill-rule:nonzero;"/>
        </g>
        <g transform="matrix(50,0,0,50,351.488,387.295)">
            <path d="M0.38,0.02C0.323,0.02 0.27,0.002 0.219,-0.034C0.168,-0.069 0.127,-0.117 0.096,-0.177C0.065,-0.237 0.05,-0.301 0.05,-0.37C0.05,-0.445 0.065,-0.512 0.094,-0.571C0.123,-0.63 0.163,-0.677 0.214,-0.71C0.265,-0.743 0.321,-0.76 0.383,-0.76C0.418,-0.76 0.458,-0.751 0.502,-0.732C0.548,-0.713 0.579,-0.692 0.597,-0.668L0.612,-0.743L0.629,-0.743L0.629,-0.52L0.608,-0.52C0.608,-0.555 0.598,-0.589 0.577,-0.623C0.556,-0.657 0.527,-0.685 0.49,-0.707C0.453,-0.729 0.413,-0.74 0.369,-0.74C0.324,-0.74 0.283,-0.724 0.248,-0.692C0.213,-0.66 0.185,-0.616 0.165,-0.561C0.145,-0.505 0.135,-0.443 0.135,-0.374C0.135,-0.308 0.145,-0.247 0.165,-0.19C0.184,-0.133 0.214,-0.087 0.255,-0.052C0.295,-0.017 0.344,-0 0.402,-0C0.445,-0 0.484,-0.012 0.519,-0.037C0.554,-0.062 0.581,-0.094 0.598,-0.133C0.6,-0.138 0.604,-0.151 0.61,-0.174C0.615,-0.194 0.62,-0.211 0.625,-0.225C0.629,-0.238 0.636,-0.25 0.645,-0.261L0.659,-0.261C0.648,-0.252 0.641,-0.234 0.636,-0.209C0.632,-0.184 0.63,-0.149 0.63,-0.104C0.63,-0.088 0.617,-0.07 0.592,-0.051C0.566,-0.031 0.534,-0.014 0.495,-0.001C0.456,0.013 0.417,0.02 0.38,0.02Z" style="fill:rgb(255,250,234);fill-rule:nonzero;"/>
        </g>
        <g transform="matrix(50,0,0,50,394.438,387.295)">
            <path d="M0.377,0.02C0.31,0.02 0.251,0.002 0.202,-0.034C0.153,-0.069 0.115,-0.117 0.09,-0.177C0.064,-0.237 0.051,-0.303 0.05,-0.375C0.049,-0.432 0.06,-0.49 0.081,-0.549C0.102,-0.608 0.137,-0.658 0.184,-0.699C0.231,-0.74 0.292,-0.76 0.367,-0.76C0.442,-0.76 0.504,-0.741 0.553,-0.702C0.601,-0.663 0.636,-0.614 0.658,-0.555C0.679,-0.496 0.69,-0.436 0.69,-0.375C0.69,-0.302 0.678,-0.236 0.655,-0.177C0.632,-0.117 0.597,-0.069 0.55,-0.034C0.502,0.002 0.445,0.02 0.377,0.02ZM0.377,-0C0.458,-0 0.516,-0.035 0.553,-0.105C0.589,-0.174 0.607,-0.264 0.606,-0.375C0.605,-0.432 0.597,-0.489 0.58,-0.545C0.563,-0.601 0.536,-0.648 0.5,-0.685C0.465,-0.722 0.42,-0.74 0.367,-0.74C0.313,-0.74 0.269,-0.72 0.234,-0.68C0.199,-0.639 0.174,-0.59 0.159,-0.532C0.143,-0.474 0.135,-0.418 0.135,-0.364C0.135,-0.296 0.144,-0.235 0.162,-0.18C0.179,-0.125 0.206,-0.082 0.243,-0.049C0.279,-0.016 0.324,-0 0.377,-0Z" style="fill:rgb(255,250,234);fill-rule:nonzero;"/>
        </g>
        <g transform="matrix(50,0,0,50,440.438,387.295)">
            <path d="M0.618,-0.018C0.595,0.003 0.562,0.014 0.52,0.014C0.493,0.014 0.473,0.006 0.461,-0.009C0.448,-0.024 0.439,-0.042 0.435,-0.065C0.43,-0.087 0.427,-0.118 0.424,-0.157C0.421,-0.207 0.416,-0.247 0.408,-0.278C0.402,-0.309 0.386,-0.335 0.363,-0.357C0.339,-0.378 0.303,-0.389 0.254,-0.389L0.222,-0.389L0.222,-0.403C0.285,-0.403 0.333,-0.408 0.368,-0.42C0.402,-0.431 0.426,-0.448 0.441,-0.472C0.455,-0.496 0.462,-0.529 0.462,-0.572C0.462,-0.616 0.446,-0.653 0.412,-0.684C0.38,-0.715 0.326,-0.73 0.253,-0.73C0.233,-0.73 0.212,-0.727 0.191,-0.722L0.19,-0.06C0.19,-0.033 0.203,-0.019 0.229,-0.019C0.239,-0.019 0.25,-0.021 0.263,-0.025L0.263,-0L0.04,-0L0.04,-0.025C0.053,-0.021 0.064,-0.019 0.075,-0.019C0.088,-0.019 0.098,-0.023 0.105,-0.029C0.112,-0.037 0.115,-0.047 0.115,-0.06L0.115,-0.68C0.115,-0.693 0.112,-0.704 0.105,-0.711C0.098,-0.718 0.088,-0.721 0.075,-0.721C0.064,-0.721 0.053,-0.719 0.04,-0.715L0.04,-0.74L0.297,-0.74C0.368,-0.74 0.428,-0.726 0.475,-0.697C0.522,-0.668 0.546,-0.624 0.546,-0.564C0.546,-0.536 0.539,-0.51 0.526,-0.485C0.513,-0.46 0.492,-0.44 0.465,-0.424C0.437,-0.407 0.403,-0.398 0.362,-0.395C0.401,-0.395 0.43,-0.385 0.449,-0.364C0.468,-0.343 0.481,-0.317 0.488,-0.288C0.495,-0.258 0.5,-0.219 0.503,-0.172C0.506,-0.125 0.511,-0.089 0.518,-0.065C0.524,-0.04 0.537,-0.024 0.556,-0.017C0.561,-0.015 0.567,-0.014 0.573,-0.014C0.587,-0.014 0.602,-0.02 0.618,-0.033L0.618,-0.018Z" style="fill:rgb(255,250,234);fill-rule:nonzero;"/>
        </g>
        <g transform="matrix(50,0,0,50,481.338,387.295)">
            <path d="M0.04,-0.025C0.053,-0.021 0.064,-0.019 0.075,-0.019C0.088,-0.019 0.098,-0.023 0.105,-0.029C0.112,-0.037 0.115,-0.047 0.115,-0.06L0.115,-0.68C0.115,-0.693 0.112,-0.704 0.105,-0.711C0.098,-0.718 0.088,-0.721 0.075,-0.721C0.064,-0.721 0.053,-0.719 0.04,-0.715L0.04,-0.74L0.349,-0.74C0.406,-0.74 0.459,-0.725 0.507,-0.696C0.556,-0.667 0.594,-0.625 0.622,-0.572C0.65,-0.519 0.664,-0.458 0.664,-0.39C0.664,-0.321 0.65,-0.257 0.622,-0.197C0.593,-0.137 0.555,-0.089 0.506,-0.054C0.458,-0.018 0.406,-0 0.349,-0L0.04,-0L0.04,-0.025ZM0.327,-0.017C0.365,-0.017 0.404,-0.03 0.444,-0.055C0.483,-0.08 0.517,-0.12 0.544,-0.173C0.571,-0.227 0.585,-0.294 0.585,-0.374C0.585,-0.436 0.573,-0.494 0.55,-0.548C0.526,-0.601 0.494,-0.644 0.455,-0.676C0.415,-0.708 0.372,-0.724 0.327,-0.724L0.237,-0.724C0.225,-0.724 0.214,-0.721 0.204,-0.714C0.195,-0.707 0.19,-0.695 0.19,-0.68L0.19,-0.06C0.19,-0.045 0.195,-0.034 0.204,-0.027C0.214,-0.02 0.225,-0.017 0.237,-0.017L0.327,-0.017Z" style="fill:rgb(255,250,234);fill-rule:nonzero;"/>
        </g>
        <g transform="matrix(50,0,0,50,525.538,387.295)">
            <path d="M0.04,-0.025C0.053,-0.021 0.064,-0.019 0.075,-0.019C0.088,-0.019 0.098,-0.023 0.105,-0.029C0.112,-0.037 0.115,-0.047 0.115,-0.06L0.115,-0.68C0.115,-0.693 0.112,-0.704 0.105,-0.711C0.098,-0.718 0.088,-0.721 0.075,-0.721C0.064,-0.721 0.053,-0.719 0.04,-0.715L0.04,-0.74L0.265,-0.74L0.265,-0.715C0.252,-0.719 0.241,-0.721 0.23,-0.721C0.217,-0.721 0.207,-0.718 0.201,-0.711C0.194,-0.704 0.19,-0.693 0.19,-0.68L0.19,-0.06C0.19,-0.047 0.194,-0.037 0.201,-0.029C0.207,-0.023 0.217,-0.019 0.23,-0.019C0.241,-0.019 0.252,-0.021 0.265,-0.025L0.265,-0L0.04,-0L0.04,-0.025Z" style="fill:rgb(255,250,234);fill-rule:nonzero;"/>
        </g>
        <g transform="matrix(50,0,0,50,549.788,387.295)">
            <path d="M0.682,-0.741L0.682,-0.716C0.669,-0.72 0.656,-0.722 0.644,-0.722C0.627,-0.722 0.614,-0.718 0.604,-0.711C0.593,-0.704 0.588,-0.694 0.588,-0.681L0.588,0.02L0.565,0.02L0.123,-0.667L0.124,-0.06C0.124,-0.047 0.13,-0.037 0.142,-0.03C0.155,-0.023 0.17,-0.019 0.188,-0.019C0.202,-0.019 0.215,-0.021 0.228,-0.025L0.228,-0L0.01,-0L0.01,-0.025C0.023,-0.021 0.035,-0.019 0.048,-0.019C0.064,-0.019 0.077,-0.023 0.086,-0.03C0.096,-0.037 0.101,-0.047 0.101,-0.06L0.101,-0.68C0.101,-0.693 0.096,-0.703 0.086,-0.71C0.076,-0.717 0.063,-0.721 0.047,-0.721C0.036,-0.721 0.023,-0.719 0.01,-0.715L0.01,-0.74L0.167,-0.74L0.565,-0.137L0.565,-0.681C0.565,-0.694 0.559,-0.704 0.548,-0.711C0.537,-0.718 0.522,-0.722 0.505,-0.722C0.492,-0.722 0.479,-0.72 0.466,-0.716L0.466,-0.741L0.682,-0.741Z" style="fill:rgb(255,250,234);fill-rule:nonzero;"/>
        </g>
        <g transform="matrix(50,0,0,50,592.888,387.295)">
            <path d="M0.385,0.02C0.323,0.02 0.267,0.002 0.216,-0.034C0.165,-0.069 0.124,-0.117 0.095,-0.177C0.065,-0.236 0.05,-0.301 0.05,-0.37C0.05,-0.44 0.064,-0.505 0.092,-0.565C0.119,-0.624 0.158,-0.672 0.207,-0.707C0.257,-0.742 0.313,-0.76 0.376,-0.76C0.421,-0.76 0.464,-0.748 0.505,-0.724C0.547,-0.7 0.579,-0.674 0.6,-0.645L0.615,-0.743L0.632,-0.743L0.632,-0.52L0.6,-0.52C0.6,-0.557 0.591,-0.592 0.574,-0.625C0.557,-0.659 0.531,-0.687 0.496,-0.708C0.461,-0.729 0.417,-0.74 0.366,-0.74C0.32,-0.74 0.279,-0.723 0.244,-0.689C0.209,-0.655 0.182,-0.61 0.163,-0.554C0.144,-0.498 0.135,-0.438 0.135,-0.374C0.135,-0.307 0.144,-0.245 0.161,-0.189C0.178,-0.132 0.206,-0.087 0.245,-0.052C0.283,-0.017 0.331,-0 0.39,-0C0.433,-0 0.469,-0.012 0.5,-0.035C0.531,-0.058 0.554,-0.088 0.57,-0.124C0.585,-0.159 0.593,-0.195 0.593,-0.232C0.593,-0.262 0.591,-0.285 0.587,-0.301C0.582,-0.317 0.574,-0.325 0.562,-0.325L0.489,-0.326C0.448,-0.326 0.424,-0.324 0.417,-0.32C0.41,-0.316 0.406,-0.308 0.406,-0.296C0.407,-0.284 0.407,-0.276 0.407,-0.271C0.407,-0.256 0.408,-0.245 0.411,-0.237C0.414,-0.23 0.42,-0.226 0.429,-0.225L0.429,-0.212L0.39,-0.212L0.39,-0.345L0.659,-0.345L0.659,-0.098C0.647,-0.098 0.632,-0.093 0.615,-0.084C0.604,-0.077 0.592,-0.07 0.579,-0.061C0.544,-0.037 0.511,-0.018 0.48,-0.003C0.449,0.012 0.418,0.02 0.385,0.02Z" style="fill:rgb(255,250,234);fill-rule:nonzero;"/>
        </g>
        <g transform="matrix(50,0,0,50,637.338,387.295)">
            <path d="M0.278,0.02C0.229,0.02 0.191,0.012 0.162,-0.005C0.133,-0.021 0.107,-0.045 0.086,-0.078L0.072,-0.019L0.052,-0.019L0.052,-0.291L0.079,-0.291C0.079,-0.2 0.095,-0.129 0.127,-0.076C0.158,-0.023 0.205,0.003 0.268,0.003C0.297,0.003 0.323,-0.005 0.345,-0.021C0.367,-0.038 0.384,-0.059 0.395,-0.086C0.406,-0.113 0.412,-0.141 0.412,-0.171C0.412,-0.208 0.404,-0.238 0.388,-0.263C0.371,-0.287 0.351,-0.306 0.327,-0.32C0.303,-0.334 0.271,-0.349 0.232,-0.366C0.191,-0.383 0.159,-0.399 0.135,-0.413C0.111,-0.428 0.091,-0.447 0.075,-0.471C0.058,-0.496 0.05,-0.527 0.05,-0.564C0.05,-0.601 0.059,-0.635 0.077,-0.665C0.094,-0.695 0.118,-0.718 0.149,-0.735C0.179,-0.752 0.213,-0.76 0.251,-0.76C0.274,-0.76 0.298,-0.756 0.321,-0.748C0.344,-0.74 0.363,-0.73 0.379,-0.718C0.395,-0.705 0.405,-0.693 0.408,-0.681L0.419,-0.758L0.438,-0.758L0.438,-0.559L0.415,-0.559C0.415,-0.589 0.41,-0.618 0.399,-0.645C0.388,-0.672 0.372,-0.695 0.349,-0.712C0.327,-0.729 0.3,-0.738 0.267,-0.738C0.225,-0.738 0.191,-0.724 0.165,-0.696C0.138,-0.668 0.125,-0.629 0.125,-0.579C0.125,-0.55 0.132,-0.526 0.147,-0.506C0.162,-0.487 0.18,-0.471 0.202,-0.458C0.223,-0.445 0.252,-0.431 0.289,-0.414C0.332,-0.395 0.366,-0.377 0.393,-0.361C0.419,-0.344 0.441,-0.322 0.46,-0.295C0.478,-0.267 0.487,-0.232 0.487,-0.191C0.487,-0.158 0.477,-0.125 0.458,-0.092C0.439,-0.059 0.413,-0.032 0.381,-0.011C0.349,0.01 0.315,0.02 0.278,0.02Z" style="fill:rgb(255,250,234);fill-rule:nonzero;"/>
        </g>
    </g>
    <g id="_3530191.svg" serif:id="3530191.svg" transform="matrix(0.634724,0,0,0.634724,94.9352,103.633)">
        <g transform="matrix(1,0,0,1,-157,-133)">
            <g id="_-ad7d76ff" serif:id="#ad7d76ff">
                <path d="M182.62,24.67C184.03,19.95 185.1,14.93 188.28,11.03C188.66,10.98 189.42,10.88 189.8,10.83C187.75,19.77 184.25,28.31 181.97,37.19C181.53,39.31 182,41.47 181.77,43.6C180.89,45.55 179.1,47.19 179.1,49.46C178.89,53.54 177.68,57.52 175.89,61.18C174.58,63.51 175.6,66.23 175.68,68.72C174.88,68.65 174.09,68.58 173.29,68.5C175.89,72.08 172.69,75.79 172.14,79.49C170.6,86.97 169.21,94.5 167.03,101.83C168.16,101.66 169.29,101.48 170.42,101.31C168.95,97.28 173.75,94.69 174.38,91.01C175.03,84.21 176.81,77.4 179.98,71.34C184.92,67.13 188.46,61.47 191.06,55.57C192.43,52.4 191.92,47.7 195.85,46.4C193.82,50.08 193.31,54.22 192.41,58.25C189.21,65.64 182.32,70.99 180.02,78.86C178.82,83.47 178.04,88.19 176.9,92.82C176.14,96.22 174,99.06 172.81,102.3C175.89,100.31 178.21,97.42 179.89,94.19C181.31,91.36 184.16,89.43 184.96,86.26C185.84,83.46 189.33,83.07 191.7,84.12C189.68,86.02 187.79,88.08 186.36,90.46C183.24,95.51 179,99.75 175.87,104.78C174.85,106.08 175.57,107.72 175.64,109.19C179.41,105.75 183.03,102.11 185.94,97.9C190.72,91.45 197.1,86.39 203.87,82.2C209.36,75.55 213.36,67.61 220.02,61.94C221.79,60.46 223.94,59.55 226.12,58.85C223.77,62.22 220.26,64.55 217.95,67.95C213.1,74.65 209.14,82.3 202.14,87.09C194.16,92.47 189.15,100.81 183.53,108.37C183.66,109.18 183.79,109.99 183.91,110.81C189.17,105.41 196.51,103.01 202.28,98.31C205.12,96.12 208.66,94.62 210.37,91.27C211.39,89.22 213.71,88.64 215.59,87.66C218.9,86.15 221.67,83.74 224.76,81.85C227.88,79.86 231.45,78.3 233.71,75.24C236.26,71.62 240.63,70.23 244.11,67.75C247.53,65.28 251.25,63.24 254.5,60.53C258.26,57.37 262.87,55.51 267.09,53.08C266.69,56.77 263.08,58.39 260.47,60.4C256.02,63.38 251.79,66.67 247.37,69.69C236.67,79.08 224.47,86.56 213.19,95.23C206.29,100.98 197.62,103.98 190.55,109.49C188.92,110.45 190.02,112.53 189.91,114.02C192.5,113.82 195.19,113.96 197.66,113.03C200.41,111.73 202.73,109.73 205.23,108.03C208.89,109.09 210.45,104.14 213.84,103.81C218.14,103.29 222.49,102.61 226.31,100.41C232.51,97.66 237.42,92.11 244.38,91.16C240.52,94.55 235.49,96.21 231.71,99.73C224.73,105.71 214.8,105.92 207.59,111.47C203.37,114.35 198.44,115.84 193.81,117.89C197.3,118.78 200.96,118.86 204.46,117.98C209.34,116.84 214.36,116.56 219.25,115.46C220.69,114.97 222.03,115.68 223.35,116.17C227.07,113.47 231.8,112.68 236.3,112.53C243.68,112.63 250.72,110.05 258.01,109.27C264.38,108.72 270.61,107.24 276.92,106.28C277.35,106.92 277.79,107.56 278.24,108.19C268.97,110.79 259.4,112.04 250.05,114.16C246.5,114.49 243.06,115.6 239.48,115.78C228.14,116.2 217.18,121.81 205.73,119.91C202.1,122.67 196.95,122.03 193.57,125.32C201,125.8 208.4,126.97 215.63,128.8C222.12,130.82 228.43,126.72 234.98,127.09C241.07,127.35 247.61,127.58 253.33,128.58C247.09,129.58 240.8,128.38 234.54,128.46C229.12,128.5 224.53,132.42 219.08,132.17C214.3,132.2 209.67,130.48 204.89,130.68C201.01,131.31 197.18,132.45 193.2,132.2C193.55,132.9 193.9,133.6 194.25,134.31C197.51,134.88 200.72,135.66 203.9,136.53C207.92,137.7 212.26,137.09 216.16,138.77C222.09,141.09 228.61,140.63 234.68,142.38C236.82,143 238.81,144.04 240.94,144.71C243.31,145.21 245.83,143.85 248.13,144.91C249.77,145.58 251.34,146.42 252.91,147.24C254.98,146.45 257.21,145.65 259.44,146.35C264.69,147.74 270.26,147.2 275.44,148.9C271.9,150.51 267.96,149.38 264.21,149.5C261.31,149.45 258.47,150.48 255.57,150.08C249.03,148.88 242.5,147.64 236.05,146.09C230.29,145.73 224.48,145 219.16,142.64C214.07,140.75 208.6,140.21 203.42,138.62C203.19,139.09 202.94,139.55 202.67,140C198.63,139.14 194.51,138.67 190.37,138.7C193.31,141.86 197.87,142.26 201.34,144.6C204.94,147.07 209.05,148.54 213.07,150.18C215.22,150.25 217.37,150.44 219.5,150.76C219.18,151.62 218.83,152.48 218.46,153.33C214.73,154.79 211.19,152 207.67,151.1C202.93,149.82 198.53,147.2 193.53,147.02C195.86,149.02 198.67,150.29 201.33,151.78C203.77,153.06 204.92,155.95 207.52,156.98C210.93,158.53 214.1,160.59 217.67,161.79C221.29,162.81 223.33,166.21 226.34,168.21C228.6,169.76 231.32,170.33 233.84,171.32C239.55,173.39 243.13,178.74 248.49,181.41C256.25,185.31 263.77,189.67 271.53,193.58C273.77,194.66 275.78,196.16 277.33,198.12C273.36,196.81 269.95,194.32 266.06,192.83C260.21,190.64 255.45,186.26 249.39,184.54C243.52,182.98 239.15,178.41 233.41,176.54C226.28,174.33 220.67,169.23 214.06,165.98C209.98,164.23 207.68,160.09 203.65,158.29C197.81,155.48 192.54,151.62 186.67,148.87C186.42,152.15 188.95,154.67 190.76,157.12C193.58,160.2 197.66,161.71 200.79,164.44C204.39,167.6 209.14,169.08 212.53,172.51C215.63,175.42 218.37,178.67 221.25,181.79C224.35,185.16 228.9,186.51 232.42,189.32C229.47,189.74 227.07,187.72 224.62,186.41C219.51,183.68 215.96,178.96 211.29,175.66C207.05,172.51 203.39,168.45 198.28,166.65C191.4,164.16 187.55,157.04 180.44,154.98C182.59,160.05 188.39,162.28 190.04,167.61C194.3,172 199.34,175.95 202.19,181.51C204.02,184.1 206.5,186.16 208.43,188.67C211.03,192.01 214.69,194.36 217.17,197.79C221.84,205.31 229.27,210.55 234.19,217.88C235.13,219.04 235.14,220.57 235.36,221.98C231.83,219.4 229.92,215.28 226.49,212.6C217.31,203.07 207.16,194.25 199.92,183.06C197.82,180.35 194.95,178.31 193.08,175.41C191.05,172.26 188.89,169.12 185.92,166.78C182.42,164.01 179.92,160.29 176.89,157.07C177.07,159.72 178.4,161.98 179.92,164.08C182.68,168.7 184.53,173.81 185.69,179.05C186.13,181.07 187.83,182.42 189.15,183.88C193.33,187.94 196.7,192.73 200.89,196.79C200.44,196.91 199.53,197.16 199.08,197.28C200.56,197.93 202.02,198.62 203.49,199.31C203.65,203.46 206.91,206.43 208.15,210.22C208.76,212.27 210.45,214.58 208.49,216.32C204.51,209.07 200.77,201.65 196.06,194.85C193.39,192.53 190.4,190.52 188.36,187.56C185.02,184.03 183.75,179.18 180.72,175.43C177.87,171.81 176.19,167.51 173.9,163.56C172.91,169.74 178.84,174.48 179.55,180.41C179.8,183.85 181.54,186.89 182.32,190.2C183.3,194.03 185.72,197.26 187.04,200.96C188.31,204.29 188.44,207.98 190.16,211.16C191.62,213.91 193.2,216.62 194.17,219.6C189.87,217.41 189.17,212.11 186.48,208.5C184.14,205.8 185.69,201.9 183.54,199.12C181.1,195.27 178.53,191.37 177.92,186.73C175.04,178.01 170.44,169.96 166.15,161.87C164.89,165.55 165.52,169.45 165.82,173.24C166.13,176.43 165.18,179.6 165.61,182.78C166.22,187.15 168.32,191.23 168.41,195.69C168.49,203.06 168.54,210.42 168.36,217.79C168.2,221.4 169.41,225.46 166.84,228.53C166.15,227.26 165.23,226.07 165.2,224.55C164.1,213.57 165.89,202.49 164.58,191.52C164.16,187.74 161.94,184.19 162.65,180.31C163.46,175.82 162.61,171.27 162.05,166.8C161.95,165.1 160.75,163.85 159.92,162.48C158.43,170.04 157.74,177.74 156.78,185.39C155.72,191.27 154.36,197.1 153.33,202.99C152.28,203.08 151.23,203.17 150.18,203.26C151.29,198.91 151.21,194.38 152.12,190C153.42,183.57 155.53,177.14 154.9,170.5C154.64,167.23 156.38,163.1 153.33,160.83C147.59,169.25 145.35,179.51 144.06,189.45C141.24,198.23 137.03,206.5 132.42,214.47C129.81,219.15 131.4,226.2 126.33,229.33C126.84,226.38 127.87,223.51 127.99,220.5C128,215.25 130.65,210.48 132.91,205.9C135.94,201.45 137.73,196.34 140.67,191.84C141.32,186.46 143.09,181.26 143.35,175.82C144.02,170.57 146.46,165.78 147.91,160.73C147.28,160.83 146.01,161.02 145.38,161.11C143.82,163.98 141.91,166.73 141.13,169.93C140.4,173.95 136.78,176.39 134.61,179.6C132.3,182.23 131.21,185.56 129.97,188.76C126.08,196.86 120.87,204.28 117.37,212.57C112.67,218.48 110,225.68 105.92,232.02C105.42,232.39 104.42,233.14 103.91,233.51C106.7,223.4 111.92,214.15 117.46,205.31C120.07,201.54 119.59,196.31 122.94,192.96C124.29,191.62 127.28,190.91 125.93,188.49C129.22,182.62 133.24,177.12 135.79,170.86C138.43,165.3 141.66,160.07 145.13,154.99C143.48,155.26 141.6,155.13 140.27,156.31C135.98,159.72 133.05,164.65 128.29,167.49C124.27,169.99 119.69,172 116.92,176.03C113.87,180.44 111.81,185.43 109.56,190.28C107.96,194.18 104.25,196.57 102.2,200.19C101.2,200.49 100.21,200.8 99.21,201.1C105.52,192.87 109.38,183.15 114.14,174.02C115.24,173.29 116.46,172.77 117.65,172.21C117.28,172.03 116.53,171.66 116.16,171.48C119.13,168.96 122.37,166.78 125.85,165.01C129.61,163.21 131.94,159.62 134.85,156.79C136.35,155.12 138.62,153.57 138.34,151.03C132.45,155.23 126.03,158.73 120.79,163.78C114.9,169.16 108.04,173.23 101.13,177.11C91.47,183.23 82.82,190.72 73.53,197.36C66.69,200.98 61.8,207.25 55.08,211.05C51.46,213 48.69,216.51 44.5,217.29C46.86,214.2 50.03,211.91 52.84,209.25C55.99,208.9 57.78,206.02 60.28,204.43C65.8,201.25 69.44,195.59 75.38,193.03C85.52,187.63 91.16,176.37 101.87,171.82C105.22,170.26 107.83,167.61 110.59,165.24C110.77,165.64 111.13,166.46 111.31,166.86C114.13,163.19 117.36,159.71 121.73,157.9C125.24,155.54 129.29,153.46 131.5,149.73C128.77,149.41 126.63,151.47 124.16,152.22C119.34,153.79 114.03,153.9 109.55,156.48C103.67,159.91 98.52,164.72 91.94,166.85C87.43,168.41 82.32,168.46 78.34,171.37C74.62,174 71.34,177.36 66.95,178.91C72.98,171.27 81.86,165.84 91.56,164.55C91.5,163.99 91.43,163.44 91.36,162.89C95.92,161.79 98.94,157.85 103.21,156.12C106.54,154.75 109.56,152.43 113.23,152.05C116.88,151.68 120.12,149.83 123.5,148.56C125.78,147.55 128.25,146.84 130.29,145.37C132.18,143.52 133.51,141.19 135.01,139.03C130.85,139.67 126.57,139.96 122.62,141.51C118.23,143.19 113.86,145.07 109.19,145.82C102.04,147.03 96.03,151.52 88.97,153.02C80.92,155.75 73.06,159.08 64.85,161.36C58.64,162.92 52.99,166.15 46.69,167.44C40.64,169.27 34.49,171.04 28.9,174.04C28.63,173.55 28.08,172.58 27.81,172.09C30.12,170.85 32.58,169.92 35.13,169.31C40.65,168 44.76,163.67 50.07,161.81C55.53,159.96 61.23,158.94 66.91,157.99C73.86,157.13 79.37,152.34 85.77,149.93C89.33,148.75 93.24,149.01 96.73,147.55C100.05,146.16 103.5,145.11 106.81,143.71C110.76,141.96 115.63,142.19 118.63,138.63C118.89,139.24 119.16,139.86 119.42,140.49C121.23,136.19 126.15,135.78 130.17,135.45C130.09,134.87 129.94,133.7 129.87,133.12C124.87,134.39 119.45,135.43 114.5,133.36C110.29,131.55 105.52,130.3 101.1,132.26C101.06,131.85 100.98,131.03 100.94,130.62C95.65,132.45 90.33,134.38 84.81,135.4C77.91,136.18 70.97,135.35 64.06,135.17C61.23,134.98 58.08,135.43 55.74,133.47C62.09,132.38 68.57,132.55 74.97,131.9C79.35,132.42 83.7,131.46 87.71,129.68C94.21,126.8 101.57,126.96 108.44,128.21C108.47,128.55 108.54,129.23 108.57,129.56C111.25,128.5 113.83,130.09 116.3,130.98C116.39,130.46 116.57,129.42 116.66,128.9C118.3,129.94 119.92,131.01 121.54,132.07C123.11,131.54 124.68,131.01 126.26,130.5C126.28,129.6 126.29,128.7 126.3,127.81C124.62,128.05 122.87,128.41 121.23,127.8C116.61,126.4 112.1,124.55 107.32,123.72C100.86,122.69 94.49,121.09 88.3,118.99C83.58,117.28 78.58,116.19 73.54,116.77C63.5,117.46 54.52,112.31 45.01,110.07C39.66,109.15 34.28,108.31 29.06,106.75C29.18,106.14 29.42,104.94 29.54,104.34C35.38,104.15 41.06,105.91 46.35,108.24C48.91,109.51 51.76,108.19 54.43,108.81C58.8,109.86 62.8,112.52 67.43,112.4C71.24,112.26 74.98,113.05 78.68,113.84C83.77,114.95 89.23,113.89 94.1,116.05C98.99,118.4 105.06,117.01 109.44,120.64C110.84,122.13 112.68,121.86 114.45,121.39C116.67,122 118.71,123.31 121.09,123.34C124.78,123.34 127.81,125.57 131.05,127.02C128.89,122.66 123.69,122.1 119.78,120.06C112.66,116.49 105.29,113.43 98.38,109.44C95.58,107.75 92.2,107.94 89.2,106.81C84.33,104.97 78.91,104.43 74.53,101.45C71.45,99.38 68.31,97.42 65.04,95.68C65.02,95.04 64.96,93.75 64.93,93.11C71.66,96.81 78.16,101.73 86.02,102.56C95.37,103.95 103.46,109.09 111.95,112.85C116.34,114.4 120.63,116.25 125.17,117.35C127.69,117.92 130.33,120.56 132.61,118.38C125.86,113.81 119.47,108.71 112.55,104.39C109.15,102.18 106.43,99.08 102.92,97.02C100.02,95.29 96.6,94.79 93.63,93.22C91.7,92 90.46,89.97 88.61,88.66C81.38,84.32 74.45,79.44 67.9,74.13C66.38,73.07 65.44,71.47 64.82,69.76C72.5,71.33 77.07,78.52 84.03,81.61C90.8,84.02 96.04,89.2 101.82,93.29C104.14,94.71 107.2,94.64 109.13,96.74C111.57,99.15 114.29,101.26 117.49,102.56C123.82,105.37 127.9,113.01 135.29,113.31C131.85,109.22 128,105.5 124.77,101.24C116.3,91.33 103.94,85.32 96.71,74.26C92.93,67.78 87.8,62.24 83.63,56.03C87.19,58.07 91.18,60.08 93.09,63.95C97.58,72.38 104.07,80.02 112.83,84.18C122.34,88.8 125.94,99.7 134.17,105.81C136,107.58 138.4,108.43 140.89,108.73C139.92,103.9 135.77,100.89 132.69,97.4C130.38,94.97 129.83,91.52 128.06,88.77C124.4,84.09 121.4,78.96 118,74.1C115.49,69.39 111.04,66.17 108.4,61.54C105.43,57.85 103.36,53.47 99.82,50.23C92.59,42.81 88.88,32.94 82.95,24.59C86.54,24.15 87.61,28.87 90.44,30.41C94.32,32.48 93.45,37.68 96.71,40.27C99.66,42.79 100.9,46.64 103.75,49.24C106.05,51.34 107.4,54.17 108.64,56.97C108.29,56.99 107.59,57.05 107.24,57.07C109.96,58.77 112.42,60.84 114.79,62.99C114.1,63.07 112.71,63.24 112.02,63.33C115.2,64.91 117.58,67.47 119.23,70.59C124.69,76.94 130.24,83.31 134.41,90.62C136.74,93.83 137.93,97.91 141.26,100.32C140.73,97.62 139.93,94.99 138.87,92.45C136.17,85.96 135.08,78.91 132.44,72.4C127.11,63.58 119.68,56.04 115.61,46.45C113.22,40.63 110.46,34.89 109.02,28.73C114.17,34.95 115.32,43.49 120.2,49.92C124.28,55.19 128.9,60.09 132.3,65.86C136.47,73.31 138.19,81.78 141.19,89.7C144.37,94.12 146.08,99.76 151.16,102.51C151.67,101.2 152.32,99.77 151.83,98.35C150.62,94.01 148.45,90.02 146.46,85.99C146.67,85.5 146.87,85 147.06,84.5C143.83,79.84 143.76,73.86 141.21,68.84C141.07,62.13 137.84,56.12 136.33,49.69C135.05,44.7 131.43,40.67 130.49,35.57C129.24,29.11 126.39,23.02 125.75,16.44C125.49,15.37 126.05,14.45 126.75,13.7C127.81,17.1 128.58,20.62 130.24,23.81C131.8,27.21 134.01,30.74 133.37,34.64C132.73,37.63 135.5,39.83 136.37,42.47C139.06,49.67 141.22,57.08 144.36,64.11C145.83,67.87 145.66,72 146.7,75.87C147.84,79.98 149.68,83.83 151.34,87.74C153.06,91.76 153.55,96.43 156.78,99.66C157.69,98.09 159.55,96.63 159.07,94.62C158.15,89.47 156.63,84.45 155.97,79.26C156.31,78.85 157,78.05 157.34,77.65C157.04,77.17 156.77,76.69 156.53,76.19C156.66,74.73 156.73,73.26 156.54,71.81C156.13,67.7 159.19,64.16 158.88,60.06C158.74,56.41 158.63,52.74 157.97,49.14C156.86,43.02 157.29,36.77 157.57,30.6C158.53,31.09 159.48,31.59 160.44,32.09C160.13,37.17 160.17,42.28 161.13,47.3C162.02,51.44 160.91,55.63 161.36,59.8C161.91,63.95 159.45,67.68 159.32,71.77C159.18,74.94 159.82,78.07 160.23,81.2C160.77,85.5 163.91,88.96 164.41,93.27C164.7,95.97 164.51,98.69 164.49,101.39C165.47,100.58 166.21,99.46 166.4,98.19C167.67,91.21 168.2,84.06 170.29,77.25C171.62,72.63 171.36,67.69 173.13,63.17C174.9,58.89 174.36,54.16 175.69,49.78C177.95,41.39 179.65,32.84 182.62,24.67M153.89,107.02C147.41,109.21 140.86,113.28 138.06,119.79C135.56,127.84 135,136.91 138.85,144.65C137.4,144.48 135.98,144.13 134.66,143.52C134.2,146.19 132.58,148.46 131.88,151.06C134.71,149.51 135.78,146.12 138.69,144.66C142.08,148.18 145,152.73 149.99,154.08C153.84,155.14 157.71,156.8 161.78,156.39C163.33,156.26 164.8,156.82 166.32,157C174.05,154.31 181.22,149.06 185.02,141.66C186.08,138.21 186.95,134.66 187.34,131.06C185.59,127.04 186.1,122.26 183.27,118.65C179.81,114.4 175.97,109.86 170.56,108.15C165.27,106.23 159.4,105.94 153.89,107.02Z" style="fill:rgb(255,250,234);fill-rule:nonzero;"/>
                <path d="M225,30.24C228.38,25.7 230.46,19.73 235.57,16.81C235.05,19.06 234.25,21.23 233.33,23.35C232.47,23.63 231.62,23.91 230.77,24.19C230.91,24.52 231.19,25.17 231.33,25.5C230.2,27.17 229.09,28.86 228.02,30.57C227.01,30.47 226,30.35 225,30.24Z" style="fill:rgb(255,250,234);fill-rule:nonzero;"/>
                <path d="M159.64,22.93C160.06,22.93 160.89,22.94 161.31,22.95C161.03,25.7 160.8,28.46 160.48,31.21C157.49,29.25 159.1,25.71 159.64,22.93Z" style="fill:rgb(255,250,234);fill-rule:nonzero;"/>
                <path d="M217.34,40.18C219.65,36.37 222.89,33.21 226.4,30.5C226.7,32.67 224.97,34.14 223.85,35.75C222.51,37.52 221.67,39.59 220.57,41.49C217.6,46.34 212.17,49.51 210.44,55.12C209.58,57.75 207.38,59.56 205.92,61.83C204.47,64.16 204.32,67.3 201.99,69.04C200.47,70.38 198.95,71.77 198.06,73.63C196.25,77.22 193.59,80.25 190.88,83.18C190,82.72 189.12,82.26 188.25,81.8C191.84,78.46 194.13,74.06 197.29,70.36C198.65,68.5 200.64,66.9 201.04,64.51C205.61,55.83 212.81,48.87 217.34,40.18Z" style="fill:rgb(255,250,234);fill-rule:nonzero;"/>
                <path d="M294.54,102.77C295.54,102.48 296.22,103.35 297.1,103.59C291.66,104.73 286.21,105.81 280.81,107.17C281,106.59 281.36,105.42 281.54,104.84C285.87,104.14 290.15,103.07 294.54,102.77Z" style="fill:rgb(255,250,234);fill-rule:nonzero;"/>
                <path d="M219.59,151.36C225.51,152.62 231.5,154.08 236.75,157.22C242.64,160.7 249.22,162.76 255.96,163.75C256.03,164.26 256.16,165.28 256.23,165.79C249.22,163.74 241.68,162.63 235.53,158.43C230.98,155.32 225.11,155.86 220.26,153.55C220.09,153 219.76,151.91 219.59,151.36Z" style="fill:rgb(255,250,234);fill-rule:nonzero;"/>
                <path d="M24.51,172.61C25.98,171.88 27.15,173.43 28.38,173.99C24.47,175.48 20.5,176.84 16.41,177.75C18.31,175 21.5,173.73 24.51,172.61Z" style="fill:rgb(255,250,234);fill-rule:nonzero;"/>
                <path d="M8.53,180.83C10.03,177.75 13.49,177.05 16.57,176.67C15.12,179.75 11.43,180.05 8.53,180.83Z" style="fill:rgb(255,250,234);fill-rule:nonzero;"/>
                <path d="M278.29,197.22C281.3,195.73 278.37,200.56 278.29,197.22Z" style="fill:rgb(255,250,234);fill-rule:nonzero;"/>
                <path d="M83.28,199.23C83.79,199.73 83.79,199.73 83.28,199.23Z" style="fill:rgb(255,250,234);fill-rule:nonzero;"/>
                <path d="M149.59,203.88C150.26,203.86 151.61,203.82 152.28,203.8C152.22,207.28 151.59,210.82 151.52,214.35C151.47,218.64 149.05,222.45 148.92,226.75C148.7,234.31 145.32,241.21 143.96,248.57C143.53,246.84 142.72,245.06 143.35,243.27C144.62,238.12 145.59,232.91 146.77,227.74C147.82,223.54 146.78,219.08 148.26,214.96C149.57,211.42 149.52,207.6 149.59,203.88Z" style="fill:rgb(255,250,234);fill-rule:nonzero;"/>
                <path d="M36.6,223.31C38.35,220.59 40.82,218.51 43.55,216.82C43.19,220.53 40.09,222.8 36.6,223.31Z" style="fill:rgb(255,250,234);fill-rule:nonzero;"/>
                <path d="M192.73,219.72C197.07,221.33 197.97,226.17 199.07,230.11C199.97,234.18 203.47,237.03 204.26,241.14C197.55,235.76 197.03,226.64 192.73,219.72Z" style="fill:rgb(255,250,234);fill-rule:nonzero;"/>
                <path d="M235.61,220.7C240.22,224.46 244.89,228.42 248.36,233.28C242.64,231.1 238.53,225.88 235.61,220.7Z" style="fill:rgb(255,250,234);fill-rule:nonzero;"/>
                <path d="M34.41,223.38C37.25,223.19 34.33,227.54 32.61,226.34C31.8,225.13 33.29,223.71 34.41,223.38Z" style="fill:rgb(255,250,234);fill-rule:nonzero;"/>
                <path d="M167.36,229.27C168.58,228.12 170.71,230.14 169.69,231.44C168.46,232.57 166.32,230.57 167.36,229.27Z" style="fill:rgb(255,250,234);fill-rule:nonzero;"/>
                <path d="M102.39,235.18C104.75,234.32 104.11,238.4 102.13,238.11C100.65,237.77 101.31,235.61 102.39,235.18Z" style="fill:rgb(255,250,234);fill-rule:nonzero;"/>
                <path d="M100.23,238.91C103.98,238.3 100.21,243.67 99.29,240.18C99.52,239.86 100,239.23 100.23,238.91Z" style="fill:rgb(255,250,234);fill-rule:nonzero;"/>
                <path d="M98.09,243.2C100.3,242.74 100.07,246.79 98.03,246.54C96.54,246.09 96.68,243.65 98.09,243.2Z" style="fill:rgb(255,250,234);fill-rule:nonzero;"/>
            </g>
        </g>
    </g>
</svg>
