<?xml version="1.0" encoding="UTF-8" standalone="no"?>
<!DOCTYPE svg PUBLIC "-//W3C//DTD SVG 1.1//EN" "http://www.w3.org/Graphics/SVG/1.1/DTD/svg11.dtd">
<svg width="100%" height="100%" viewBox="0 0 600 130" version="1.1" xmlns="http://www.w3.org/2000/svg" xmlns:xlink="http://www.w3.org/1999/xlink" xml:space="preserve" xmlns:serif="http://www.serif.com/" style="fill-rule:evenodd;clip-rule:evenodd;stroke-linecap:round;stroke-linejoin:round;stroke-miterlimit:2;">
    <g transform="matrix(0.527974,0,0,0.114854,54.2229,2.7245)">
        <rect x="-154.564" y="-23.721" width="1220.25" height="1131.87" style="fill:rgb(22,22,22);"/>
    </g>
    <g transform="matrix(1,0,0,1,-95.7195,-275.797)">
        <path d="M260.327,291.797L260.328,291.797L260.328,389.797L260.327,389.797L255.578,391.097L255.578,391.897L267.578,391.897L267.578,391.097L262.829,389.797L262.828,389.797L262.828,291.797L262.829,291.797L267.578,290.497L267.578,289.697L255.578,289.697L255.578,290.497L260.327,291.797Z" style="fill:rgb(255,250,234);"/>
    </g>
    <g transform="matrix(1,0,0,1,-65.2294,-276.879)">
        <g transform="matrix(1,0,0,0.9,0,33.3545)">
            <text x="272.088px" y="333.545px" style="font-family:'ViaodaLibre-Regular', 'Viaoda Libre';font-size:50px;fill:rgb(255,250,234);stroke:rgb(255,250,234);stroke-width:1.75px;">A<tspan x="312.838px 352.238px 387.938px 412.188px 443.688px 482.938px 525.888px 561.588px " y="333.545px 333.545px 333.545px 333.545px 333.545px 333.545px 333.545px 333.545px ">RTIFACTS</tspan></text>
        </g>
        <g transform="matrix(1,0,0,0.9,0,38.3545)">
            <text x="272.088px" y="383.545px" style="font-family:'ViaodaLibre-Regular', 'Viaoda Libre';font-size:50px;fill:rgb(255,250,234);">R<tspan x="312.988px 351.488px 394.438px 440.438px 481.338px 525.538px 549.788px 592.888px 637.338px " y="383.545px 383.545px 383.545px 383.545px 383.545px 383.545px 383.545px 383.545px 383.545px ">ECORDINGS</tspan></text>
        </g>
    </g>
    <g id="_40393.svg" serif:id="40393.svg" transform="matrix(0.0969326,0,0,0.0969326,62.8214,65)">
        <g transform="matrix(1,0,0,1,-640,-640)">
            <g transform="matrix(0.1,0,0,-0.1,0,1280)">
                <path d="M6095,12794C4610,12715 3227,12148 2137,11171C1510,10609 1023,9966 649,9207C307,8512 102,7775 23,6955C-1,6703 -1,6097 23,5845C104,5006 314,4262 671,3548C977,2936 1344,2421 1820,1936C2153,1596 2467,1333 2827,1092C3743,479 4723,132 5845,23C6097,-1 6755,-1 7025,24C7666,82 8182,192 8735,388C10720,1092 12164,2747 12635,4859C12702,5161 12749,5480 12782,5850C12801,6071 12798,6701 12777,6930C12727,7468 12628,7941 12466,8425C11980,9870 11003,11090 9695,11882C8865,12385 7954,12682 6960,12775C6803,12790 6248,12802 6095,12794ZM7125,12375C7370,12350 7434,12341 7631,12301C8036,12219 8352,12138 8467,12087C8510,12068 8563,12047 8585,12040C8635,12024 8912,11912 9005,11870C9043,11853 9088,11828 9105,11816C9121,11803 9160,11780 9190,11765C9220,11750 9263,11723 9285,11705C9307,11688 9347,11659 9374,11641C9433,11602 9516,11533 9544,11500C9556,11487 9633,11406 9716,11320C9897,11135 9970,11047 9970,11017C9970,10993 9988,10962 10025,10920C10038,10906 10051,10881 10055,10863C10063,10825 10099,10799 10177,10777C10207,10768 10251,10743 10284,10716C10365,10650 10443,10599 10595,10512C10681,10463 10758,10410 10807,10365C10915,10268 11104,10064 11252,9885C11321,9803 11385,9728 11394,9720C11404,9712 11435,9672 11463,9630C11491,9589 11534,9528 11558,9495C11582,9462 11611,9417 11622,9395C11633,9373 11670,9312 11705,9260C11740,9208 11803,9100 11845,9020C11888,8940 11949,8830 11981,8775C12129,8519 12220,8262 12320,7815C12408,7419 12436,7193 12470,6580C12476,6478 12482,6372 12485,6345C12491,6284 12474,5952 12460,5820C12448,5714 12369,5347 12339,5255C12279,5075 12123,4825 12014,4733C11989,4712 11951,4678 11929,4658C11876,4609 11854,4603 11821,4629C11807,4641 11773,4665 11747,4682C11718,4701 11700,4720 11702,4729C11704,4738 11730,4761 11760,4781C11862,4849 12078,5089 12150,5214C12233,5360 12327,5760 12355,6084C12364,6188 12368,6289 12365,6309C12361,6329 12354,6417 12349,6505C12333,6822 12321,6945 12296,7049C12283,7107 12269,7180 12265,7210C12262,7240 12255,7279 12250,7295C12245,7312 12231,7388 12219,7465C12198,7609 12164,7730 12105,7883C12086,7931 12070,7976 12070,7982C12070,7988 12059,8018 12045,8049C12032,8080 12003,8150 11981,8205C11959,8260 11925,8343 11905,8390C11841,8539 11760,8731 11709,8860C11651,9003 11588,9113 11514,9203C11486,9237 11441,9303 11414,9350C11388,9397 11349,9453 11329,9476C11309,9499 11287,9527 11280,9540C11267,9563 11132,9731 11030,9850C10999,9886 10963,9930 10950,9949C10908,10010 10821,10102 10780,10129C10759,10143 10708,10185 10668,10221C10628,10258 10576,10297 10553,10309C10529,10321 10466,10370 10412,10418C10272,10543 10147,10631 10017,10695C9942,10731 9936,10733 9867,10727C9782,10720 9724,10731 9670,10765C9648,10779 9625,10790 9619,10790C9613,10790 9591,10775 9569,10757L9530,10723L9392,10717C9204,10708 9148,10690 8959,10579C8882,10533 8753,10404 8721,10342C8697,10295 8666,10158 8649,10020C8637,9931 8641,9770 8659,9515C8665,9433 8674,9187 8680,8970C8685,8753 8693,8556 8698,8533C8703,8510 8704,8468 8699,8441C8687,8364 8592,8206 8477,8071C8423,8007 8351,7923 8318,7883C8278,7835 8246,7807 8224,7800C8170,7782 8060,7640 8060,7588C8060,7553 8101,7518 8176,7490C8201,7480 8209,7486 8324,7598C8452,7723 8590,7849 8755,7992C8915,8129 9168,8372 9197,8415C9211,8437 9244,8480 9270,8510C9319,8569 9448,8740 9471,8778C9479,8790 9510,8821 9541,8845C9572,8870 9611,8910 9628,8934L9657,8979L9665,9332C9669,9563 9677,9710 9686,9758C9694,9799 9700,9862 9700,9899C9700,9938 9705,9971 9712,9978C9719,9985 9749,9990 9780,9990C9810,9990 9890,9997 9957,10006C10024,10015 10090,10020 10103,10016C10119,10012 10146,9983 10181,9933C10210,9890 10275,9807 10326,9749C10376,9691 10435,9617 10457,9584C10479,9552 10522,9488 10553,9443C10736,9181 10916,8769 10956,8525C10972,8423 10978,8210 10964,8189C10956,8176 10842,8184 10826,8200C10821,8205 10823,8218 10833,8233C10847,8255 10848,8274 10835,8431C10827,8527 10816,8628 10811,8655C10798,8717 10774,8805 10767,8817C10764,8822 10757,8854 10751,8888C10742,8947 10672,9111 10651,9124C10646,9128 10630,9155 10617,9184C10591,9241 10498,9384 10480,9395C10474,9399 10459,9418 10446,9438C10418,9482 10255,9669 10229,9688C10218,9695 10187,9726 10159,9755C10106,9811 10038,9850 9959,9870C9923,9879 9905,9878 9856,9863C9805,9847 9794,9839 9776,9805C9756,9767 9755,9744 9749,9415C9745,9223 9738,9045 9732,9020C9714,8940 9679,8861 9645,8817C9626,8794 9594,8750 9574,8720C9553,8690 9519,8643 9497,8616C9476,8589 9449,8548 9438,8526C9407,8464 9353,8397 9270,8318C9229,8278 9150,8199 9095,8143C9000,8046 8956,8006 8682,7773C8620,7721 8557,7662 8542,7644C8527,7625 8511,7610 8507,7610C8494,7610 8428,7558 8397,7523C8381,7505 8339,7469 8302,7443C8245,7403 8146,7325 8090,7275C8082,7268 8058,7238 8037,7208C7954,7092 7950,7082 7945,7008C7942,6969 7934,6915 7926,6886C7903,6807 7889,6704 7884,6595C7882,6540 7875,6471 7870,6441C7864,6411 7860,6361 7860,6331C7860,6268 7836,6185 7783,6060C7713,5895 7674,5826 7639,5806C7620,5795 7586,5770 7562,5749C7538,5728 7496,5704 7469,5695C7425,5680 7419,5674 7410,5639C7404,5617 7380,5578 7357,5552C7334,5525 7305,5491 7293,5477C7280,5462 7265,5450 7259,5450C7253,5450 7231,5436 7210,5420C7142,5366 7142,5386 7208,5467C7297,5574 7330,5650 7294,5664C7244,5683 7210,5660 7194,5595C7187,5565 7163,5530 7149,5530C7128,5530 7110,5565 7110,5604C7110,5690 7117,5703 7188,5751C7225,5775 7287,5818 7325,5846C7364,5874 7416,5907 7442,5919C7496,5945 7678,6128 7709,6188C7723,6216 7732,6264 7740,6356C7752,6506 7774,6644 7801,6751C7826,6852 7826,6885 7798,6904C7767,6926 7743,6924 7726,6898C7701,6858 7672,6700 7650,6490C7639,6377 7627,6273 7624,6259C7618,6229 7557,6145 7494,6078C7463,6046 7432,6026 7397,6014C7360,6002 7326,5978 7274,5929C7217,5875 7102,5800 7075,5800C7059,5800 7074,5822 7095,5830C7133,5844 7201,5920 7198,5944C7196,5957 7179,5973 7155,5986C7090,6020 7094,6053 7177,6165C7222,6225 7247,6248 7290,6270C7361,6307 7484,6411 7503,6453C7511,6470 7521,6521 7525,6565C7535,6677 7554,6749 7606,6863C7648,6956 7650,6963 7636,6985C7616,7015 7584,7025 7563,7008C7546,6994 7503,6905 7464,6800C7450,6764 7435,6695 7430,6646C7414,6483 7327,6362 7215,6345C7189,6342 7166,6340 7164,6342C7162,6345 7190,6378 7225,6417C7261,6456 7290,6496 7290,6506C7290,6516 7279,6535 7265,6550L7241,6575L7251,6705C7263,6873 7276,6943 7305,7001C7333,7056 7595,7310 7693,7378C7727,7402 7772,7432 7792,7446C7817,7464 7842,7497 7869,7550C7909,7625 8055,7830 8070,7830C8074,7830 8111,7861 8152,7899C8193,7936 8247,7981 8271,7998C8295,8015 8361,8075 8417,8132C8508,8224 8523,8244 8555,8320C8639,8516 8639,8595 8555,9045C8516,9259 8509,9882 8545,10000C8555,10032 8560,10070 8557,10094C8554,10118 8557,10144 8565,10159C8572,10173 8590,10234 8604,10293C8618,10353 8642,10422 8657,10448C8708,10540 8838,10657 8961,10723C9049,10771 9074,10777 9240,10794C9366,10806 9392,10812 9440,10838C9470,10854 9497,10875 9498,10885C9504,10912 9471,11000 9432,11065C9411,11098 9387,11142 9378,11164C9354,11216 9088,11477 8995,11540C8954,11567 8919,11594 8915,11599C8912,11604 8885,11618 8856,11629C8826,11640 8772,11669 8734,11694C8697,11719 8641,11749 8611,11761C8580,11772 8550,11786 8544,11791C8538,11796 8508,11809 8477,11819C8406,11844 8350,11870 8329,11887C8320,11894 8276,11914 8231,11930C8185,11947 8136,11966 8122,11974C8107,11981 8050,12000 7995,12015C7940,12030 7868,12053 7835,12065C7628,12143 7509,12154 6934,12146C6698,12142 6451,12137 6385,12134C6315,12131 6238,12133 6200,12140C6143,12150 5792,12255 5781,12266C5767,12279 5833,12302 5990,12341C6009,12346 6122,12357 6240,12365C6358,12374 6460,12383 6465,12385C6493,12395 7001,12388 7125,12375ZM5352,12284C5400,12265 5445,12250 5451,12250C5457,12250 5499,12239 5544,12226C5588,12213 5654,12194 5690,12184C5754,12167 5801,12150 5913,12104C5995,12070 6150,12032 6257,12020C6318,12013 6403,12013 6516,12020C6734,12033 7239,12033 7447,12020C7574,12012 7626,12005 7686,11985C7728,11971 7773,11960 7786,11960C7799,11960 7832,11940 7862,11915C7891,11891 7935,11858 7960,11844C8024,11805 8047,11782 8069,11736C8100,11668 8103,11632 8079,11594C8068,11575 8048,11557 8035,11554C8022,11551 7946,11565 7863,11586C7726,11621 7704,11624 7565,11624C7436,11625 7405,11622 7344,11603C7230,11567 7168,11482 7217,11428C7241,11401 7260,11406 7314,11450C7340,11472 7373,11490 7385,11490C7414,11490 7501,11422 7528,11377C7540,11359 7554,11311 7560,11271C7571,11190 7586,11156 7624,11121C7638,11107 7650,11092 7650,11087C7650,11065 7395,11110 7355,11139C7350,11143 7305,11157 7257,11170C7204,11184 7142,11209 7103,11233C7033,11275 6977,11288 6788,11309C6647,11325 6572,11323 6462,11299C6304,11266 6310,11270 6199,11142C6082,11006 6070,10986 6092,10964C6117,10939 6165,10955 6190,10995C6215,11035 6320,11134 6359,11154C6432,11192 6510,11202 6690,11197C6879,11191 6911,11185 7054,11126C7191,11069 7397,11004 7496,10986C7545,10977 7607,10965 7633,10960C7660,10954 7713,10950 7752,10950C7815,10950 7830,10954 7908,10995C8019,11052 8061,11087 8099,11155C8128,11206 8130,11216 8130,11309L8130,11408L8172,11398C8261,11378 8381,11312 8451,11245C8488,11209 8524,11180 8532,11180C8558,11180 8629,11109 8650,11063C8676,11003 8675,10968 8646,10906C8632,10878 8610,10829 8596,10797C8576,10751 8564,10736 8536,10725C8516,10717 8496,10701 8490,10690C8476,10663 8404,10663 8330,10690C8243,10722 8150,10830 8150,10898C8150,10929 8187,11005 8220,11040C8242,11064 8256,11070 8290,11070C8342,11070 8363,11059 8389,11016C8415,10974 8415,10950 8389,10916C8364,10884 8329,10882 8288,10912L8257,10934L8233,10906C8221,10891 8210,10876 8210,10872C8210,10851 8251,10802 8282,10786C8317,10767 8319,10767 8365,10785C8391,10795 8430,10820 8451,10841C8489,10879 8490,10882 8490,10953C8490,10993 8483,11050 8475,11078C8461,11123 8453,11133 8418,11151C8391,11165 8349,11174 8299,11177C8226,11182 8220,11181 8201,11159C8190,11146 8163,11113 8140,11087C8090,11027 8075,10999 8062,10935C8050,10878 8056,10808 8077,10766C8097,10727 8168,10652 8210,10625C8229,10613 8271,10595 8302,10586C8335,10577 8364,10562 8369,10551C8378,10535 8370,10528 8303,10495C8261,10474 8208,10441 8186,10420C8133,10373 8126,10371 8055,10382C7989,10392 7816,10478 7745,10535C7723,10553 7667,10593 7620,10623C7573,10654 7501,10704 7460,10734C7381,10791 7209,10900 7196,10900C7192,10900 7157,10919 7119,10941C7080,10964 7006,10997 6954,11015C6902,11033 6856,11050 6853,11054C6849,11058 6825,11070 6800,11081C6741,11108 6523,11119 6428,11101C6393,11094 6355,11087 6344,11084C6318,11079 6290,11017 6290,10965C6290,10931 6332,10836 6352,10824C6358,10820 6414,10814 6477,10809C6540,10805 6594,10799 6598,10796C6601,10792 6598,10784 6591,10777C6583,10769 6544,10765 6466,10766C6351,10768 6282,10778 6170,10810C6134,10820 6087,10834 6064,10839C6041,10845 6003,10865 5979,10883C5955,10901 5928,10919 5920,10922C5896,10931 5689,11107 5647,11153C5593,11213 5532,11303 5504,11365C5485,11405 5477,11447 5470,11531C5465,11593 5463,11647 5466,11652C5477,11670 5505,11658 5580,11603C5745,11480 5767,11466 5845,11429C5889,11409 5953,11386 5986,11379C6043,11368 6055,11368 6126,11389C6232,11420 6247,11431 6281,11506C6305,11558 6310,11583 6310,11645C6310,11736 6295,11775 6234,11847C6173,11918 6158,11927 6077,11940C6020,11949 5999,11948 5950,11934C5918,11925 5882,11908 5871,11896C5849,11872 5830,11794 5830,11724C5830,11685 5834,11678 5887,11631C5971,11556 6061,11548 6100,11613C6134,11668 6118,11760 6074,11760C6052,11760 6020,11722 6020,11695C6020,11647 5974,11669 5954,11726C5924,11812 5942,11846 6013,11838C6110,11827 6182,11769 6200,11687C6231,11550 6144,11472 5991,11499C5953,11506 5913,11518 5903,11525C5893,11533 5876,11540 5865,11540C5838,11540 5662,11658 5558,11745C5438,11846 5308,11985 5224,12102C5145,12213 5095,12298 5104,12307C5116,12320 5178,12328 5220,12323C5245,12320 5304,12303 5352,12284ZM5263,11879C5275,11873 5313,11840 5347,11807C5407,11748 5409,11745 5392,11727C5377,11711 5375,11685 5375,11541L5375,11374L5417,11288C5513,11095 5666,10938 5857,10838C6138,10691 6231,10667 6515,10666C6740,10665 6828,10687 6985,10785C7049,10825 7062,10830 7081,10820C7093,10813 7134,10797 7173,10784C7212,10771 7254,10753 7268,10744L7292,10728L7268,10703C7256,10689 7220,10665 7190,10650C7160,10635 7127,10613 7117,10602C7100,10583 7083,10575 6975,10532C6873,10491 6538,10479 6310,10508C6185,10524 6046,10556 5950,10591C5903,10608 5852,10626 5835,10632C5819,10638 5790,10656 5772,10672C5753,10688 5710,10714 5676,10730C5608,10762 5415,10919 5405,10950C5402,10961 5384,10982 5366,10997C5319,11037 5283,11098 5240,11216C5201,11321 5201,11320 5173,11635C5168,11695 5185,11785 5215,11858C5231,11894 5232,11895 5263,11879ZM4936,11717C5082,11702 5094,11695 5088,11628C5085,11601 5080,11577 5076,11573C5072,11569 5049,11571 5025,11578C4956,11596 4577,11604 4410,11591C4262,11579 3994,11528 3845,11484C3801,11471 3745,11456 3720,11451C3695,11445 3637,11427 3590,11409C3543,11392 3467,11366 3420,11350C3265,11300 3105,11238 3070,11216C3051,11203 3014,11181 2988,11167C2963,11152 2920,11124 2893,11103C2867,11083 2836,11061 2825,11056C2814,11050 2738,10991 2657,10925C2576,10859 2488,10789 2462,10770C2401,10725 2162,10477 2128,10424C2114,10402 2067,10355 2024,10319C1981,10284 1935,10243 1921,10228C1907,10212 1859,10163 1814,10118C1770,10072 1707,10001 1675,9960C1610,9877 1541,9797 1477,9732C1454,9708 1415,9661 1390,9626C1365,9591 1316,9523 1281,9475C1246,9427 1199,9347 1177,9297C1155,9246 1126,9189 1114,9170C1101,9151 1078,9099 1061,9055C1045,9011 1018,8943 1001,8903C984,8863 970,8819 970,8805C970,8791 954,8740 934,8692C842,8473 783,8262 769,8107C764,8048 751,7944 740,7877C699,7629 682,7368 687,7055C690,6840 695,6754 706,6721C720,6678 719,6675 694,6637L668,6597L743,6526C829,6445 852,6405 854,6338C856,6279 881,6243 941,6213C1038,6164 1158,6117 1220,6104C1256,6096 1314,6083 1350,6075C1446,6053 1657,6035 1805,6035C1932,6036 1940,6037 2117,6088C2320,6147 2534,6241 2621,6310C2649,6332 2678,6350 2685,6350C2693,6350 2748,6370 2807,6394C3053,6495 3330,6590 3465,6619C3515,6630 3606,6655 3669,6674C3830,6725 3896,6733 4150,6734C4376,6735 4432,6730 4663,6685C4784,6662 4794,6664 4850,6716C4940,6800 4959,6854 4907,6882C4895,6888 4816,6896 4730,6901C4524,6911 4229,6964 4068,7019C4036,7030 3973,7044 3928,7050C3882,7057 3805,7072 3755,7085C3706,7098 3625,7119 3575,7131C3526,7143 3422,7172 3345,7196C3268,7219 3162,7248 3110,7259C3058,7270 2975,7289 2925,7300C2876,7311 2780,7325 2713,7332C2600,7343 2586,7342 2538,7325C2474,7303 2390,7253 2288,7178C2160,7083 2020,7009 1931,6989C1876,6977 1727,6975 1707,6986C1643,7024 1513,7237 1471,7374C1420,7541 1434,7768 1511,8010C1553,8140 1570,8178 1618,8248C1649,8294 1686,8355 1701,8383C1793,8565 1836,8626 1965,8755C2034,8824 2089,8870 2143,8900C2185,8925 2270,8979 2330,9021C2391,9063 2500,9127 2573,9164L2705,9231L2942,9270C3270,9324 3474,9379 3679,9469C3731,9492 3781,9510 3791,9510C3811,9510 3863,9453 3857,9436C3852,9420 3807,9400 3716,9374C3671,9362 3606,9340 3570,9327C3534,9314 3498,9301 3490,9298C3482,9295 3453,9285 3425,9276C3303,9233 3183,9200 3025,9166C2689,9093 2573,9062 2534,9036C2512,9022 2464,8988 2425,8961C2387,8934 2328,8895 2295,8874C2169,8795 2043,8700 2005,8655C1983,8630 1929,8567 1884,8517C1796,8417 1747,8349 1735,8311C1731,8297 1714,8265 1699,8239C1683,8214 1670,8186 1670,8178C1670,8170 1666,8160 1661,8155C1655,8149 1640,8109 1625,8065C1561,7867 1547,7759 1552,7505C1557,7270 1559,7264 1653,7168C1741,7078 1778,7061 1882,7058C1934,7057 1981,7078 2052,7132C2077,7151 2112,7172 2130,7180C2149,7188 2223,7230 2295,7273C2366,7316 2446,7357 2472,7365C2497,7372 2531,7387 2546,7397C2569,7412 2593,7415 2685,7414C2823,7413 2922,7394 3250,7310C3323,7291 3452,7268 3558,7256C3616,7249 3722,7218 3850,7170C4053,7095 4253,7057 4570,7035C4693,7027 4782,7016 4810,7006C4850,6991 4860,6991 4922,7005C5033,7030 5082,7050 5148,7097C5226,7153 5327,7210 5347,7210C5364,7210 5447,7245 5645,7336C5826,7420 5857,7436 5965,7502C6015,7532 6074,7563 6095,7570C6117,7577 6164,7598 6200,7616C6335,7683 6524,7726 6648,7716C6694,7713 6740,7705 6751,7700C6769,7690 6778,7660 6762,7660C6758,7660 6747,7639 6737,7614C6723,7575 6722,7563 6733,7541C6752,7501 6813,7476 6903,7472L6982,7468L6978,7496C6975,7526 6967,7530 6861,7559C6848,7562 6832,7573 6826,7583C6811,7608 6834,7620 6874,7609C6891,7604 6932,7595 6965,7589C7035,7577 7223,7505 7245,7483C7258,7471 7258,7465 7248,7453C7235,7436 7198,7439 7085,7464C7020,7478 7000,7476 7000,7453C7000,7446 6989,7428 6975,7415C6944,7383 6866,7380 6829,7408C6816,7419 6792,7430 6775,7434C6759,7438 6727,7461 6705,7485C6671,7522 6656,7530 6600,7541C6509,7559 6423,7555 6284,7525C6149,7496 6089,7471 6070,7435C6042,7382 6101,7364 6183,7400C6246,7428 6410,7461 6431,7450C6440,7445 6450,7424 6453,7403C6463,7343 6501,7296 6557,7276C6618,7253 6642,7227 6634,7191C6617,7120 6563,7102 6438,7125C6318,7147 6252,7173 6213,7216C6195,7235 6175,7250 6167,7250C6159,7250 6127,7262 6095,7276C6044,7299 6030,7302 5971,7296C5885,7287 5723,7244 5674,7216C5630,7192 5621,7170 5645,7146C5668,7123 5704,7126 5821,7161C5987,7210 6071,7211 6027,7162C6018,7153 6007,7133 6001,7117C5992,7094 5994,7086 6010,7070C6037,7043 6047,7045 6084,7084L6115,7118L6174,7094C6207,7081 6239,7070 6246,7070C6263,7070 6400,7007 6425,6987C6440,6975 6442,6968 6434,6960C6411,6937 6354,6946 6278,6983C6237,7003 6197,7020 6188,7020C6166,7020 6143,6990 6131,6944C6125,6921 6114,6897 6107,6892C6100,6886 6033,6877 5958,6871C5883,6866 5809,6856 5793,6848C5778,6841 5756,6817 5745,6795C5726,6759 5717,6752 5645,6728C5545,6694 5495,6693 5386,6725C5339,6739 5296,6750 5291,6750C5286,6750 5263,6734 5240,6715C5218,6696 5184,6676 5165,6671C5146,6666 5111,6647 5086,6630C5062,6612 5020,6594 4993,6589C4927,6576 4748,6588 4670,6610C4634,6620 4565,6631 4515,6635C4466,6638 4396,6646 4361,6652C4284,6665 3911,6647 3755,6624C3700,6615 3628,6605 3595,6601C3562,6596 3519,6583 3500,6572C3481,6561 3443,6547 3416,6541C3389,6534 3355,6521 3341,6511C3294,6477 3126,6399 3070,6384C3040,6376 2968,6347 2910,6321C2852,6294 2756,6256 2695,6235C2635,6215 2575,6192 2563,6184C2551,6176 2536,6170 2529,6170C2523,6170 2506,6162 2492,6152C2445,6119 2258,6056 2135,6031C2108,6026 2053,6010 2014,5996C1929,5967 1734,5940 1606,5940C1485,5940 1307,5957 1250,5974C1225,5982 1181,5993 1151,5999C1091,6012 993,6063 921,6120C862,6167 820,6178 798,6153C766,6116 691,5973 676,5920C657,5852 640,5637 640,5472C640,5315 665,5125 695,5043C709,5008 724,4938 730,4887C736,4836 745,4762 750,4723C755,4683 765,4629 773,4603C794,4539 798,4513 810,4396C817,4329 827,4287 840,4265C851,4247 866,4197 874,4154C902,3998 1024,3749 1139,3616C1161,3591 1207,3529 1241,3480C1275,3430 1322,3368 1345,3342C1409,3269 1432,3225 1457,3122C1482,3018 1478,3000 1433,3000C1419,3000 1383,3020 1350,3045C1302,3082 1275,3115 1212,3218C1087,3419 1004,3570 899,3785C698,4200 554,4606 451,5052C388,5325 377,5444 383,5775C388,6066 400,6173 439,6280C478,6389 550,6554 567,6572C589,6596 588,6638 567,6770C516,7078 517,7121 610,7834C670,8292 679,8336 796,8695C919,9072 1020,9274 1243,9595C1388,9803 1459,9888 1735,10185C1807,10262 1921,10390 1990,10470C2152,10660 2384,10896 2485,10975C2657,11109 2888,11257 3120,11383C3405,11536 3877,11693 4167,11730C4258,11742 4783,11733 4936,11717ZM7628,11503C7626,11491 7616,11485 7600,11485C7584,11485 7574,11491 7572,11503C7569,11516 7575,11520 7600,11520C7625,11520 7631,11516 7628,11503ZM4655,11489C4743,11483 4877,11478 4952,11478L5089,11478L5095,11451C5107,11397 5067,11344 4967,11280C4894,11233 4809,11123 4766,11017C4750,10980 4734,10947 4729,10945C4703,10928 4678,10771 4654,10480C4632,10198 4635,10208 4519,10065C4423,9946 4334,9914 4186,9945C4059,9971 4001,9998 3942,10054C3898,10098 3888,10113 3880,10159C3868,10225 3878,10268 3921,10333C3960,10393 3995,10420 4031,10420C4055,10420 4066,10411 4094,10367C4137,10300 4147,10292 4231,10258C4298,10231 4302,10231 4356,10245C4430,10264 4464,10291 4496,10355C4536,10437 4540,10522 4507,10593C4477,10658 4329,10818 4262,10857C4221,10882 4216,10882 4067,10878L3915,10873L3795,10826C3729,10800 3666,10776 3656,10773C3617,10761 3493,10626 3459,10560C3409,10460 3400,10411 3400,10250L3401,10105L3444,10020C3512,9884 3529,9858 3584,9800C3693,9686 3740,9628 3740,9609C3740,9595 3724,9582 3683,9564C3604,9529 3394,9450 3378,9450C3371,9450 3338,9441 3304,9431C3271,9420 3178,9402 3098,9391C3018,9379 2932,9366 2906,9361C2880,9356 2830,9355 2796,9357C2747,9361 2724,9358 2699,9345C2680,9335 2622,9306 2570,9279C2443,9214 2405,9191 2302,9117C2254,9083 2175,9030 2125,9001C1969,8907 1921,8871 1878,8812C1855,8781 1817,8735 1794,8710C1771,8685 1744,8647 1733,8625C1704,8566 1620,8417 1606,8400C1588,8378 1526,8272 1497,8215C1466,8151 1401,7974 1362,7845C1334,7752 1332,7736 1334,7610C1336,7497 1341,7460 1364,7387C1378,7338 1398,7284 1407,7267C1435,7215 1469,7127 1476,7093C1483,7055 1524,7010 1634,6921L1712,6857L1803,6864C1853,6868 1916,6876 1944,6882C2024,6899 2195,6993 2311,7083C2369,7129 2451,7183 2493,7203C2561,7236 2577,7240 2647,7240C2764,7239 3183,7152 3320,7099C3451,7049 3799,6967 3953,6950C4006,6944 4071,6933 4097,6926C4154,6910 4248,6887 4345,6864C4384,6855 4442,6842 4475,6834C4508,6826 4586,6817 4648,6814C4710,6810 4763,6804 4765,6800C4768,6796 4762,6786 4753,6779C4727,6757 4601,6765 4442,6799C4311,6828 4284,6830 4107,6830C3879,6830 3781,6816 3608,6760C3540,6739 3451,6716 3410,6709C3369,6703 3312,6687 3284,6674C3256,6661 3227,6650 3218,6650C3210,6650 3182,6639 3154,6626C3127,6613 3076,6597 3040,6590C2983,6580 2838,6527 2630,6442C2591,6427 2548,6399 2523,6374C2499,6351 2466,6327 2448,6321C2430,6314 2393,6298 2365,6286C2338,6273 2286,6249 2250,6232C2214,6215 2165,6196 2140,6190C2115,6184 2055,6165 2005,6148C1917,6118 1912,6118 1765,6123C1683,6127 1577,6136 1530,6144C1321,6181 1275,6190 1202,6210C1160,6222 1096,6246 1060,6263L995,6295L935,6417C901,6485 861,6553 845,6570C804,6613 790,6691 782,6935C765,7428 771,7550 830,7910C840,7973 851,8062 854,8107C863,8224 903,8392 945,8490C965,8537 1019,8681 1065,8810C1110,8939 1162,9076 1179,9114C1209,9180 1223,9205 1325,9375C1391,9487 1508,9640 1536,9652C1549,9658 1562,9670 1565,9679C1588,9753 2067,10285 2175,10357C2237,10398 2270,10432 2270,10452C2270,10463 2292,10495 2318,10523C2344,10552 2376,10591 2389,10610C2402,10629 2439,10665 2472,10690C2504,10715 2564,10762 2604,10796C2644,10829 2692,10867 2711,10880C2730,10893 2763,10920 2785,10940C2844,10993 2942,11057 3038,11106C3085,11130 3130,11156 3139,11164C3155,11178 3321,11238 3475,11286C3519,11299 3578,11319 3605,11330C3703,11368 4121,11470 4181,11470C4201,11470 4251,11477 4291,11485C4393,11505 4420,11508 4460,11504C4479,11502 4567,11495 4655,11489ZM7966,11439C8044,11409 8049,11391 8018,11245C8012,11218 8001,11183 7994,11168C7979,11140 7967,11136 7834,11125L7763,11118L7715,11176L7668,11235L7673,11304C7678,11373 7678,11375 7729,11423L7781,11473L7846,11466C7882,11462 7936,11450 7966,11439ZM5112,11233C5121,11223 5153,11166 5183,11105C5255,10961 5318,10868 5391,10799C5437,10755 5450,10736 5450,10713C5450,10677 5374,10551 5321,10500C5300,10480 5267,10439 5247,10409C5227,10379 5173,10316 5127,10268C5019,10157 4970,10141 4955,10212C4951,10230 4933,10282 4915,10326C4838,10516 4828,10911 4896,11043C4934,11116 5017,11212 5065,11238C5092,11253 5094,11253 5112,11233ZM4189,10771C4239,10764 4247,10758 4325,10679C4396,10607 4411,10586 4425,10538C4445,10468 4433,10412 4390,10368C4358,10337 4308,10331 4238,10351C4195,10362 4191,10381 4211,10451C4231,10517 4214,10524 4040,10520C3987,10519 3949,10497 3891,10433C3793,10327 3759,10203 3800,10100C3830,10023 3861,9987 3927,9949C3959,9931 3992,9911 4001,9904C4009,9896 4074,9876 4146,9859C4310,9820 4379,9822 4437,9869C4458,9886 4507,9923 4545,9952C4610,10001 4619,10013 4668,10110C4723,10219 4728,10240 4746,10454C4752,10529 4758,10528 4783,10445C4830,10294 4841,10250 4835,10240C4831,10234 4841,10208 4856,10182C4895,10116 4900,9985 4871,9755C4860,9662 4846,9488 4840,9370C4835,9252 4827,9125 4824,9088L4818,9020L4775,9020C4712,9020 4496,8981 4410,8955C4369,8942 4302,8927 4262,8921C4221,8914 4175,8903 4160,8895C4112,8870 4106,8886 4086,9096C4078,9174 4065,9250 4057,9266C4049,9282 4037,9318 4031,9345C4024,9373 4013,9402 4006,9410C3999,9418 3981,9445 3967,9470C3852,9662 3759,9793 3688,9862C3616,9931 3535,10090 3522,10187C3510,10275 3526,10400 3561,10492C3587,10558 3598,10575 3631,10596C3653,10610 3673,10627 3676,10634C3686,10659 3795,10709 3916,10744C4037,10780 4091,10785 4189,10771ZM9818,10634C9915,10632 9924,10629 9988,10594C10025,10574 10078,10540 10105,10520C10133,10499 10173,10473 10195,10462C10217,10451 10269,10408 10310,10365C10354,10320 10418,10269 10466,10240C10540,10195 10602,10148 10748,10025C10814,9969 10919,9849 11017,9715C11058,9660 11115,9588 11145,9555C11198,9496 11253,9421 11327,9307C11348,9275 11403,9196 11448,9132C11540,9004 11571,8949 11607,8850C11670,8680 11692,8624 11750,8485C11784,8403 11821,8313 11832,8285C11842,8258 11860,8217 11871,8194C11881,8172 11890,8147 11890,8138C11890,8130 11902,8101 11916,8074C11931,8047 11964,7962 11990,7885C12017,7808 12048,7723 12059,7697C12071,7670 12080,7634 12080,7615C12080,7597 12087,7563 12096,7539C12105,7515 12116,7459 12121,7415C12126,7371 12141,7292 12154,7240C12189,7103 12208,6998 12220,6890C12226,6838 12235,6781 12241,6763C12246,6746 12251,6701 12250,6663C12249,6626 12253,6532 12259,6455C12284,6119 12213,5646 12095,5351C12076,5302 12060,5258 12060,5253C12060,5234 11925,5063 11851,4989C11785,4923 11733,4888 11668,4867C11659,4864 11641,4842 11630,4819L11608,4777L11559,4783C11531,4787 11470,4802 11422,4819C11374,4835 11295,4858 11245,4870C11196,4882 11141,4900 11124,4910C11081,4934 11015,4942 10945,4930C10912,4924 10858,4915 10825,4909C10792,4904 10737,4893 10703,4884C10657,4873 10635,4872 10620,4880C10594,4894 10553,4965 10525,5045C10513,5080 10498,5115 10492,5122C10463,5158 10405,5328 10389,5423C10385,5452 10376,5502 10370,5535C10352,5628 10364,5799 10394,5900C10408,5947 10428,5996 10438,6010C10448,6024 10496,6062 10544,6095L10632,6155L10725,6155C10813,6155 10821,6153 10861,6125C10915,6087 10937,6055 10945,6005C10950,5968 10947,5960 10905,5910C10832,5821 10817,5779 10823,5685C10829,5586 10853,5515 10892,5473C10962,5400 11138,5358 11225,5394C11315,5432 11409,5501 11483,5584C11552,5661 11561,5677 11586,5757C11621,5871 11632,6050 11606,6104C11597,6123 11590,6151 11590,6167C11589,6208 11567,6244 11452,6388C11389,6469 11338,6522 11320,6530C11304,6537 11285,6549 11279,6557C11272,6565 11250,6580 11231,6591C11211,6602 11173,6625 11145,6642C11054,6699 10920,6768 10891,6775C10849,6784 10815,6823 10800,6876C10766,6998 10840,7426 10930,7626C10956,7685 10998,7730 11027,7730C11078,7730 11119,7784 11135,7872C11146,7928 11125,7940 11024,7940C10978,7940 10940,7944 10940,7948C10940,7953 10983,7976 11037,8000C11142,8048 11183,8077 11205,8121C11238,8184 11211,8216 11133,8207C11102,8204 11085,8207 11075,8217C11057,8234 11057,8239 11059,8350C11060,8397 11056,8468 11051,8507C11039,8586 10976,8818 10955,8859C10948,8874 10932,8917 10920,8955C10889,9052 10779,9279 10716,9375C10596,9558 10479,9721 10463,9727C10454,9730 10406,9781 10356,9841C10279,9930 10261,9958 10247,10008C10223,10096 10205,10113 10133,10118C10100,10120 10026,10117 9969,10110C9912,10103 9811,10095 9745,10091C9679,10087 9615,10078 9603,10071C9574,10056 9566,10023 9578,9974C9601,9887 9601,9836 9580,9735C9561,9649 9558,9595 9556,9355C9554,9170 9549,9060 9541,9031C9531,8997 9507,8964 9443,8896C9396,8846 9350,8789 9340,8770C9330,8751 9304,8715 9283,8690C9261,8665 9230,8625 9215,8600C9114,8438 8861,8170 8645,7996C8612,7969 8498,7867 8393,7768C8201,7589 8169,7568 8162,7616C8160,7630 8178,7654 8222,7695C8379,7841 8614,8099 8678,8195C8797,8374 8794,8363 8786,8574C8782,8673 8775,8940 8770,9165C8765,9391 8755,9622 8748,9680C8741,9738 8735,9862 8736,9955C8737,10100 8740,10133 8757,10180C8769,10210 8786,10258 8796,10285C8828,10369 9014,10542 9127,10591C9181,10614 9296,10630 9423,10631C9479,10632 9550,10636 9580,10640C9610,10645 9653,10646 9675,10643C9697,10640 9761,10636 9818,10634ZM5627,10623C5678,10600 5700,10581 5700,10559C5700,10531 5625,10366 5591,10318C5574,10294 5555,10250 5549,10220C5543,10190 5527,10139 5514,10108C5493,10059 5490,10034 5490,9933C5489,9700 5531,9479 5603,9335C5617,9308 5633,9258 5640,9225C5646,9192 5658,9145 5665,9120C5673,9095 5687,9014 5695,8940C5713,8788 5716,8771 5741,8715C5752,8692 5760,8651 5760,8620C5760,8589 5767,8540 5775,8510C5793,8447 5793,8450 5784,8389C5780,8361 5782,8335 5789,8321C5804,8293 5780,8155 5743,8060C5729,8024 5710,7972 5700,7945C5672,7864 5620,7799 5480,7667C5323,7519 5279,7483 5240,7466C5215,7456 5168,7436 5136,7421C5081,7397 5068,7395 4931,7396C4771,7396 4692,7412 4645,7453L4618,7475L4640,7530C4651,7560 4667,7599 4675,7615C4682,7632 4702,7691 4720,7747C4737,7803 4758,7854 4767,7861C4777,7870 4829,7876 4914,7880C5039,7885 5048,7887 5110,7920C5228,7984 5310,8088 5327,8194C5330,8217 5342,8253 5353,8275C5370,8308 5371,8324 5364,8380C5360,8416 5356,8479 5356,8520C5355,8562 5349,8605 5342,8618C5334,8633 5331,8656 5335,8683C5341,8723 5338,8728 5290,8785C5262,8818 5219,8879 5195,8920C5171,8961 5137,9014 5120,9038C5082,9090 5032,9207 5024,9264C5020,9291 5006,9317 4985,9340C4953,9374 4952,9377 4961,9425C4973,9496 5002,9775 5010,9905C5014,9966 5020,10023 5024,10032C5028,10042 5062,10074 5098,10104C5226,10208 5348,10348 5490,10553C5556,10647 5564,10651 5627,10623ZM7210,10465C7216,10457 7232,10448 7243,10444C7255,10440 7323,10406 7394,10368C7504,10309 7534,10298 7598,10290C7745,10271 7922,10223 7961,10191C7980,10176 7982,10167 7976,10127C7967,10068 7937,10032 7868,9997C7821,9973 7803,9970 7719,9970C7638,9970 7619,9973 7597,9990C7583,10001 7560,10010 7546,10010C7515,10010 7461,10036 7370,10095C7334,10118 7262,10158 7210,10185C7158,10211 7108,10236 7100,10241C7092,10245 7034,10274 6973,10304C6911,10335 6860,10364 6860,10369C6860,10387 6889,10400 6958,10415C6998,10423 7052,10441 7078,10454C7131,10482 7192,10487 7210,10465ZM6402,10257C6432,10232 6490,10126 6490,10095C6490,10084 6499,10029 6511,9974C6534,9865 6531,9816 6502,9822C6480,9826 6426,9962 6394,10095C6380,10150 6365,10207 6359,10222C6348,10250 6352,10280 6367,10280C6371,10279 6387,10269 6402,10257ZM5831,10234C5848,10226 5869,10202 5879,10182C5888,10162 5914,10118 5935,10084C5957,10051 5993,9987 6014,9942L6054,9860L6032,9814C6005,9759 6014,9740 6065,9740C6112,9740 6129,9748 6145,9781C6165,9819 6164,9838 6138,9885C6127,9907 6100,9964 6079,10012C6059,10060 6027,10120 6009,10145L5975,10192L5998,10211C6040,10244 6143,10204 6197,10133C6212,10113 6248,10074 6276,10046C6327,9995 6390,9886 6390,9850C6390,9818 6438,9699 6480,9630C6501,9594 6553,9530 6597,9486C6678,9405 6710,9364 6710,9343C6710,9322 6685,9328 6572,9374C6513,9398 6443,9421 6415,9426C6388,9430 6345,9445 6320,9460C6295,9475 6263,9490 6248,9494C6233,9497 6193,9524 6159,9553C6125,9581 6074,9622 6045,9642C5999,9674 5988,9690 5961,9753C5945,9793 5926,9849 5920,9876C5902,9959 5834,10113 5784,10185C5765,10212 5766,10250 5785,10250C5794,10250 5815,10243 5831,10234ZM6745,10066C6761,10059 6791,10035 6811,10013C6844,9976 6851,9957 6884,9819C6904,9734 6927,9647 6934,9625C6942,9603 6956,9560 6964,9530C6999,9412 7133,9192 7207,9131C7232,9110 7254,9100 7270,9102C7291,9105 7295,9111 7298,9143C7301,9178 7296,9187 7232,9253C7185,9302 7146,9356 7112,9421C7056,9525 7046,9570 7080,9570C7090,9570 7104,9579 7110,9591C7127,9621 7126,9700 7110,9738C7097,9767 7097,9772 7110,9781C7149,9807 7266,9757 7313,9695C7330,9671 7354,9573 7364,9487C7370,9426 7393,9390 7425,9390C7468,9390 7571,9310 7622,9236C7666,9172 7668,9166 7663,9116C7660,9085 7662,9055 7669,9042C7683,9016 7797,8934 7831,8925C7845,8922 7888,8887 7926,8848C7964,8810 8020,8762 8050,8743C8113,8702 8374,8445 8414,8384C8447,8333 8443,8320 8363,8219C8267,8100 8246,8080 8211,8080C8184,8080 8178,8086 8159,8131C8144,8165 8125,8189 8101,8204C8081,8217 8022,8269 7970,8321C7918,8373 7849,8433 7818,8454C7786,8476 7753,8505 7744,8518C7721,8553 7622,8654 7583,8682C7565,8695 7514,8737 7468,8776C7422,8815 7342,8876 7290,8910C7238,8945 7188,8981 7180,8990C7172,9000 7131,9025 7090,9046C7011,9086 6940,9138 6940,9156C6940,9162 6949,9175 6960,9185C6971,9195 6980,9210 6980,9218C6980,9234 6879,9333 6812,9382C6788,9400 6760,9430 6748,9449C6736,9469 6708,9506 6685,9531C6620,9601 6550,9700 6550,9721C6550,9735 6557,9740 6575,9740C6605,9740 6637,9770 6646,9806C6653,9831 6638,9892 6606,9975C6598,9997 6591,10032 6590,10054L6590,10093L6652,10086C6686,10082 6728,10073 6745,10066ZM6982,10003C7003,9978 7022,9832 7014,9760C7002,9654 6989,9685 6955,9900C6947,9952 6940,10001 6940,10008C6940,10026 6965,10023 6982,10003ZM9997,9747C10024,9732 10224,9535 10270,9479C10289,9455 10319,9413 10335,9385C10352,9358 10388,9308 10415,9275C10487,9186 10540,9100 10540,9071C10540,9023 10468,8860 10410,8775C10356,8696 10297,8574 10284,8515C10269,8443 10214,8323 10191,8311C10182,8307 10123,8300 10060,8296C9997,8293 9923,8283 9896,8275C9809,8248 9814,8240 9807,8418C9803,8532 9797,8588 9785,8618C9772,8651 9770,8667 9778,8688C9784,8703 9791,8749 9793,8790C9796,8850 9805,8881 9833,8941C9867,9014 9870,9025 9875,9151C9879,9233 9876,9356 9867,9470C9853,9657 9854,9725 9872,9748C9885,9763 9968,9763 9997,9747ZM6812,9264C6881,9218 6895,9200 6861,9200C6839,9200 6755,9263 6740,9290C6724,9319 6737,9315 6812,9264ZM6150,9044C6177,9021 6184,9019 6206,9029C6237,9043 6302,9043 6355,9029C6377,9023 6429,9010 6470,9001C6511,8991 6581,8968 6625,8950C6669,8933 6732,8915 6765,8912C6834,8906 6934,8862 7013,8803C7042,8781 7082,8751 7103,8736C7123,8721 7147,8696 7155,8680C7163,8664 7218,8614 7277,8569C7337,8524 7388,8484 7392,8481C7396,8478 7411,8449 7425,8417L7450,8359L7411,8343C7348,8318 7332,8254 7370,8179C7382,8157 7409,8127 7431,8112C7453,8097 7483,8075 7498,8063L7525,8042L7496,8011C7462,7975 7418,7970 7364,7996C7319,8018 7313,8030 7299,8140C7289,8219 7279,8249 7235,8339C7179,8452 7151,8484 7055,8545C7022,8566 6982,8597 6965,8613C6927,8650 6697,8809 6614,8855C6543,8895 6522,8898 6489,8871C6454,8842 6470,8824 6583,8764C6697,8703 6780,8644 6972,8489C7120,8369 7132,8357 7143,8327C7148,8313 7142,8306 7116,8295C7078,8279 7072,8267 7068,8197C7066,8144 7092,8097 7127,8092C7144,8089 7148,8096 7152,8135C7155,8160 7160,8184 7164,8187C7178,8201 7200,8163 7225,8082C7252,7995 7261,7973 7306,7890C7333,7839 7337,7805 7315,7796C7305,7792 7290,7805 7270,7833C7254,7856 7228,7892 7213,7913C7198,7934 7179,7969 7170,7992C7149,8048 7132,8057 7075,8042C7033,8031 7025,8032 6967,8059C6898,8090 6875,8112 6833,8185C6815,8216 6796,8236 6783,8238C6747,8243 6739,8265 6730,8369C6716,8527 6698,8557 6561,8647C6421,8738 6308,8792 6263,8788C6230,8785 6225,8781 6222,8758C6217,8715 6236,8693 6297,8670C6329,8658 6362,8642 6370,8635C6378,8628 6399,8618 6415,8614C6432,8610 6473,8591 6508,8572C6566,8540 6583,8519 6560,8505C6540,8493 6551,8446 6584,8396C6639,8313 6663,8260 6686,8170C6705,8098 6706,8083 6694,8071C6672,8047 6643,8083 6630,8149C6601,8295 6576,8350 6539,8350C6525,8350 6520,8340 6518,8303L6515,8255L6465,8256C6400,8258 6295,8285 6261,8309C6246,8320 6226,8353 6212,8389C6180,8472 6150,8505 6068,8546C6012,8574 5987,8581 5946,8580C5918,8579 5890,8579 5883,8579C5876,8580 5868,8597 5865,8618C5842,8752 5827,8832 5815,8880C5794,8961 5789,9003 5799,9018C5803,9026 5840,9036 5881,9041C5922,9046 5984,9054 6020,9059C6117,9072 6116,9072 6150,9044ZM5082,8923C5097,8908 5110,8888 5110,8879C5110,8859 5094,8856 4900,8840C4831,8834 4764,8827 4750,8825C4736,8822 4675,8814 4614,8806C4487,8789 4393,8760 4252,8694C4152,8648 4035,8610 3990,8610C3976,8610 3959,8605 3953,8599C3937,8583 3908,8595 3870,8635C3849,8657 3840,8674 3846,8679C3851,8685 3905,8705 3965,8726C4026,8746 4082,8766 4092,8771C4112,8782 4528,8882 4670,8910C4792,8934 4898,8947 4989,8949C5047,8950 5057,8947 5082,8923ZM10634,8878C10664,8794 10659,8763 10605,8704C10581,8677 10554,8642 10547,8625C10472,8468 10450,8419 10439,8380C10416,8297 10361,8266 10311,8308L10289,8325L10338,8420C10365,8472 10393,8533 10400,8555C10407,8577 10416,8600 10421,8606C10434,8622 10484,8712 10540,8823C10568,8876 10597,8920 10604,8920C10612,8920 10625,8901 10634,8878ZM3136,8893C3162,8866 3190,8799 3190,8760C3190,8714 3215,8678 3243,8682C3262,8685 3265,8693 3268,8738L3271,8790L3310,8790C3363,8790 3378,8782 3397,8746C3406,8729 3427,8697 3444,8675C3474,8637 3495,8606 3503,8585C3506,8580 3513,8535 3519,8486C3526,8437 3538,8381 3546,8362C3567,8311 3653,8209 3713,8165C3741,8143 3811,8081 3866,8028C3922,7974 3974,7930 3982,7930C3990,7930 4004,7936 4014,7943C4029,7954 4030,7961 4022,7976C4017,7987 3927,8083 3822,8189L3632,8384L3627,8439C3625,8470 3612,8541 3599,8598C3582,8673 3579,8706 3586,8717C3605,8748 3619,8742 3630,8698C3658,8588 3671,8551 3688,8530L3706,8508L3750,8530C3792,8551 3795,8552 3824,8536C3880,8505 3977,8370 4056,8213L4131,8065L4120,7980C4092,7761 4076,7700 4039,7677C4027,7669 4017,7672 3999,7689C3986,7702 3964,7718 3950,7725C3925,7737 3636,7847 3511,7890C3476,7902 3424,7926 3396,7943C3368,7959 3311,7988 3270,8007C3205,8036 3116,8089 3004,8164C2947,8202 2820,8407 2820,8461C2820,8502 2753,8663 2718,8707C2670,8767 2637,8850 2650,8878C2660,8901 2660,8901 2691,8883C2711,8871 2734,8842 2756,8798C2784,8741 2794,8730 2815,8730C2835,8730 2840,8735 2840,8756C2840,8771 2831,8797 2821,8814C2792,8860 2805,8872 2876,8864C2985,8851 3024,8781 3040,8569C3050,8432 3064,8399 3164,8273C3241,8176 3291,8137 3420,8075C3472,8049 3540,8016 3570,8000C3600,7985 3636,7969 3650,7965C3664,7961 3719,7937 3773,7912C3855,7874 3873,7869 3881,7881C3894,7902 3893,7906 3858,7945C3816,7993 3685,8058 3475,8135C3448,8145 3405,8172 3380,8195C3355,8217 3323,8244 3308,8253C3228,8303 3166,8431 3150,8580C3146,8621 3132,8689 3121,8730C3109,8771 3097,8829 3093,8858C3088,8901 3090,8910 3103,8910C3112,8910 3126,8902 3136,8893ZM5145,8762C5139,8757 5092,8743 5040,8730C4988,8718 4905,8695 4855,8679C4806,8664 4698,8635 4615,8615C4459,8577 4333,8530 4193,8454C4147,8430 4099,8410 4086,8410C4059,8410 3990,8469 3990,8492C3990,8508 4013,8522 4080,8545C4199,8587 4231,8600 4306,8638C4398,8684 4474,8706 4610,8725C4662,8733 4723,8745 4745,8753C4791,8769 5162,8777 5145,8762ZM9694,8632C9698,8606 9705,8531 9710,8465C9717,8369 9724,8336 9744,8298C9771,8246 9772,8246 9710,8235C9602,8216 9601,8216 9589,8246C9580,8268 9581,8300 9589,8373C9598,8449 9598,8478 9589,8504C9578,8535 9579,8543 9610,8596C9647,8664 9669,8692 9680,8685C9685,8682 9691,8659 9694,8632ZM5220,8647C5220,8622 5196,8611 5101,8590C5048,8578 4967,8558 4920,8545C4873,8532 4788,8509 4730,8494C4634,8469 4418,8381 4367,8345C4355,8337 4337,8330 4327,8330C4317,8330 4279,8312 4243,8290C4167,8244 4160,8243 4136,8269C4101,8307 4122,8328 4265,8402C4379,8461 4489,8499 4675,8543C4785,8570 4846,8590 4911,8619C4990,8655 5002,8657 5123,8659C5197,8660 5220,8657 5220,8647ZM4790,8368C4789,8275 4734,8048 4685,7940C4602,7755 4581,7700 4560,7615C4550,7569 4516,7476 4487,7408C4457,7340 4430,7263 4426,7237C4416,7153 4408,7147 4331,7153C4248,7161 4083,7187 4070,7195C4054,7205 4059,7273 4079,7333C4090,7364 4108,7434 4120,7487C4131,7541 4154,7626 4170,7677C4188,7734 4208,7836 4224,7952C4237,8052 4253,8147 4259,8163C4272,8195 4343,8243 4414,8266C4442,8275 4510,8305 4564,8333C4668,8385 4729,8408 4768,8409C4787,8410 4790,8405 4790,8368ZM7514,8254C7546,8242 7730,7995 7730,7964C7730,7936 7696,7951 7639,8005C7607,8035 7574,8060 7566,8060C7557,8060 7550,8064 7550,8068C7550,8073 7530,8100 7505,8129C7471,8169 7460,8190 7460,8215C7460,8239 7465,8250 7478,8253C7487,8256 7496,8258 7497,8259C7498,8259 7505,8257 7514,8254ZM2870,8185C2891,8163 2892,8158 2879,8146C2871,8138 2838,8122 2805,8110C2411,7966 2377,7955 2264,7930C2182,7913 1893,7867 1713,7843L1670,7837L1670,7889C1670,7946 1693,7980 1733,7980C1745,7980 1839,7982 1942,7985C2114,7989 2140,7993 2267,8025C2343,8044 2433,8071 2466,8085C2500,8099 2572,8122 2626,8136C2681,8150 2745,8172 2770,8185C2828,8215 2842,8215 2870,8185ZM10479,8174C10619,8152 10624,8149 10628,8068C10630,8026 10628,8000 10622,8000C10616,8000 10570,8020 10519,8045C10469,8069 10411,8092 10391,8095C10371,8099 10322,8108 10282,8116C10224,8127 10189,8128 10102,8119C9967,8105 9931,8080 9980,8035C9998,8019 10016,8017 10118,8019C10249,8021 10331,8007 10455,7962L10535,7934L10540,7851C10545,7762 10545,7762 10626,7704L10655,7683L10576,7646C10448,7587 10386,7598 10278,7698C10238,7735 10188,7773 10167,7783C10147,7792 10113,7808 10093,7818C10073,7827 10039,7850 10017,7867C9996,7885 9957,7906 9932,7914C9906,7921 9869,7937 9850,7948C9831,7960 9786,7974 9751,7979C9679,7991 9648,7982 9623,7943C9609,7923 9610,7919 9632,7897C9651,7878 9671,7871 9727,7866C9795,7859 9928,7808 9944,7782C9947,7777 9936,7755 9920,7735C9903,7714 9890,7691 9890,7683C9890,7669 9946,7612 9988,7583C10016,7564 10016,7534 9989,7519C9973,7511 9952,7511 9907,7520C9833,7534 9778,7563 9685,7635C9647,7665 9608,7690 9600,7690C9591,7690 9555,7682 9519,7672C9460,7655 9452,7655 9429,7669C9379,7700 9200,7834 9200,7841C9200,7845 9229,7875 9265,7909C9337,7975 9462,8054 9524,8071C9546,8077 9573,8088 9584,8095C9596,8102 9623,8112 9645,8115C9667,8119 9744,8135 9815,8152C10023,8200 10259,8208 10479,8174ZM10998,8088C11016,8073 10998,8056 10950,8041C10907,8028 10885,8000 10895,7970C10901,7951 10896,7950 10821,7950C10738,7950 10684,7963 10695,7980C10698,7985 10732,7990 10770,7990C10818,7990 10843,7995 10854,8005C10886,8037 10844,8070 10771,8070C10727,8070 10716,8078 10732,8098C10742,8109 10766,8111 10865,8105C10931,8101 10991,8093 10998,8088ZM3080,7993C3169,7931 3314,7855 3388,7834C3416,7825 3440,7814 3440,7808C3440,7802 3430,7783 3417,7766C3404,7749 3375,7703 3352,7663C3307,7586 3262,7543 3189,7506C3163,7494 3126,7473 3106,7460L3068,7437L2977,7468C2926,7485 2865,7502 2841,7506C2817,7509 2782,7519 2763,7526C2736,7538 2718,7538 2677,7530C2648,7525 2599,7515 2567,7510C2485,7495 2404,7463 2365,7429C2347,7413 2297,7382 2254,7360C2177,7320 2146,7302 2006,7212C1881,7132 1840,7130 1764,7202C1734,7230 1701,7267 1691,7284C1666,7326 1648,7459 1646,7615L1645,7745L1685,7752C1707,7755 1786,7766 1860,7775C2041,7797 2105,7808 2170,7827C2200,7835 2259,7851 2300,7861C2341,7871 2422,7895 2480,7915C2538,7934 2604,7955 2628,7960C2651,7966 2704,7986 2744,8005C2835,8049 2933,8071 2975,8057C2991,8051 3038,8023 3080,7993ZM8991,7862C9005,7853 9030,7833 9046,7818C9140,7732 9190,7693 9328,7601C9436,7529 9480,7494 9480,7481C9480,7397 9410,7040 9380,6973C9358,6924 9335,6917 9327,6958C9322,6984 9300,7006 9045,7249C8930,7358 8776,7483 8695,7533C8657,7556 8625,7582 8625,7590C8625,7598 8668,7637 8720,7676C8772,7716 8842,7777 8875,7813C8908,7848 8942,7878 8950,7879C8958,7879 8977,7872 8991,7862ZM10938,7854C10950,7850 10960,7844 10960,7840C10960,7828 10870,7793 10803,7779C10747,7768 10737,7768 10699,7785C10651,7807 10630,7825 10630,7846C10630,7857 10656,7860 10773,7860C10851,7860 10925,7857 10938,7854ZM3628,7748C3653,7723 3639,7700 3573,7651C3535,7624 3497,7588 3487,7571C3477,7554 3461,7540 3451,7540C3431,7540 3374,7483 3344,7432C3334,7414 3317,7397 3307,7394C3283,7386 3230,7408 3230,7426C3230,7434 3255,7456 3284,7475C3349,7516 3404,7578 3445,7657C3462,7690 3490,7724 3509,7737C3546,7762 3608,7768 3628,7748ZM10075,7700C10115,7674 10201,7569 10198,7550C10194,7529 10163,7526 10136,7544C10116,7557 10042,7646 10016,7688C10007,7702 10016,7720 10033,7720C10040,7720 10059,7711 10075,7700ZM10850,7675C10850,7666 10840,7641 10829,7618C10784,7530 10711,7198 10704,7050C10696,6884 10692,6860 10669,6860C10644,6860 10571,6926 10564,6955C10561,6968 10564,6988 10570,7000C10576,7012 10586,7091 10591,7175C10599,7315 10603,7339 10639,7442C10676,7551 10717,7636 10748,7673C10768,7696 10850,7697 10850,7675ZM9650,7516C9664,7489 9661,7453 9632,7255C9593,6998 9518,6639 9490,6573C9478,6543 9448,6544 9414,6573L9387,6597L9400,6661C9420,6761 9487,7032 9500,7065C9527,7134 9571,7319 9586,7418C9594,7477 9603,7531 9605,7537C9611,7555 9635,7543 9650,7516ZM6651,7404C6670,7391 6690,7380 6696,7380C6701,7380 6744,7352 6792,7318C6839,7283 6892,7247 6909,7238C6945,7218 6948,7205 6920,7190C6885,7171 6769,7235 6657,7334C6565,7416 6544,7449 6593,7434C6605,7431 6631,7417 6651,7404ZM9877,7419C9901,7398 9888,7337 9827,7184C9797,7108 9747,6982 9717,6905C9687,6828 9650,6740 9636,6710C9622,6680 9610,6645 9610,6633C9610,6621 9605,6608 9599,6604C9574,6589 9572,6620 9595,6700C9685,7022 9715,7164 9736,7360C9740,7396 9745,7429 9748,7434C9755,7446 9858,7434 9877,7419ZM10088,7390C10085,7358 10073,7326 10055,7300C10040,7278 10022,7235 10015,7203C10007,7171 9995,7127 9986,7105C9978,7083 9971,7058 9970,7049C9970,7040 9961,7021 9950,7007C9939,6993 9930,6975 9930,6967C9930,6943 9713,6506 9691,6486C9668,6465 9640,6471 9640,6497C9640,6523 9676,6633 9699,6679C9710,6700 9733,6754 9750,6797C9767,6840 9790,6893 9800,6915C9833,6984 9911,7180 9946,7285C9983,7392 10020,7440 10068,7440C10091,7440 10092,7438 10088,7390ZM8829,7308C8860,7279 8902,7241 8922,7224C8958,7194 8959,7191 8949,7155C8943,7135 8921,7085 8899,7044C8851,6953 8848,6906 8886,6834C8900,6807 8925,6760 8941,6730C8957,6700 8970,6670 8970,6663C8970,6646 9047,6583 9110,6549C9157,6523 9334,6469 9423,6453C9438,6450 9485,6428 9528,6404C9570,6380 9613,6360 9623,6360C9654,6360 9753,6321 9776,6299C9788,6288 9825,6270 9858,6260C9975,6224 10046,6155 10128,6001C10164,5933 10176,5920 10210,5906C10257,5887 10259,5873 10236,5751C10224,5688 10224,5664 10236,5581C10261,5412 10298,5282 10351,5178C10397,5086 10411,5040 10391,5040C10380,5040 10302,5107 10205,5201C10161,5243 10100,5293 10070,5313C10040,5332 9975,5384 9927,5429C9879,5474 9820,5524 9797,5541C9774,5557 9702,5621 9636,5683C9530,5783 9348,5930 9329,5930C9326,5930 9261,5971 9185,6020C9109,6070 9044,6110 9039,6110C9026,6110 8813,6237 8740,6288C8705,6314 8654,6346 8629,6360C8556,6400 8485,6495 8456,6594C8425,6695 8390,6860 8390,6900C8390,6943 8412,6981 8463,7026C8490,7051 8510,7080 8518,7105C8531,7150 8579,7216 8661,7302C8734,7378 8753,7379 8829,7308ZM10183,7138C10195,7132 10236,7098 10275,7063C10313,7029 10347,7000 10350,7000C10353,7000 10399,6951 10452,6892C10505,6833 10559,6779 10572,6773C10584,6766 10679,6728 10782,6687C10921,6631 10987,6599 11037,6562C11075,6535 11116,6507 11130,6500C11176,6476 11361,6286 11412,6210C11470,6123 11490,6058 11490,5957C11490,5878 11461,5749 11429,5683C11418,5660 11380,5614 11345,5582C11271,5513 11216,5493 11119,5504C11006,5515 10971,5548 10960,5652C10951,5733 10961,5801 10988,5842C11009,5875 11084,5930 11106,5930C11118,5930 11120,5936 11115,5959C11112,5976 11114,5998 11120,6010C11133,6034 11108,6099 11069,6140C11035,6176 10930,6238 10874,6255C10696,6308 10567,6265 10384,6088C10334,6040 10290,6000 10287,6000C10284,6000 10262,6033 10239,6073C10216,6112 10181,6170 10161,6200C10106,6283 9945,6475 9895,6517C9842,6561 9841,6554 9915,6705C9991,6862 10034,6962 10066,7063C10094,7150 10094,7150 10128,7150C10146,7150 10171,7145 10183,7138ZM4230,6522C4230,6512 4210,6459 4185,6404C4160,6350 4140,6292 4140,6275C4140,6259 4126,6193 4109,6130C4092,6067 4075,5997 4070,5975C4065,5953 4055,5910 4047,5880C4039,5850 4023,5771 4010,5705C3998,5639 3982,5567 3975,5545C3967,5523 3956,5474 3949,5435C3942,5397 3922,5320 3905,5265C3873,5168 3871,5165 3835,5152C3814,5145 3779,5126 3757,5110C3720,5083 3709,5080 3637,5080C3566,5080 3551,5077 3501,5048C3470,5030 3423,4992 3397,4964C3338,4899 3273,4865 3223,4873C3178,4881 3164,4893 3134,4952C3103,5012 3104,5031 3137,5083C3152,5106 3176,5150 3190,5180C3225,5251 3300,5330 3335,5330C3366,5330 3366,5325 3335,5284C3295,5232 3269,5161 3272,5116C3275,5076 3276,5075 3315,5072C3350,5069 3362,5075 3420,5122C3456,5152 3515,5197 3552,5223C3600,5257 3624,5282 3640,5316C3657,5351 3672,5366 3699,5376C3761,5401 3785,5417 3798,5447C3806,5462 3827,5500 3845,5530C3863,5560 3888,5621 3900,5665C3912,5709 3931,5762 3941,5782C3952,5803 3967,5851 3975,5890C3983,5929 4003,5994 4019,6035C4049,6112 4046,6130 4006,6130C3980,6130 3950,6102 3950,6078C3950,6068 3942,6043 3931,6022C3908,5977 3840,5767 3840,5743C3840,5715 3783,5600 3766,5594C3757,5591 3735,5597 3717,5609C3656,5646 3625,5638 3553,5567C3496,5509 3490,5500 3490,5462C3490,5403 3507,5408 3579,5487L3640,5555L3692,5503L3640,5459C3611,5435 3574,5395 3557,5370C3516,5310 3420,5210 3404,5210C3375,5210 3382,5231 3430,5291C3457,5325 3480,5361 3480,5371C3480,5381 3461,5401 3438,5417C3382,5454 3368,5483 3376,5540C3386,5614 3417,5657 3490,5700C3580,5752 3628,5801 3635,5848C3639,5868 3650,5912 3661,5945C3671,5978 3687,6041 3695,6085C3713,6178 3745,6263 3774,6295C3810,6334 3861,6427 3872,6472C3878,6496 3890,6521 3898,6528C3909,6536 3960,6540 4072,6540C4219,6540 4230,6539 4230,6522ZM4524,6384C4536,6352 4529,6272 4509,6212C4498,6178 4484,6150 4479,6150C4448,6150 4436,6336 4466,6378C4484,6404 4515,6407 4524,6384ZM5754,6308C5785,6258 5800,6114 5779,6067C5771,6050 5771,6032 5779,6006C5786,5979 5786,5958 5777,5932C5760,5881 5733,5883 5703,5935C5684,5967 5680,5985 5685,6025C5687,6053 5693,6132 5696,6203C5702,6318 5704,6330 5721,6330C5731,6330 5746,6320 5754,6308ZM5422,6225C5426,6192 5434,6122 5439,6070C5445,6018 5459,5948 5469,5915C5480,5882 5485,5851 5480,5846C5476,5842 5458,5841 5441,5845C5418,5850 5404,5862 5388,5893C5369,5929 5365,5955 5362,6071C5358,6222 5370,6293 5398,6288C5411,6286 5417,6270 5422,6225ZM4672,6213C4686,6201 4690,6182 4690,6135C4690,6081 4686,6068 4660,6035C4644,6014 4630,5991 4630,5984C4630,5977 4609,5954 4584,5933C4526,5885 4466,5805 4452,5760C4446,5741 4429,5687 4414,5640C4399,5593 4387,5535 4388,5510C4392,5393 4406,5221 4413,5214C4417,5210 4433,5211 4448,5216C4482,5228 4488,5263 4489,5440C4490,5572 4516,5715 4541,5731C4557,5740 4587,5725 4618,5693C4653,5655 4679,5666 4726,5740C4785,5834 4814,5862 4847,5858C4870,5855 4876,5848 4887,5805C4894,5778 4897,5742 4893,5725C4890,5709 4888,5676 4889,5653C4891,5621 4887,5607 4870,5593C4844,5572 4782,5508 4683,5402C4608,5321 4540,5197 4540,5139C4540,5123 4533,5092 4523,5069C4509,5034 4508,5017 4518,4958C4530,4878 4538,4865 4573,4874C4607,4882 4617,4919 4623,5050C4629,5172 4653,5255 4679,5244C4734,5221 4749,5217 4764,5223C4783,5230 4785,5261 4769,5305C4759,5333 4761,5341 4797,5397C4834,5456 4916,5534 4931,5524C4944,5516 4928,5482 4894,5442C4874,5418 4860,5391 4860,5375C4860,5338 4887,5291 4914,5280C4932,5273 4939,5261 4944,5222C4951,5168 4940,5127 4910,5095C4876,5059 4850,4982 4850,4918C4850,4871 4857,4843 4881,4793L4912,4728L4888,4703C4869,4682 4819,4647 4719,4585C4711,4580 4688,4565 4669,4553C4650,4540 4630,4530 4624,4530C4614,4530 4539,4624 4497,4691C4468,4736 4389,4962 4370,5057C4342,5191 4327,5426 4340,5530C4345,5577 4355,5660 4360,5715C4383,5933 4399,6043 4408,6052C4415,6059 4430,6054 4453,6036C4521,5984 4555,6011 4573,6132C4578,6172 4588,6211 4593,6218C4606,6235 4650,6233 4672,6213ZM6006,6080C6063,6048 6086,6017 6123,5920C6143,5868 6149,5829 6155,5721C6165,5523 6184,5437 6230,5385C6240,5374 6260,5347 6274,5325C6312,5268 6571,4989 6595,4980C6630,4967 6650,4980 6650,5015C6650,5043 6632,5068 6530,5181C6463,5255 6393,5329 6374,5347C6331,5385 6332,5410 6376,5422C6420,5433 6445,5486 6436,5549C6433,5574 6429,5604 6428,5615C6424,5644 6467,5646 6547,5619C6605,5599 6624,5586 6677,5531C6726,5480 6741,5456 6749,5420C6768,5327 6771,5265 6757,5200C6737,5109 6747,5090 6812,5090C6854,5090 6866,5085 6888,5061C6942,5003 6961,4970 6991,4883L7023,4795L6981,4697C6935,4591 6935,4577 6979,4523C7046,4441 7066,4406 7154,4225C7308,3909 7379,3807 7528,3689C7568,3657 7610,3619 7622,3605C7661,3555 7816,3439 7897,3399C7942,3376 7981,3352 7984,3344C7987,3336 8015,3319 8047,3305C8079,3290 8114,3271 8125,3261C8136,3251 8170,3228 8200,3210C8230,3192 8258,3172 8262,3165C8266,3158 8315,3127 8369,3096C8424,3065 8472,3035 8475,3031C8478,3026 8506,3007 8537,2990C8574,2969 8645,2906 8740,2810C8820,2730 8900,2653 8918,2641C8975,2601 9010,2499 9010,2370C9010,2331 9018,2293 9037,2249C9062,2190 9064,2174 9064,2045C9064,1885 9053,1817 9022,1773C9010,1756 8996,1730 8990,1716C8980,1689 8963,1666 8863,1545C8807,1477 8802,1464 8813,1408C8823,1361 8858,1340 8945,1330C9108,1310 9353,1384 9540,1508C9586,1540 9643,1574 9665,1586C9747,1629 9971,1760 10015,1792C10041,1810 10094,1850 10133,1881C10173,1911 10232,1953 10265,1973C10298,1993 10385,2058 10458,2117C10532,2176 10612,2239 10636,2256C10661,2273 10697,2306 10717,2329C10736,2352 10811,2415 10884,2469C11021,2572 11169,2718 11225,2805C11243,2833 11265,2862 11274,2869C11282,2876 11310,2923 11336,2973C11361,3024 11397,3090 11415,3120C11433,3150 11478,3227 11515,3290C11552,3353 11603,3434 11629,3470C11655,3506 11689,3558 11705,3585C11721,3613 11752,3664 11775,3700C11798,3736 11827,3786 11839,3811C11850,3836 11871,3867 11884,3879L11908,3902L11915,3858C11932,3745 11785,3360 11619,3082C11160,2315 10355,1583 9535,1189C9235,1045 9090,1002 8839,980C8731,971 8700,972 8634,986C8591,994 8538,1010 8516,1021C8494,1031 8471,1040 8464,1040C8457,1040 8428,1021 8398,997C8254,880 8114,790 7945,705C7746,604 7490,499 7390,476C7139,419 6625,350 6444,350C6336,350 5909,387 5690,416C5426,451 5183,497 4890,570C4455,678 4328,721 3944,891C3662,1015 3510,1091 3372,1177C3313,1213 3243,1257 3215,1274C3135,1324 3042,1406 2772,1662C2440,1978 2329,2111 2244,2296C2194,2404 2150,2585 2143,2710L2138,2815L2188,2858C2218,2883 2249,2900 2264,2900C2299,2900 2388,2881 2433,2864C2489,2843 2645,2845 2706,2869C2733,2879 2780,2895 2812,2904C2847,2914 2913,2951 2989,3001C3103,3078 3114,3083 3175,3088C3211,3090 3240,3089 3240,3084C3240,3079 3208,3046 3169,3011C3072,2924 2980,2803 2980,2763C2980,2752 2967,2713 2950,2678C2925,2625 2920,2603 2920,2540C2921,2342 2971,2190 3036,2190C3090,2190 3101,2235 3073,2342C3048,2439 3050,2589 3078,2670C3109,2762 3182,2882 3227,2917C3328,2997 3486,3083 3670,3158C3775,3202 3844,3211 4192,3230C4375,3240 4476,3256 4576,3290C4607,3301 4641,3310 4652,3310C4662,3310 4719,3328 4778,3351C4837,3373 4903,3398 4925,3407C4947,3415 4980,3434 4999,3448C5065,3501 5095,3520 5111,3520C5120,3520 5168,3474 5216,3418C5265,3361 5347,3269 5398,3213C5453,3152 5490,3103 5488,3094C5486,3084 5453,3064 5405,3044C5345,3018 5311,2996 5265,2951C5232,2918 5194,2888 5180,2885C5154,2879 5065,2799 4999,2725C4980,2703 4944,2667 4919,2646C4849,2584 4699,2402 4678,2354C4637,2258 4552,2165 4472,2129C4437,2113 4395,2091 4380,2080C4365,2069 4310,2044 4259,2024C4179,1993 4149,1987 4058,1983C3975,1978 3940,1981 3901,1994C3874,2003 3844,2010 3835,2010C3800,2010 3720,2062 3677,2112C3616,2185 3613,2192 3601,2303L3590,2401L3630,2459C3688,2545 3707,2557 3799,2565C3936,2577 4007,2545 4067,2446C4093,2404 4089,2388 4042,2337C4012,2306 3997,2304 3945,2326C3899,2345 3861,2341 3844,2315C3832,2297 3834,2289 3860,2250C3896,2196 3907,2190 3989,2179L4055,2171L4108,2223C4138,2252 4174,2300 4190,2330C4216,2381 4217,2388 4205,2423C4188,2474 4133,2563 4087,2615C4034,2676 3982,2699 3874,2706C3793,2712 3778,2710 3710,2686C3615,2651 3583,2627 3532,2548C3474,2459 3461,2370 3484,2237C3506,2119 3536,2053 3596,1996C3653,1941 3823,1854 3899,1840C3968,1827 4093,1828 4148,1840C4189,1850 4374,1924 4486,1975C4550,2004 4643,2090 4710,2181C4739,2219 4769,2250 4777,2250C4785,2250 4899,2144 5029,2014C5159,1885 5288,1757 5316,1730C5394,1655 5595,1494 5661,1454C5741,1406 5904,1343 5987,1329C6075,1315 6470,1216 6545,1190C6619,1165 6860,1161 6925,1185C6947,1193 6988,1199 7016,1200C7045,1200 7097,1209 7133,1220C7169,1231 7218,1244 7242,1249C7522,1308 7808,1419 7881,1496C7903,1519 7909,1520 7970,1514C8023,1509 8046,1512 8092,1529C8166,1557 8193,1580 8219,1635C8245,1691 8246,1730 8219,1805C8197,1871 8143,1934 8052,2001C8023,2023 7978,2060 7951,2083C7925,2106 7844,2174 7772,2233C7646,2337 7600,2388 7600,2424C7600,2444 7561,2525 7533,2565C7521,2582 7494,2654 7474,2725C7454,2797 7408,2927 7373,3015C7337,3103 7289,3225 7265,3285C7242,3346 7204,3442 7181,3500C7159,3558 7140,3613 7140,3623C7140,3633 7131,3653 7120,3668C7110,3683 7078,3764 7051,3848C7023,3933 6982,4042 6960,4091C6921,4174 6913,4218 6934,4223C6939,4224 6971,4172 7006,4107C7041,4042 7082,3972 7097,3952C7112,3932 7147,3877 7174,3830C7200,3783 7248,3707 7279,3662C7439,3423 7457,3402 7512,3374C7539,3360 7579,3333 7602,3312C7649,3269 7761,3188 7940,3066C8105,2954 8352,2785 8426,2734C8520,2668 8685,2514 8739,2442C8817,2338 8853,2244 8858,2134C8865,1973 8818,1765 8764,1710C8750,1696 8717,1651 8691,1610C8650,1546 8632,1528 8567,1487C8471,1426 8402,1351 8373,1274C8324,1146 8314,1139 8099,1067C7970,1024 7801,939 7714,873C7697,860 7676,850 7667,850C7658,850 7649,846 7645,841C7642,836 7614,826 7582,819C7551,813 7494,797 7455,785C7293,733 7235,718 7045,679C6725,614 6730,615 6448,628C6309,635 6141,640 6074,640C5911,640 5718,656 5590,681C5532,692 5456,705 5420,709C5374,715 5337,728 5295,753C5246,782 5218,790 5141,799C5089,806 5019,820 4986,831C4952,843 4898,858 4865,866C4719,900 4668,914 4565,952C4505,974 4408,1007 4350,1025C4292,1043 4229,1065 4210,1073C4191,1082 4119,1109 4050,1134C3981,1158 3891,1194 3850,1213C3809,1232 3757,1251 3735,1255C3714,1258 3676,1273 3651,1286C3626,1299 3600,1310 3593,1310C3582,1310 3351,1459 3296,1502C3280,1515 3252,1534 3234,1545C3181,1579 3105,1647 2912,1835C2662,2079 2629,2123 2513,2360C2423,2545 2398,2615 2370,2758C2354,2836 2341,2855 2310,2845C2288,2838 2287,2835 2293,2751C2301,2639 2331,2524 2374,2441C2393,2405 2427,2337 2448,2290C2490,2198 2585,2047 2620,2015C2633,2004 2654,1977 2668,1955C2726,1864 3147,1458 3226,1417C3245,1407 3307,1368 3363,1331C3502,1238 3640,1166 3730,1140C3771,1128 3814,1112 3825,1106C3836,1099 3879,1081 3920,1066C3961,1050 4020,1027 4050,1015C4122,985 4622,819 4725,790C4769,778 4857,753 4920,734C4983,715 5080,691 5135,681C5190,670 5267,650 5305,636C5367,614 5567,574 5735,550C5818,538 6525,518 6690,523C6774,525 6846,533 6880,543C6910,552 7014,573 7110,590C7206,607 7332,634 7390,650C7448,667 7520,688 7550,697C7580,705 7699,761 7815,821C7930,880 8064,943 8111,959C8257,1010 8364,1060 8395,1090C8425,1119 8435,1136 8485,1242C8511,1300 8572,1361 8617,1374C8656,1386 8797,1576 8861,1702C8921,1820 8967,2076 8950,2187C8940,2246 8905,2349 8872,2414C8817,2525 8665,2678 8465,2825C8421,2858 8379,2890 8371,2897C8364,2905 8341,2919 8320,2930C8300,2940 8261,2965 8235,2986C8186,3023 8112,3074 8036,3121C8014,3135 7966,3168 7930,3194C7894,3219 7845,3252 7821,3268C7774,3297 7746,3316 7596,3423C7489,3499 7401,3583 7366,3645C7353,3667 7305,3748 7258,3825C7211,3902 7132,4047 7081,4146C7031,4246 6979,4337 6967,4348L6944,4370L6908,4345C6883,4328 6870,4310 6865,4288C6861,4270 6853,4241 6847,4223C6838,4196 6840,4183 6857,4143C6910,4020 6934,3955 7037,3665C7056,3610 7082,3536 7095,3500C7108,3464 7132,3410 7149,3379C7178,3326 7310,2939 7350,2789C7433,2473 7507,2324 7631,2222C7666,2193 7717,2151 7744,2128C7771,2105 7811,2073 7834,2058C7856,2043 7922,1988 7980,1937C8091,1839 8139,1771 8140,1713C8140,1655 8067,1612 7987,1624C7964,1628 7929,1633 7909,1636C7874,1642 7871,1640 7835,1586C7803,1538 7787,1525 7726,1496C7651,1460 7354,1360 7323,1360C7313,1360 7255,1349 7195,1334C6984,1286 6916,1278 6750,1283C6628,1287 6582,1292 6533,1309C6499,1320 6459,1330 6446,1330C6432,1330 6381,1343 6332,1360C6282,1376 6234,1390 6223,1390C6213,1390 6134,1408 6049,1429C5753,1503 5634,1578 5275,1916C5176,2009 5063,2113 5025,2148C4966,2202 4875,2314 4854,2358C4850,2366 4865,2397 4886,2428C4937,2502 4963,2507 5008,2451C5025,2429 5050,2410 5062,2408C5080,2406 5089,2393 5103,2347C5114,2315 5128,2286 5135,2284C5142,2281 5239,2182 5351,2064C5463,1945 5587,1823 5625,1791C5703,1728 5914,1598 5977,1576C5999,1568 6036,1552 6060,1540C6084,1528 6138,1512 6179,1505C6221,1498 6356,1473 6480,1450C6720,1405 6835,1398 7055,1413C7200,1423 7220,1427 7375,1471C7558,1523 7703,1595 7784,1672L7844,1729L7865,1710C7905,1673 7957,1691 7974,1747C7984,1779 7946,1846 7883,1906C7842,1946 7792,1977 7677,2034C7593,2075 7509,2115 7489,2123C7454,2137 7439,2161 7426,2220C7423,2234 7407,2266 7390,2291C7355,2344 7304,2473 7250,2645C7229,2711 7205,2782 7196,2803C7187,2823 7173,2873 7166,2913C7151,2988 7099,3133 7057,3217C7043,3244 7025,3293 7016,3326C6997,3401 6894,3714 6880,3739C6875,3750 6859,3813 6845,3880C6830,3948 6808,4032 6794,4069C6780,4105 6756,4180 6740,4236C6703,4362 6608,4575 6571,4615C6542,4646 6466,4750 6410,4835C6368,4899 6114,5157 6035,5217C6002,5243 5957,5280 5935,5301C5913,5322 5862,5357 5822,5379C5783,5402 5711,5448 5664,5482C5509,5593 5400,5763 5498,5744C5519,5740 5534,5745 5558,5765C5576,5780 5590,5797 5590,5804C5590,5811 5574,5853 5555,5897C5536,5942 5520,5987 5520,5999C5520,6029 5564,6027 5595,5995C5619,5972 5620,5964 5620,5861C5620,5801 5625,5739 5631,5724C5646,5684 5974,5360 6045,5315C6078,5294 6158,5226 6222,5163C6287,5101 6346,5050 6354,5050C6375,5050 6393,5087 6386,5115C6380,5137 6196,5315 6090,5400C6060,5424 5979,5497 5910,5562C5841,5627 5773,5691 5758,5704C5697,5757 5715,5810 5794,5810C5877,5810 5898,5870 5864,6009C5848,6073 5848,6074 5870,6092C5902,6118 5948,6114 6006,6080ZM4817,6003C4812,5972 4795,5949 4730,5886C4668,5825 4647,5809 4638,5818C4624,5832 4640,5863 4703,5947C4738,5995 4792,6039 4814,6040C4819,6040 4820,6023 4817,6003ZM6318,5938C6336,5900 6354,5656 6344,5591C6339,5561 6330,5535 6324,5533C6318,5531 6301,5539 6285,5552L6257,5574L6262,5760C6265,5863 6270,5953 6274,5959C6285,5976 6303,5967 6318,5938ZM9128,5922C9143,5912 9187,5882 9225,5857C9347,5775 9340,5789 9289,5723C9245,5665 9208,5604 9114,5438C9064,5349 8995,5266 8927,5216C8906,5201 8884,5177 8877,5163C8871,5149 8849,5132 8828,5123C8806,5114 8782,5094 8770,5075C8759,5057 8728,5025 8702,5004C8676,4983 8646,4956 8635,4944C8608,4914 8464,4840 8432,4840C8402,4840 8370,4866 8370,4891C8370,4911 8414,4946 8453,4955C8468,4959 8506,4979 8538,4999C8569,5020 8623,5051 8657,5069C8691,5088 8754,5135 8797,5175C8871,5244 8874,5248 8863,5273C8856,5288 8846,5300 8840,5300C8834,5300 8796,5271 8755,5236C8715,5200 8662,5161 8638,5149C8614,5137 8582,5118 8565,5105C8479,5041 8346,5000 8223,5000C8151,5000 8138,5003 8120,5022C8109,5034 8100,5047 8100,5052C8100,5068 8035,5100 8003,5100C7982,5100 7948,5086 7909,5060C7841,5016 7828,5013 7810,5035C7786,5064 7805,5121 7854,5168L7899,5210L8000,5210C8056,5210 8110,5215 8121,5220C8135,5228 8148,5227 8169,5215C8204,5198 8292,5196 8395,5210C8482,5223 8633,5294 8740,5374C8959,5536 8971,5550 8933,5592C8910,5618 8899,5615 8849,5572C8770,5503 8600,5389 8527,5355C8455,5322 8366,5300 8303,5300L8269,5300L8276,5358C8283,5426 8267,5453 8221,5448C8199,5445 8193,5438 8184,5400C8175,5363 8166,5350 8130,5328C8086,5300 8034,5293 7983,5306C7946,5316 7956,5326 8019,5344C8080,5361 8130,5392 8130,5414C8130,5421 8119,5433 8105,5440C8073,5457 8073,5483 8106,5509C8140,5535 8189,5549 8316,5565C8372,5573 8434,5586 8455,5594C8476,5603 8507,5610 8524,5610C8541,5610 8573,5619 8596,5629C8647,5652 8788,5753 8858,5817C8927,5878 8947,5889 8993,5890C9020,5890 9036,5897 9052,5915C9078,5945 9092,5946 9128,5922ZM1221,5658C1240,5652 1271,5636 1292,5624C1331,5599 1334,5592 1345,5450L1351,5375L1309,5343C1253,5300 1218,5300 1174,5344C1155,5363 1140,5387 1140,5398C1140,5421 1175,5450 1202,5450C1223,5450 1244,5485 1234,5503C1207,5550 1202,5551 1134,5517C1058,5480 1044,5455 1054,5374C1062,5306 1076,5285 1132,5253C1292,5162 1450,5246 1450,5422C1450,5457 1443,5512 1435,5545C1422,5599 1423,5606 1437,5618C1446,5624 1477,5630 1505,5630C1547,5630 1561,5625 1580,5605C1593,5591 1608,5580 1613,5580C1618,5580 1642,5562 1666,5540C1690,5518 1716,5500 1725,5500C1733,5500 1752,5481 1766,5458C1781,5434 1803,5404 1815,5390C1859,5341 1888,5172 1900,4900C1909,4694 1912,4677 1965,4500C1984,4436 1997,4378 2010,4300C2019,4241 2038,4182 2066,4129C2091,4080 2198,3971 2244,3948C2279,3930 2290,3929 2338,3939C2408,3953 2453,3988 2486,4051C2514,4107 2532,4110 2542,4059C2546,4040 2556,3994 2564,3956C2572,3918 2576,3882 2572,3876C2569,3870 2563,3817 2559,3757L2553,3649L2504,3578C2478,3539 2413,3463 2360,3408C2286,3332 2258,3310 2237,3310C2207,3310 2205,3315 2195,3420C2187,3498 2167,3545 2131,3566C2117,3575 2095,3597 2083,3615C2042,3678 1896,3714 1799,3686C1715,3661 1661,3600 1634,3495C1604,3382 1622,3274 1687,3189L1725,3138L1787,3143C1860,3148 1935,3182 1964,3223C1979,3243 1986,3271 1988,3323L1992,3396L1947,3437C1880,3499 1812,3507 1789,3457C1777,3429 1793,3380 1814,3380C1836,3380 1890,3331 1890,3310C1890,3285 1871,3272 1824,3264C1787,3259 1781,3261 1757,3290C1732,3319 1730,3329 1730,3406C1730,3541 1754,3570 1862,3570C1956,3569 2041,3526 2075,3459C2094,3423 2113,3201 2107,3090C2098,2946 2036,2798 1920,2646C1891,2608 1831,2560 1812,2560C1808,2560 1791,2547 1775,2530C1759,2514 1744,2500 1741,2500C1738,2500 1713,2528 1685,2562C1640,2617 1634,2631 1623,2699C1617,2741 1604,2813 1595,2860C1586,2907 1571,2999 1560,3065C1533,3247 1543,3225 1380,3465C1369,3482 1334,3536 1304,3585C1273,3635 1222,3707 1190,3746C1158,3785 1102,3871 1066,3938C1007,4045 996,4074 970,4191C953,4263 938,4326 935,4330C908,4373 915,4609 945,4700C958,4739 977,4764 1038,4821C1149,4923 1150,4923 1302,4918C1424,4913 1433,4912 1503,4877C1643,4808 1730,4694 1756,4545C1764,4501 1784,4420 1801,4365C1837,4248 1921,4031 1932,4024C1937,4021 1951,3997 1965,3970C1982,3936 2017,3899 2086,3841C2172,3769 2189,3760 2250,3746C2355,3722 2377,3724 2416,3766C2474,3827 2457,3850 2348,3854C2301,3856 2257,3865 2227,3878C2136,3918 2005,4069 1965,4180C1956,4205 1938,4257 1924,4295C1889,4391 1847,4539 1825,4635C1802,4740 1757,4814 1672,4885C1565,4974 1487,5007 1348,5021C1225,5034 1204,5032 1106,4989C1052,4965 1023,4981 979,5057C931,5139 932,5136 919,5277C908,5401 910,5435 936,5568C943,5602 1069,5654 1181,5669C1184,5670 1202,5665 1221,5658ZM2218,5584C2288,5549 2353,5485 2372,5430C2381,5405 2393,5369 2400,5350C2423,5283 2448,5245 2476,5230C2492,5222 2507,5214 2509,5213C2510,5212 2516,5185 2520,5153C2524,5121 2540,5055 2554,5005C2568,4956 2589,4877 2600,4830C2610,4783 2624,4731 2630,4713C2636,4696 2640,4665 2638,4643C2634,4592 2602,4589 2586,4638C2572,4679 2506,4764 2423,4848C2388,4883 2360,4913 2360,4916C2360,4919 2352,4934 2342,4948C2319,4981 2286,5082 2269,5170C2248,5278 2230,5307 2087,5455C1932,5615 1932,5607 2086,5609C2154,5610 2174,5606 2218,5584ZM2174,5207C2198,5150 2201,5110 2180,5110C2168,5110 2117,5239 2124,5255C2134,5283 2147,5271 2174,5207ZM9907,5001C9957,4985 10016,4959 10039,4944C10062,4929 10105,4909 10133,4899C10162,4889 10186,4875 10188,4866C10193,4843 10079,4845 10003,4868C9966,4880 9936,4884 9922,4879C9903,4872 9902,4866 9907,4802L9913,4733L9831,4701L9685,4755C9472,4836 9425,4832 9035,4707C8975,4687 8894,4663 8856,4654C8818,4644 8775,4626 8762,4615L8737,4593L8759,4571C8780,4550 8788,4549 8839,4555C8938,4567 9035,4589 9101,4616C9189,4652 9375,4690 9463,4690C9512,4690 9570,4681 9645,4660C9706,4644 9787,4625 9825,4618C9884,4607 9895,4602 9898,4583C9902,4557 9882,4551 9820,4562C9795,4567 9748,4573 9715,4576L9655,4582L9620,4508C9588,4442 9580,4432 9530,4406C9441,4360 9362,4368 9272,4434C9220,4472 9162,4481 8905,4487L8664,4493L8510,4460C8425,4442 8343,4421 8328,4414C8290,4394 8290,4350 8327,4320C8358,4296 8361,4296 8495,4334C8651,4379 8689,4383 8938,4376C9164,4371 9174,4369 9233,4343C9304,4312 9354,4281 9345,4272C9335,4262 9271,4270 9194,4291C9107,4315 9094,4310 9056,4246C9027,4196 8965,4139 8912,4114C8827,4074 8690,4082 8580,4134C8514,4165 8486,4166 8339,4140C8276,4130 8169,4116 8100,4110C8031,4104 7930,4091 7875,4080C7820,4070 7735,4056 7685,4050C7636,4044 7569,4030 7537,4020C7506,4009 7461,4000 7437,4000C7390,4000 7396,3992 7268,4232L7221,4320L7243,4334C7256,4342 7325,4352 7412,4359C7492,4366 7573,4376 7592,4381C7610,4387 7686,4396 7762,4400C7845,4406 7913,4415 7936,4425C7957,4433 8028,4454 8094,4471C8161,4488 8256,4517 8305,4535C8412,4575 8556,4620 8574,4620C8607,4620 8751,4700 8901,4802C8931,4822 8987,4851 9025,4866C9064,4880 9111,4899 9130,4907C9149,4915 9192,4927 9225,4934C9258,4942 9323,4957 9370,4968C9487,4997 9682,5027 9756,5029C9798,5030 9844,5021 9907,5001ZM8023,4992C8040,4974 8044,4953 8042,4913C8040,4895 8029,4887 7983,4874C7951,4865 7915,4849 7903,4838C7880,4817 7727,4789 7713,4804C7699,4818 7728,4845 7794,4881C7831,4901 7876,4931 7893,4947C7963,5012 7995,5023 8023,4992ZM3550,4984C3550,4971 3460,4840 3451,4840C3447,4840 3422,4822 3397,4800C3324,4736 3224,4698 3232,4737C3235,4753 3284,4793 3351,4835C3369,4846 3398,4875 3415,4900C3449,4949 3502,4990 3531,4990C3542,4990 3550,4987 3550,4984ZM3718,4962C3720,4948 3710,4922 3696,4901C3682,4881 3670,4858 3670,4852C3670,4845 3653,4821 3631,4797C3610,4774 3572,4722 3546,4683C3520,4643 3491,4606 3481,4600C3469,4594 3442,4594 3403,4600C3337,4611 3275,4596 3235,4561C3224,4551 3194,4529 3169,4512C3082,4454 3104,4418 3198,4464C3261,4495 3280,4489 3264,4443C3254,4413 3162,4343 3120,4333C3106,4330 3081,4316 3064,4303C3035,4282 2960,4270 2960,4287C2960,4290 2985,4319 3015,4351C3045,4383 3070,4414 3070,4420C3070,4426 3057,4443 3041,4458C3008,4488 2980,4547 2960,4628C2947,4676 2948,4686 2968,4749C2990,4816 3022,4870 3040,4870C3045,4870 3065,4857 3083,4840C3102,4824 3123,4810 3129,4810C3135,4810 3146,4799 3152,4785C3162,4762 3159,4755 3102,4696C3055,4648 3040,4625 3040,4603C3040,4569 3065,4530 3087,4530C3095,4530 3137,4554 3179,4583C3221,4613 3273,4643 3295,4650C3414,4688 3451,4718 3596,4898C3655,4970 3677,4990 3693,4988C3707,4986 3716,4977 3718,4962ZM2149,4901C2185,4885 2240,4861 2270,4847C2337,4817 2420,4751 2457,4696C2472,4674 2504,4635 2528,4609C2581,4551 2624,4484 2634,4445C2638,4428 2656,4381 2674,4340C2692,4299 2723,4203 2743,4127C2776,4002 2780,3975 2780,3860C2780,3703 2760,3581 2719,3492C2621,3280 2608,3258 2521,3169C2474,3122 2419,3074 2400,3065C2361,3044 2224,3010 2215,3018C2207,3026 2209,3173 2218,3187C2222,3193 2247,3204 2273,3210C2329,3225 2382,3269 2488,3390C2609,3527 2650,3635 2650,3815C2650,4099 2583,4286 2387,4553C2360,4590 2334,4620 2330,4620C2326,4620 2301,4637 2274,4658C2193,4720 2073,4790 2045,4790C2016,4790 1990,4828 1990,4869C1990,4903 1994,4910 2018,4918C2061,4934 2079,4932 2149,4901ZM5651,4895C5689,4893 5731,4885 5751,4875C5802,4848 6006,4634 6055,4555C6066,4539 6090,4505 6110,4480C6130,4455 6162,4413 6180,4385C6199,4358 6229,4319 6248,4298C6292,4249 6282,4226 6202,4205C6171,4197 6111,4180 6070,4168C6029,4157 5967,4142 5932,4137L5869,4127L5819,4176C5791,4203 5748,4253 5723,4288C5680,4347 5676,4350 5637,4350C5614,4349 5577,4343 5555,4335C5533,4327 5484,4320 5447,4320C5338,4320 5272,4282 5196,4176C5148,4109 5101,4068 5045,4044C5015,4032 5010,4025 5010,3997C5010,3980 5002,3951 4992,3933C4983,3916 4964,3882 4951,3858C4938,3835 4899,3778 4863,3733C4828,3687 4783,3615 4764,3573C4744,3530 4725,3488 4721,3480C4713,3463 4570,3412 4529,3411C4514,3410 4494,3420 4480,3435C4467,3449 4452,3460 4447,3460C4433,3460 4344,3517 4290,3561C4228,3611 4130,3656 4040,3676C3976,3690 3922,3691 3664,3685C3378,3679 3290,3682 3290,3700C3290,3704 3320,3713 3358,3720C3451,3736 3571,3769 3596,3785C3608,3792 3657,3814 3706,3833C3907,3912 3967,3940 4005,3972C4027,3991 4064,4014 4086,4023C4109,4032 4143,4048 4161,4059C4180,4071 4201,4080 4208,4080C4215,4080 4249,4104 4284,4133C4415,4240 4432,4252 4513,4290C4559,4311 4602,4335 4610,4345C4649,4392 4929,4607 5041,4675C5068,4692 5124,4729 5166,4758C5208,4786 5246,4810 5251,4810C5257,4810 5280,4820 5303,4832C5383,4873 5512,4911 5550,4904C5569,4900 5615,4896 5651,4895ZM8294,4854C8321,4827 8313,4803 8265,4770C8206,4729 8167,4714 8103,4705C8060,4699 8050,4701 8050,4713C8050,4739 8225,4869 8262,4870C8271,4870 8286,4863 8294,4854ZM11093,4781C11147,4775 11195,4768 11199,4766C11203,4763 11242,4754 11286,4745C11402,4721 11564,4664 11647,4618C11721,4578 11740,4558 11740,4522C11740,4500 11701,4490 11609,4490C11578,4490 11539,4485 11523,4479C11497,4471 11480,4474 11414,4499C11370,4515 11301,4536 11260,4544C11219,4553 11133,4572 11070,4586C10913,4621 10809,4627 10723,4607C10686,4598 10622,4583 10582,4574C10541,4565 10460,4534 10401,4504C10308,4458 10281,4439 10202,4360C10151,4309 10110,4265 10110,4261C10110,4256 10096,4235 10079,4214C10025,4146 9948,3958 9935,3863C9931,3836 9913,3750 9893,3671C9858,3528 9858,3528 9877,3493L9895,3459L9843,3409C9801,3369 9784,3359 9763,3362C9737,3365 9735,3369 9732,3415C9728,3478 9742,3552 9789,3710C9810,3779 9832,3858 9840,3885C9867,3989 9880,4027 9914,4109C9934,4155 9959,4203 9971,4216C9982,4228 10003,4262 10016,4291C10047,4357 10179,4494 10280,4564C10494,4714 10629,4769 10830,4790C10912,4799 10947,4798 11093,4781ZM3310,4521C3310,4515 3306,4508 3300,4505C3295,4502 3290,4506 3290,4514C3290,4523 3295,4530 3300,4530C3306,4530 3310,4526 3310,4521ZM11005,4491C11209,4448 11281,4426 11284,4406C11284,4400 11263,4385 11236,4371C11208,4357 11151,4311 11109,4270L11032,4195L11025,4119C11013,3995 11023,3851 11045,3805C11089,3716 11258,3676 11373,3728C11400,3740 11444,3766 11471,3786C11554,3847 11610,3987 11580,4059C11565,4097 11480,4155 11417,4172C11369,4184 11368,4184 11285,4142C11168,4082 11124,4008 11188,3981C11219,3968 11233,3972 11303,4014C11357,4046 11408,4050 11445,4026C11495,3993 11466,3935 11367,3871C11298,3825 11270,3822 11200,3848C11144,3870 11131,3901 11131,4020C11130,4158 11159,4199 11300,4270C11414,4328 11548,4369 11675,4387C11806,4406 11878,4407 12046,4395L12157,4387L12129,4314C12110,4263 12089,4230 12065,4209C12002,4153 11947,4079 11941,4042C11936,4013 11929,4005 11900,3995C11865,3983 11822,3936 11744,3825C11693,3752 11668,3718 11629,3670C11592,3623 11585,3613 11526,3524C11417,3361 11379,3300 11358,3255C11345,3227 11325,3191 11312,3173C11300,3155 11284,3126 11278,3108C11265,3071 11204,2970 11167,2925C11153,2908 11125,2866 11105,2832C11048,2737 10951,2658 10956,2711C10957,2719 10968,2772 10980,2830C11020,3019 10995,3165 10924,3165L10895,3165L10898,3068C10904,2886 10876,2744 10820,2673C10795,2641 10795,2622 10818,2597C10834,2579 10834,2577 10802,2550C10759,2514 10580,2460 10508,2460C10476,2461 10476,2461 10495,2476C10506,2485 10537,2503 10563,2516C10634,2553 10641,2576 10651,2815C10660,3014 10679,3149 10705,3200C10713,3215 10742,3254 10770,3286C10822,3347 10833,3387 10810,3431C10797,3455 10755,3456 10735,3433C10673,3360 10651,3331 10637,3303C10628,3286 10602,3251 10580,3225C10558,3199 10531,3162 10521,3142C10493,3089 10435,3037 10361,3000C10326,2983 10286,2957 10272,2943C10249,2920 10248,2916 10263,2905C10272,2898 10320,2890 10370,2887C10532,2875 10556,2855 10547,2737C10539,2624 10527,2595 10475,2564L10432,2539L10364,2556C10282,2576 10222,2613 10204,2655C10194,2680 10194,2699 10206,2760C10214,2801 10220,2848 10220,2863C10220,2894 10196,2909 10171,2893C10145,2877 10102,2789 10095,2740C10087,2681 10074,2659 10060,2680C10049,2698 10032,2771 10024,2845C10018,2894 10021,2908 10064,3007C10090,3066 10122,3125 10136,3138C10149,3151 10172,3184 10186,3211C10200,3239 10231,3288 10255,3321C10279,3354 10308,3406 10320,3438C10347,3509 10365,3539 10457,3663C10497,3718 10547,3794 10569,3833C10591,3873 10629,3924 10654,3947C10709,3999 10732,4042 10765,4155C10797,4268 10798,4319 10766,4349C10733,4380 10671,4389 10654,4365C10643,4350 10644,4341 10660,4309C10671,4288 10680,4251 10680,4228C10680,4172 10636,4080 10579,4015C10554,3988 10513,3931 10487,3890C10419,3782 10338,3667 10304,3628C10287,3609 10268,3578 10261,3559C10239,3499 10196,3419 10165,3382C10108,3313 10042,3214 10010,3149C9993,3114 9973,3074 9965,3060C9920,2984 9890,2907 9890,2871C9890,2736 9957,2608 10108,2451C10142,2416 10170,2382 10170,2374C10170,2367 10152,2351 10130,2340C10107,2328 10057,2290 10018,2254C9932,2175 9914,2166 9797,2136C9747,2123 9697,2109 9688,2105C9669,2098 9612,2152 9563,2225C9548,2247 9525,2278 9513,2293C9500,2309 9490,2332 9490,2345C9490,2386 9637,2490 9695,2490C9751,2490 9767,2449 9730,2403C9719,2389 9710,2373 9710,2369C9710,2364 9719,2351 9730,2340C9760,2310 9803,2314 9839,2351C9897,2409 9893,2456 9822,2532C9771,2586 9734,2610 9698,2610C9661,2610 9580,2567 9511,2511C9476,2483 9441,2460 9434,2460C9426,2460 9403,2476 9381,2495C9329,2542 9310,2603 9310,2719C9310,2848 9325,2879 9414,2939C9453,2966 9513,3012 9546,3042C9580,3072 9625,3110 9646,3126C9705,3170 9776,3228 9862,3302C9904,3338 9950,3376 9964,3385C9978,3395 10038,3461 10097,3533C10157,3605 10232,3694 10265,3730C10385,3862 10427,3917 10484,4010C10516,4062 10553,4121 10567,4140C10599,4185 10594,4239 10554,4281C10522,4315 10468,4320 10420,4295C10388,4279 10317,4189 10306,4153C10293,4112 10220,4035 10157,3998C10123,3977 10089,3960 10083,3960C10026,3960 10186,4223 10307,4330C10332,4352 10357,4370 10363,4370C10369,4370 10387,4381 10404,4393C10525,4485 10811,4531 11005,4491ZM2332,4467C2363,4437 2367,4424 2383,4324C2392,4264 2400,4201 2400,4183C2400,4140 2367,4066 2339,4046C2302,4020 2296,4042 2320,4114C2344,4185 2344,4199 2310,4315C2299,4354 2285,4403 2278,4426C2266,4468 2271,4500 2289,4500C2295,4500 2314,4485 2332,4467ZM6661,4174C6673,4149 6688,4087 6695,4037C6703,3986 6718,3920 6729,3890C6756,3817 6755,3804 6723,3793C6666,3772 6523,3730 6512,3730C6505,3730 6456,3710 6403,3686C6349,3662 6267,3631 6220,3616C6173,3601 6109,3576 6078,3560L6021,3531L5980,3587C5957,3617 5924,3650 5906,3661C5871,3682 5670,3893 5670,3909C5670,3923 5773,3968 5860,3992C5901,4003 5960,4020 5990,4030C6020,4040 6070,4055 6100,4063C6130,4071 6202,4092 6260,4109C6318,4126 6376,4142 6390,4145C6404,4148 6456,4166 6505,4185C6627,4231 6636,4231 6661,4174ZM9807,4108C9798,4056 9764,3941 9735,3865C9721,3827 9703,3766 9695,3730C9684,3676 9676,3661 9649,3640C9631,3626 9578,3579 9532,3535C9447,3454 9410,3400 9410,3357C9410,3344 9397,3314 9382,3289C9352,3243 9258,3150 9241,3150C9201,3150 9177,3314 9199,3432C9217,3525 9279,3643 9355,3730C9506,3901 9567,3964 9634,4018C9725,4091 9793,4140 9804,4140C9808,4140 9810,4125 9807,4108ZM5455,3988C5647,3792 5991,3460 6001,3460C6006,3460 6010,3453 6010,3445C6010,3417 5981,3417 5947,3444C5930,3459 5875,3501 5825,3539C5776,3576 5701,3638 5660,3676C5271,4034 5250,4053 5250,4070C5250,4086 5289,4120 5308,4120C5317,4120 5384,4061 5455,3988ZM5252,3924C5273,3911 5353,3842 5430,3772C5665,3560 5772,3470 5830,3440C5860,3425 5904,3392 5928,3367L5971,3323L5894,3256C5851,3218 5806,3183 5792,3177C5765,3165 5777,3154 5659,3295C5632,3328 5580,3389 5544,3430C5508,3471 5470,3523 5458,3544C5430,3598 5377,3664 5239,3814C5158,3902 5144,3926 5161,3946C5175,3963 5201,3957 5252,3924ZM5166,3777C5265,3672 5375,3539 5423,3465C5476,3385 5554,3291 5636,3208C5694,3150 5702,3122 5659,3128C5616,3135 5574,3168 5530,3232C5506,3267 5466,3314 5440,3336C5415,3359 5381,3397 5365,3421C5348,3445 5307,3499 5272,3540C5196,3630 5080,3802 5080,3824C5080,3854 5107,3840 5166,3777ZM2977,3694C3017,3669 3103,3630 3167,3607L3285,3566L3655,3560L4026,3555L4070,3523C4094,3505 4125,3490 4138,3490C4151,3490 4194,3476 4234,3460C4310,3428 4361,3387 4344,3371C4339,3366 4245,3360 4135,3357C4000,3353 3896,3345 3815,3331C3676,3307 3652,3300 3545,3250C3434,3199 3423,3198 3321,3215C3233,3231 3228,3230 3148,3209C3049,3183 3010,3164 2943,3112C2875,3058 2788,3015 2715,3002C2666,2992 2511,2970 2494,2970C2480,2970 2496,2998 2538,3043C2642,3156 2700,3239 2750,3345C2779,3406 2808,3469 2816,3485C2833,3522 2870,3649 2870,3672C2870,3694 2888,3740 2896,3740C2900,3740 2936,3719 2977,3694ZM6576,3608C6596,3575 6598,3500 6580,3395C6570,3335 6558,3242 6555,3190C6536,2919 6497,2807 6378,2688C6340,2648 6296,2599 6283,2578C6269,2557 6225,2515 6184,2484C6110,2427 6100,2415 6100,2377C6100,2365 6093,2346 6085,2336C6077,2325 6070,2309 6070,2299C6070,2290 6053,2263 6031,2240C5995,2201 5970,2145 5970,2106C5970,2097 5964,2090 5957,2090C5950,2090 5926,2077 5904,2060C5860,2027 5803,2019 5793,2046C5783,2073 5817,2128 5852,2143C5889,2159 5952,2219 5947,2234C5935,2269 5896,2262 5811,2208C5796,2199 5788,2198 5779,2207C5765,2221 5812,2275 5872,2316C5896,2331 5953,2378 5999,2420C6045,2461 6127,2533 6180,2580C6297,2683 6377,2771 6386,2804C6393,2834 6375,2870 6352,2870C6327,2870 6290,2842 6290,2823C6290,2804 6132,2640 6114,2640C6107,2640 6081,2621 6058,2598C6034,2574 5973,2517 5921,2470C5829,2386 5703,2259 5621,2168C5597,2142 5574,2123 5569,2126C5556,2134 5559,2191 5573,2217C5580,2229 5612,2267 5645,2302C5707,2367 5737,2418 5726,2445C5717,2469 5703,2463 5655,2415C5629,2390 5601,2366 5591,2361C5566,2347 5548,2363 5552,2396C5556,2431 5600,2463 5673,2484C5730,2501 5776,2529 5956,2660C5983,2679 6036,2727 6075,2766C6113,2805 6177,2863 6217,2894C6271,2936 6299,2968 6330,3019C6372,3092 6379,3124 6357,3154C6335,3184 6307,3169 6272,3105C6254,3072 6225,3035 6207,3022C6165,2993 6064,2894 6023,2843C6005,2821 5965,2788 5933,2770C5901,2752 5858,2724 5837,2708C5797,2676 5770,2677 5770,2709C5770,2734 5742,2750 5701,2750C5664,2750 5641,2781 5633,2838C5621,2926 5656,2968 5805,3046C5854,3072 5905,3112 5978,3183C6099,3303 6152,3374 6159,3432L6165,3474L6240,3496C6281,3508 6365,3541 6425,3569C6540,3622 6564,3628 6576,3608ZM6711,3152C6739,3139 6803,3125 6881,3115C6956,3105 7011,3093 7022,3084C7041,3066 7054,3008 7045,2980C7034,2945 6937,2954 6785,3004L6655,3047L6652,3114C6650,3152 6653,3180 6657,3178C6661,3176 6686,3164 6711,3152ZM10535,2990C10538,2985 10534,2980 10525,2980C10516,2980 10512,2985 10515,2990C10518,2996 10523,3000 10525,3000C10527,3000 10532,2996 10535,2990ZM6760,2910C6807,2893 6887,2871 6939,2860C6990,2850 7042,2834 7055,2826C7072,2815 7083,2786 7105,2703C7163,2474 7193,2374 7211,2351C7221,2338 7230,2322 7230,2316C7230,2309 7248,2257 7270,2200C7323,2065 7366,2007 7428,1984C7454,1975 7518,1948 7570,1925C7622,1902 7682,1877 7702,1871C7744,1857 7770,1827 7770,1794C7770,1779 7755,1763 7723,1742C7582,1654 7330,1550 7256,1550C7240,1550 7198,1545 7163,1538C7106,1528 7095,1528 7065,1544C7047,1554 7027,1573 7020,1586C7013,1599 6989,1621 6967,1636C6944,1651 6895,1692 6856,1727C6817,1763 6765,1811 6740,1833C6715,1856 6670,1894 6640,1917C6571,1969 6342,2212 6295,2283C6276,2311 6253,2345 6244,2358C6228,2379 6228,2382 6250,2405C6263,2419 6281,2430 6291,2430C6301,2430 6328,2403 6353,2368C6402,2300 6785,1916 6916,1804C6987,1743 7027,1711 7140,1622C7176,1593 7233,1594 7238,1624C7242,1644 7165,1721 7064,1798C6895,1926 6481,2322 6431,2404C6420,2421 6400,2446 6386,2459C6352,2491 6353,2501 6395,2557C6435,2612 6432,2609 6483,2651C6528,2689 6541,2712 6581,2828C6611,2914 6629,2940 6659,2940C6668,2940 6713,2926 6760,2910ZM10940,2666C10940,2663 10936,2658 10930,2655C10925,2652 10920,2654 10920,2659C10920,2665 10925,2670 10930,2670C10936,2670 10940,2668 10940,2666ZM5738,2638C5731,2619 5668,2579 5651,2582C5623,2588 5634,2614 5670,2632C5711,2653 5743,2655 5738,2638ZM10298,2485C10365,2454 10367,2435 10303,2444C10250,2451 10210,2473 10210,2495C10210,2516 10237,2513 10298,2485Z" style="fill:rgb(255,250,234);fill-rule:nonzero;"/>
                <path d="M7418,11898C7360,11880 7338,11866 7271,11803C7185,11723 7169,11697 7193,11673C7216,11650 7250,11663 7317,11720C7356,11753 7396,11777 7439,11791C7497,11811 7517,11812 7633,11806C7773,11799 7790,11804 7790,11847C7790,11879 7749,11896 7639,11909C7526,11924 7496,11922 7418,11898Z" style="fill:rgb(255,250,234);fill-rule:nonzero;"/>
                <path d="M7835,11338C7777,11307 7773,11247 7825,11201C7873,11159 7903,11161 7935,11207C7969,11258 7967,11292 7929,11324C7896,11352 7867,11356 7835,11338Z" style="fill:rgb(255,250,234);fill-rule:nonzero;"/>
                <path d="M1214,4760C1182,4743 1144,4715 1130,4698C1077,4630 1052,4483 1084,4421C1098,4395 1154,4341 1218,4293C1235,4280 1263,4270 1282,4270C1324,4270 1388,4240 1418,4208C1430,4194 1449,4161 1459,4134C1511,3996 1522,3972 1538,3958C1569,3931 1589,3929 1612,3952C1630,3970 1632,3980 1626,4034C1610,4195 1607,4315 1620,4394C1636,4497 1629,4536 1585,4587C1567,4609 1548,4640 1544,4656C1514,4777 1349,4829 1214,4760ZM1406,4668C1433,4655 1461,4633 1468,4619C1483,4590 1477,4530 1451,4445C1433,4386 1432,4385 1393,4382C1371,4380 1333,4386 1309,4395C1285,4404 1252,4415 1235,4418C1200,4427 1173,4472 1164,4543C1158,4584 1161,4593 1188,4628C1249,4704 1311,4715 1406,4668ZM1537,4398C1534,4380 1528,4344 1525,4319C1516,4256 1508,4245 1482,4259C1443,4280 1436,4307 1462,4339C1475,4355 1493,4382 1502,4399C1525,4440 1544,4440 1537,4398Z" style="fill:rgb(255,250,234);fill-rule:nonzero;"/>
                <path d="M1280,4592C1237,4571 1230,4536 1260,4497C1285,4466 1310,4463 1351,4487C1384,4507 1396,4536 1385,4572C1371,4614 1339,4621 1280,4592Z" style="fill:rgb(255,250,234);fill-rule:nonzero;"/>
                <path d="M1021,4246C1010,4232 1025,4167 1053,4115C1073,4077 1163,3980 1197,3960C1252,3928 1310,3939 1310,3983C1310,4003 1294,4017 1195,4088C1189,4092 1168,4122 1146,4155C1080,4258 1049,4280 1021,4246Z" style="fill:rgb(255,250,234);fill-rule:nonzero;"/>
                <path d="M10325,2771C10309,2761 10287,2743 10276,2732C10257,2711 10258,2710 10297,2670C10331,2636 10344,2630 10379,2630C10415,2630 10423,2634 10440,2663C10465,2703 10466,2752 10442,2773C10417,2795 10362,2794 10325,2771Z" style="fill:rgb(255,250,234);fill-rule:nonzero;"/>
            </g>
        </g>
    </g>
</svg>
